M48
; DRILL file {KiCad 5.1.6-c6e7f7d~87~ubuntu18.04.1} date Sun Aug  2 22:12:57 2020
; FORMAT={-:-/ absolute / inch / decimal}
; #@! TF.CreationDate,2020-08-02T22:12:57+02:00
; #@! TF.GenerationSoftware,Kicad,Pcbnew,5.1.6-c6e7f7d~87~ubuntu18.04.1
; #@! TF.FileFunction,Plated,1,4,PTH
FMAT,2
INCH
T1C0.0060
T2C0.0197
T3C0.0394
T4C0.1260
%
G90
G05
T1
X2.985Y-3.095
X2.985Y-3.11
X3.02Y-3.1
X3.045Y-3.1
X3.0475Y-3.39
X3.06Y-3.255
X3.07Y-3.1
X3.07Y-3.39
X3.11Y-3.13
X3.125Y-2.97
X3.125Y-3.01
X3.13Y-3.13
X3.15Y-3.13
X3.16Y-3.175
X3.16Y-3.19
X3.165Y-3.2925
X3.17Y-2.97
X3.17Y-3.01
X3.18Y-3.35
X3.185Y-3.2925
X3.225Y-3.405
X3.25Y-3.405
X3.255Y-3.53
X3.275Y-3.405
X3.37Y-3.202
X3.37Y-3.2275
X3.392Y-3.202
X3.392Y-3.228
X3.404Y-3.302
X3.41Y-3.44
X3.41Y-3.46
X3.412Y-3.134
X3.43Y-3.44
X3.43Y-3.46
X3.434Y-3.302
X3.438Y-3.134
X3.466Y-3.134
X3.466Y-3.16
X3.466Y-3.188
X3.466Y-3.244
X3.466Y-3.272
X3.466Y-3.302
X3.68Y-3.04
X3.68Y-3.06
X3.7Y-3.04
X3.7Y-3.06
X3.715Y-3.355
X3.715Y-3.4
X3.76Y-3.355
X3.76Y-3.4
T2
X2.8555Y-3.7
X2.8832Y-3.6332
X2.8832Y-3.7668
X2.95Y-3.6055
X2.95Y-3.7945
X3.0168Y-3.6332
X3.0168Y-3.7668
X3.0445Y-3.7
X3.7805Y-3.7
X3.8082Y-3.6332
X3.8082Y-3.7668
X3.875Y-3.6055
X3.875Y-3.7945
X3.9418Y-3.6332
X3.9418Y-3.7668
X3.9695Y-3.7
X3.7805Y-2.9
X3.8082Y-2.8332
X3.8082Y-2.9668
X3.875Y-2.8055
X3.875Y-2.9945
X3.9418Y-2.8332
X3.9418Y-2.9668
X3.9695Y-2.9
X2.8555Y-2.9
X2.8832Y-2.8332
X2.8832Y-2.9668
X2.95Y-2.8055
X2.95Y-2.9945
X3.0168Y-2.8332
X3.0168Y-2.9668
X3.0445Y-2.9
T3
X2.85Y-3.14
X2.85Y-3.24
X2.85Y-3.34
X2.85Y-3.44
X3.164Y-3.69
X3.164Y-3.79
X3.264Y-3.69
X3.264Y-3.79
X3.364Y-3.69
X3.364Y-3.79
X3.464Y-3.69
X3.464Y-3.79
X3.564Y-3.69
X3.564Y-3.79
X3.664Y-3.69
X3.664Y-3.79
T4
X2.95Y-3.7
X3.875Y-3.7
X3.875Y-2.9
X2.95Y-2.9
T0
M30
