%TF.GenerationSoftware,KiCad,Pcbnew,5.1.6-c6e7f7d~87~ubuntu18.04.1*%
%TF.CreationDate,2020-08-02T22:12:59+02:00*%
%TF.ProjectId,ad9834_eval,61643938-3334-45f6-9576-616c2e6b6963,rev?*%
%TF.SameCoordinates,Original*%
%TF.FileFunction,Legend,Bot*%
%TF.FilePolarity,Positive*%
%FSLAX46Y46*%
G04 Gerber Fmt 4.6, Leading zero omitted, Abs format (unit mm)*
G04 Created by KiCad (PCBNEW 5.1.6-c6e7f7d~87~ubuntu18.04.1) date 2020-08-02 22:12:59*
%MOMM*%
%LPD*%
G01*
G04 APERTURE LIST*
%ADD10C,0.076200*%
G04 APERTURE END LIST*
D10*
X95250000Y-80518000D02*
X90678000Y-80518000D01*
X95250000Y-83058000D02*
X95250000Y-80518000D01*
X90678000Y-83058000D02*
X95250000Y-83058000D01*
X90678000Y-80518000D02*
X90678000Y-83058000D01*
X94769214Y-81851500D02*
X94587785Y-81851500D01*
X94805500Y-81960357D02*
X94678500Y-81579357D01*
X94551500Y-81960357D01*
X94424500Y-81960357D02*
X94424500Y-81579357D01*
X94333785Y-81579357D01*
X94279357Y-81597500D01*
X94243071Y-81633785D01*
X94224928Y-81670071D01*
X94206785Y-81742642D01*
X94206785Y-81797071D01*
X94224928Y-81869642D01*
X94243071Y-81905928D01*
X94279357Y-81942214D01*
X94333785Y-81960357D01*
X94424500Y-81960357D01*
X94025357Y-81960357D02*
X93952785Y-81960357D01*
X93916500Y-81942214D01*
X93898357Y-81924071D01*
X93862071Y-81869642D01*
X93843928Y-81797071D01*
X93843928Y-81651928D01*
X93862071Y-81615642D01*
X93880214Y-81597500D01*
X93916500Y-81579357D01*
X93989071Y-81579357D01*
X94025357Y-81597500D01*
X94043500Y-81615642D01*
X94061642Y-81651928D01*
X94061642Y-81742642D01*
X94043500Y-81778928D01*
X94025357Y-81797071D01*
X93989071Y-81815214D01*
X93916500Y-81815214D01*
X93880214Y-81797071D01*
X93862071Y-81778928D01*
X93843928Y-81742642D01*
X93626214Y-81742642D02*
X93662500Y-81724500D01*
X93680642Y-81706357D01*
X93698785Y-81670071D01*
X93698785Y-81651928D01*
X93680642Y-81615642D01*
X93662500Y-81597500D01*
X93626214Y-81579357D01*
X93553642Y-81579357D01*
X93517357Y-81597500D01*
X93499214Y-81615642D01*
X93481071Y-81651928D01*
X93481071Y-81670071D01*
X93499214Y-81706357D01*
X93517357Y-81724500D01*
X93553642Y-81742642D01*
X93626214Y-81742642D01*
X93662500Y-81760785D01*
X93680642Y-81778928D01*
X93698785Y-81815214D01*
X93698785Y-81887785D01*
X93680642Y-81924071D01*
X93662500Y-81942214D01*
X93626214Y-81960357D01*
X93553642Y-81960357D01*
X93517357Y-81942214D01*
X93499214Y-81924071D01*
X93481071Y-81887785D01*
X93481071Y-81815214D01*
X93499214Y-81778928D01*
X93517357Y-81760785D01*
X93553642Y-81742642D01*
X93354071Y-81579357D02*
X93118214Y-81579357D01*
X93245214Y-81724500D01*
X93190785Y-81724500D01*
X93154500Y-81742642D01*
X93136357Y-81760785D01*
X93118214Y-81797071D01*
X93118214Y-81887785D01*
X93136357Y-81924071D01*
X93154500Y-81942214D01*
X93190785Y-81960357D01*
X93299642Y-81960357D01*
X93335928Y-81942214D01*
X93354071Y-81924071D01*
X92791642Y-81706357D02*
X92791642Y-81960357D01*
X92882357Y-81561214D02*
X92973071Y-81833357D01*
X92737214Y-81833357D01*
X92682785Y-81996642D02*
X92392500Y-81996642D01*
X92301785Y-81760785D02*
X92174785Y-81760785D01*
X92120357Y-81960357D02*
X92301785Y-81960357D01*
X92301785Y-81579357D01*
X92120357Y-81579357D01*
X92011500Y-81579357D02*
X91884500Y-81960357D01*
X91757500Y-81579357D01*
X91648642Y-81851500D02*
X91467214Y-81851500D01*
X91684928Y-81960357D02*
X91557928Y-81579357D01*
X91430928Y-81960357D01*
X91122500Y-81960357D02*
X91303928Y-81960357D01*
X91303928Y-81579357D01*
X74712285Y-82105500D02*
X74748571Y-82087357D01*
X74803000Y-82087357D01*
X74857428Y-82105500D01*
X74893714Y-82141785D01*
X74911857Y-82178071D01*
X74930000Y-82250642D01*
X74930000Y-82305071D01*
X74911857Y-82377642D01*
X74893714Y-82413928D01*
X74857428Y-82450214D01*
X74803000Y-82468357D01*
X74766714Y-82468357D01*
X74712285Y-82450214D01*
X74694142Y-82432071D01*
X74694142Y-82305071D01*
X74766714Y-82305071D01*
X74530857Y-82468357D02*
X74530857Y-82087357D01*
X74313142Y-82468357D01*
X74313142Y-82087357D01*
X74131714Y-82468357D02*
X74131714Y-82087357D01*
X74041000Y-82087357D01*
X73986571Y-82105500D01*
X73950285Y-82141785D01*
X73932142Y-82178071D01*
X73914000Y-82250642D01*
X73914000Y-82305071D01*
X73932142Y-82377642D01*
X73950285Y-82413928D01*
X73986571Y-82450214D01*
X74041000Y-82468357D01*
X74131714Y-82468357D01*
X75057000Y-79819500D02*
X74875571Y-79819500D01*
X75093285Y-79928357D02*
X74966285Y-79547357D01*
X74839285Y-79928357D01*
X74766714Y-79547357D02*
X74639714Y-79928357D01*
X74512714Y-79547357D01*
X74385714Y-79928357D02*
X74385714Y-79547357D01*
X74295000Y-79547357D01*
X74240571Y-79565500D01*
X74204285Y-79601785D01*
X74186142Y-79638071D01*
X74168000Y-79710642D01*
X74168000Y-79765071D01*
X74186142Y-79837642D01*
X74204285Y-79873928D01*
X74240571Y-79910214D01*
X74295000Y-79928357D01*
X74385714Y-79928357D01*
X74004714Y-79928357D02*
X74004714Y-79547357D01*
X73914000Y-79547357D01*
X73859571Y-79565500D01*
X73823285Y-79601785D01*
X73805142Y-79638071D01*
X73787000Y-79710642D01*
X73787000Y-79765071D01*
X73805142Y-79837642D01*
X73823285Y-79873928D01*
X73859571Y-79910214D01*
X73914000Y-79928357D01*
X74004714Y-79928357D01*
X75066071Y-85008357D02*
X75066071Y-84627357D01*
X74975357Y-84627357D01*
X74920928Y-84645500D01*
X74884642Y-84681785D01*
X74866500Y-84718071D01*
X74848357Y-84790642D01*
X74848357Y-84845071D01*
X74866500Y-84917642D01*
X74884642Y-84953928D01*
X74920928Y-84990214D01*
X74975357Y-85008357D01*
X75066071Y-85008357D01*
X74739500Y-84627357D02*
X74612500Y-85008357D01*
X74485500Y-84627357D01*
X74358500Y-85008357D02*
X74358500Y-84627357D01*
X74267785Y-84627357D01*
X74213357Y-84645500D01*
X74177071Y-84681785D01*
X74158928Y-84718071D01*
X74140785Y-84790642D01*
X74140785Y-84845071D01*
X74158928Y-84917642D01*
X74177071Y-84953928D01*
X74213357Y-84990214D01*
X74267785Y-85008357D01*
X74358500Y-85008357D01*
X73977500Y-85008357D02*
X73977500Y-84627357D01*
X73886785Y-84627357D01*
X73832357Y-84645500D01*
X73796071Y-84681785D01*
X73777928Y-84718071D01*
X73759785Y-84790642D01*
X73759785Y-84845071D01*
X73777928Y-84917642D01*
X73796071Y-84953928D01*
X73832357Y-84990214D01*
X73886785Y-85008357D01*
X73977500Y-85008357D01*
X80554285Y-91503500D02*
X80590571Y-91485357D01*
X80645000Y-91485357D01*
X80699428Y-91503500D01*
X80735714Y-91539785D01*
X80753857Y-91576071D01*
X80772000Y-91648642D01*
X80772000Y-91703071D01*
X80753857Y-91775642D01*
X80735714Y-91811928D01*
X80699428Y-91848214D01*
X80645000Y-91866357D01*
X80608714Y-91866357D01*
X80554285Y-91848214D01*
X80536142Y-91830071D01*
X80536142Y-91703071D01*
X80608714Y-91703071D01*
X80372857Y-91866357D02*
X80372857Y-91485357D01*
X80155142Y-91866357D01*
X80155142Y-91485357D01*
X79973714Y-91866357D02*
X79973714Y-91485357D01*
X79883000Y-91485357D01*
X79828571Y-91503500D01*
X79792285Y-91539785D01*
X79774142Y-91576071D01*
X79756000Y-91648642D01*
X79756000Y-91703071D01*
X79774142Y-91775642D01*
X79792285Y-91811928D01*
X79828571Y-91848214D01*
X79883000Y-91866357D01*
X79973714Y-91866357D01*
X85634285Y-90233500D02*
X85670571Y-90215357D01*
X85725000Y-90215357D01*
X85779428Y-90233500D01*
X85815714Y-90269785D01*
X85833857Y-90306071D01*
X85852000Y-90378642D01*
X85852000Y-90433071D01*
X85833857Y-90505642D01*
X85815714Y-90541928D01*
X85779428Y-90578214D01*
X85725000Y-90596357D01*
X85688714Y-90596357D01*
X85634285Y-90578214D01*
X85616142Y-90560071D01*
X85616142Y-90433071D01*
X85688714Y-90433071D01*
X85452857Y-90596357D02*
X85452857Y-90215357D01*
X85235142Y-90596357D01*
X85235142Y-90215357D01*
X85053714Y-90596357D02*
X85053714Y-90215357D01*
X84963000Y-90215357D01*
X84908571Y-90233500D01*
X84872285Y-90269785D01*
X84854142Y-90306071D01*
X84836000Y-90378642D01*
X84836000Y-90433071D01*
X84854142Y-90505642D01*
X84872285Y-90541928D01*
X84908571Y-90578214D01*
X84963000Y-90596357D01*
X85053714Y-90596357D01*
X90714285Y-90233500D02*
X90750571Y-90215357D01*
X90805000Y-90215357D01*
X90859428Y-90233500D01*
X90895714Y-90269785D01*
X90913857Y-90306071D01*
X90932000Y-90378642D01*
X90932000Y-90433071D01*
X90913857Y-90505642D01*
X90895714Y-90541928D01*
X90859428Y-90578214D01*
X90805000Y-90596357D01*
X90768714Y-90596357D01*
X90714285Y-90578214D01*
X90696142Y-90560071D01*
X90696142Y-90433071D01*
X90768714Y-90433071D01*
X90532857Y-90596357D02*
X90532857Y-90215357D01*
X90315142Y-90596357D01*
X90315142Y-90215357D01*
X90133714Y-90596357D02*
X90133714Y-90215357D01*
X90043000Y-90215357D01*
X89988571Y-90233500D01*
X89952285Y-90269785D01*
X89934142Y-90306071D01*
X89916000Y-90378642D01*
X89916000Y-90433071D01*
X89934142Y-90505642D01*
X89952285Y-90541928D01*
X89988571Y-90578214D01*
X90043000Y-90596357D01*
X90133714Y-90596357D01*
X83765571Y-90396785D02*
X83892571Y-90396785D01*
X83892571Y-90596357D02*
X83892571Y-90215357D01*
X83711142Y-90215357D01*
X83584142Y-90578214D02*
X83529714Y-90596357D01*
X83439000Y-90596357D01*
X83402714Y-90578214D01*
X83384571Y-90560071D01*
X83366428Y-90523785D01*
X83366428Y-90487500D01*
X83384571Y-90451214D01*
X83402714Y-90433071D01*
X83439000Y-90414928D01*
X83511571Y-90396785D01*
X83547857Y-90378642D01*
X83566000Y-90360500D01*
X83584142Y-90324214D01*
X83584142Y-90287928D01*
X83566000Y-90251642D01*
X83547857Y-90233500D01*
X83511571Y-90215357D01*
X83420857Y-90215357D01*
X83366428Y-90233500D01*
X83203142Y-90396785D02*
X83076142Y-90396785D01*
X83021714Y-90596357D02*
X83203142Y-90596357D01*
X83203142Y-90215357D01*
X83021714Y-90215357D01*
X82677000Y-90596357D02*
X82858428Y-90596357D01*
X82858428Y-90215357D01*
X82550000Y-90396785D02*
X82423000Y-90396785D01*
X82368571Y-90596357D02*
X82550000Y-90596357D01*
X82550000Y-90215357D01*
X82368571Y-90215357D01*
X81987571Y-90560071D02*
X82005714Y-90578214D01*
X82060142Y-90596357D01*
X82096428Y-90596357D01*
X82150857Y-90578214D01*
X82187142Y-90541928D01*
X82205285Y-90505642D01*
X82223428Y-90433071D01*
X82223428Y-90378642D01*
X82205285Y-90306071D01*
X82187142Y-90269785D01*
X82150857Y-90233500D01*
X82096428Y-90215357D01*
X82060142Y-90215357D01*
X82005714Y-90233500D01*
X81987571Y-90251642D01*
X81878714Y-90215357D02*
X81661000Y-90215357D01*
X81769857Y-90596357D02*
X81769857Y-90215357D01*
X86459785Y-91866357D02*
X86459785Y-91485357D01*
X86314642Y-91485357D01*
X86278357Y-91503500D01*
X86260214Y-91521642D01*
X86242071Y-91557928D01*
X86242071Y-91612357D01*
X86260214Y-91648642D01*
X86278357Y-91666785D01*
X86314642Y-91684928D01*
X86459785Y-91684928D01*
X86096928Y-91848214D02*
X86042500Y-91866357D01*
X85951785Y-91866357D01*
X85915500Y-91848214D01*
X85897357Y-91830071D01*
X85879214Y-91793785D01*
X85879214Y-91757500D01*
X85897357Y-91721214D01*
X85915500Y-91703071D01*
X85951785Y-91684928D01*
X86024357Y-91666785D01*
X86060642Y-91648642D01*
X86078785Y-91630500D01*
X86096928Y-91594214D01*
X86096928Y-91557928D01*
X86078785Y-91521642D01*
X86060642Y-91503500D01*
X86024357Y-91485357D01*
X85933642Y-91485357D01*
X85879214Y-91503500D01*
X85715928Y-91666785D02*
X85588928Y-91666785D01*
X85534500Y-91866357D02*
X85715928Y-91866357D01*
X85715928Y-91485357D01*
X85534500Y-91485357D01*
X85189785Y-91866357D02*
X85371214Y-91866357D01*
X85371214Y-91485357D01*
X85062785Y-91666785D02*
X84935785Y-91666785D01*
X84881357Y-91866357D02*
X85062785Y-91866357D01*
X85062785Y-91485357D01*
X84881357Y-91485357D01*
X84500357Y-91830071D02*
X84518500Y-91848214D01*
X84572928Y-91866357D01*
X84609214Y-91866357D01*
X84663642Y-91848214D01*
X84699928Y-91811928D01*
X84718071Y-91775642D01*
X84736214Y-91703071D01*
X84736214Y-91648642D01*
X84718071Y-91576071D01*
X84699928Y-91539785D01*
X84663642Y-91503500D01*
X84609214Y-91485357D01*
X84572928Y-91485357D01*
X84518500Y-91503500D01*
X84500357Y-91521642D01*
X84391500Y-91485357D02*
X84173785Y-91485357D01*
X84282642Y-91866357D02*
X84282642Y-91485357D01*
X88682285Y-91848214D02*
X88627857Y-91866357D01*
X88537142Y-91866357D01*
X88500857Y-91848214D01*
X88482714Y-91830071D01*
X88464571Y-91793785D01*
X88464571Y-91757500D01*
X88482714Y-91721214D01*
X88500857Y-91703071D01*
X88537142Y-91684928D01*
X88609714Y-91666785D01*
X88646000Y-91648642D01*
X88664142Y-91630500D01*
X88682285Y-91594214D01*
X88682285Y-91557928D01*
X88664142Y-91521642D01*
X88646000Y-91503500D01*
X88609714Y-91485357D01*
X88519000Y-91485357D01*
X88464571Y-91503500D01*
X88119857Y-91866357D02*
X88301285Y-91866357D01*
X88301285Y-91485357D01*
X87992857Y-91666785D02*
X87865857Y-91666785D01*
X87811428Y-91866357D02*
X87992857Y-91866357D01*
X87992857Y-91485357D01*
X87811428Y-91485357D01*
X87648142Y-91666785D02*
X87521142Y-91666785D01*
X87466714Y-91866357D02*
X87648142Y-91866357D01*
X87648142Y-91485357D01*
X87466714Y-91485357D01*
X87303428Y-91866357D02*
X87303428Y-91485357D01*
X87158285Y-91485357D01*
X87122000Y-91503500D01*
X87103857Y-91521642D01*
X87085714Y-91557928D01*
X87085714Y-91612357D01*
X87103857Y-91648642D01*
X87122000Y-91666785D01*
X87158285Y-91684928D01*
X87303428Y-91684928D01*
X74712285Y-87185500D02*
X74748571Y-87167357D01*
X74803000Y-87167357D01*
X74857428Y-87185500D01*
X74893714Y-87221785D01*
X74911857Y-87258071D01*
X74930000Y-87330642D01*
X74930000Y-87385071D01*
X74911857Y-87457642D01*
X74893714Y-87493928D01*
X74857428Y-87530214D01*
X74803000Y-87548357D01*
X74766714Y-87548357D01*
X74712285Y-87530214D01*
X74694142Y-87512071D01*
X74694142Y-87385071D01*
X74766714Y-87385071D01*
X74530857Y-87548357D02*
X74530857Y-87167357D01*
X74313142Y-87548357D01*
X74313142Y-87167357D01*
X74131714Y-87548357D02*
X74131714Y-87167357D01*
X74041000Y-87167357D01*
X73986571Y-87185500D01*
X73950285Y-87221785D01*
X73932142Y-87258071D01*
X73914000Y-87330642D01*
X73914000Y-87385071D01*
X73932142Y-87457642D01*
X73950285Y-87493928D01*
X73986571Y-87530214D01*
X74041000Y-87548357D01*
X74131714Y-87548357D01*
X93644357Y-91666785D02*
X93771357Y-91666785D01*
X93771357Y-91866357D02*
X93771357Y-91485357D01*
X93589928Y-91485357D01*
X93462928Y-91848214D02*
X93408500Y-91866357D01*
X93317785Y-91866357D01*
X93281500Y-91848214D01*
X93263357Y-91830071D01*
X93245214Y-91793785D01*
X93245214Y-91757500D01*
X93263357Y-91721214D01*
X93281500Y-91703071D01*
X93317785Y-91684928D01*
X93390357Y-91666785D01*
X93426642Y-91648642D01*
X93444785Y-91630500D01*
X93462928Y-91594214D01*
X93462928Y-91557928D01*
X93444785Y-91521642D01*
X93426642Y-91503500D01*
X93390357Y-91485357D01*
X93299642Y-91485357D01*
X93245214Y-91503500D01*
X93009357Y-91684928D02*
X93009357Y-91866357D01*
X93136357Y-91485357D02*
X93009357Y-91684928D01*
X92882357Y-91485357D01*
X92755357Y-91866357D02*
X92755357Y-91485357D01*
X92537642Y-91866357D01*
X92537642Y-91485357D01*
X92138500Y-91830071D02*
X92156642Y-91848214D01*
X92211071Y-91866357D01*
X92247357Y-91866357D01*
X92301785Y-91848214D01*
X92338071Y-91811928D01*
X92356214Y-91775642D01*
X92374357Y-91703071D01*
X92374357Y-91648642D01*
X92356214Y-91576071D01*
X92338071Y-91539785D01*
X92301785Y-91503500D01*
X92247357Y-91485357D01*
X92211071Y-91485357D01*
X92156642Y-91503500D01*
X92138500Y-91521642D01*
X83257571Y-91848214D02*
X83203142Y-91866357D01*
X83112428Y-91866357D01*
X83076142Y-91848214D01*
X83058000Y-91830071D01*
X83039857Y-91793785D01*
X83039857Y-91757500D01*
X83058000Y-91721214D01*
X83076142Y-91703071D01*
X83112428Y-91684928D01*
X83185000Y-91666785D01*
X83221285Y-91648642D01*
X83239428Y-91630500D01*
X83257571Y-91594214D01*
X83257571Y-91557928D01*
X83239428Y-91521642D01*
X83221285Y-91503500D01*
X83185000Y-91485357D01*
X83094285Y-91485357D01*
X83039857Y-91503500D01*
X82658857Y-91830071D02*
X82677000Y-91848214D01*
X82731428Y-91866357D01*
X82767714Y-91866357D01*
X82822142Y-91848214D01*
X82858428Y-91811928D01*
X82876571Y-91775642D01*
X82894714Y-91703071D01*
X82894714Y-91648642D01*
X82876571Y-91576071D01*
X82858428Y-91539785D01*
X82822142Y-91503500D01*
X82767714Y-91485357D01*
X82731428Y-91485357D01*
X82677000Y-91503500D01*
X82658857Y-91521642D01*
X82314142Y-91866357D02*
X82495571Y-91866357D01*
X82495571Y-91485357D01*
X80726642Y-90578214D02*
X80672214Y-90596357D01*
X80581500Y-90596357D01*
X80545214Y-90578214D01*
X80527071Y-90560071D01*
X80508928Y-90523785D01*
X80508928Y-90487500D01*
X80527071Y-90451214D01*
X80545214Y-90433071D01*
X80581500Y-90414928D01*
X80654071Y-90396785D01*
X80690357Y-90378642D01*
X80708500Y-90360500D01*
X80726642Y-90324214D01*
X80726642Y-90287928D01*
X80708500Y-90251642D01*
X80690357Y-90233500D01*
X80654071Y-90215357D01*
X80563357Y-90215357D01*
X80508928Y-90233500D01*
X80345642Y-90596357D02*
X80345642Y-90215357D01*
X80254928Y-90215357D01*
X80200500Y-90233500D01*
X80164214Y-90269785D01*
X80146071Y-90306071D01*
X80127928Y-90378642D01*
X80127928Y-90433071D01*
X80146071Y-90505642D01*
X80164214Y-90541928D01*
X80200500Y-90578214D01*
X80254928Y-90596357D01*
X80345642Y-90596357D01*
X79982785Y-90487500D02*
X79801357Y-90487500D01*
X80019071Y-90596357D02*
X79892071Y-90215357D01*
X79765071Y-90596357D01*
X88437357Y-90596357D02*
X88564357Y-90414928D01*
X88655071Y-90596357D02*
X88655071Y-90215357D01*
X88509928Y-90215357D01*
X88473642Y-90233500D01*
X88455500Y-90251642D01*
X88437357Y-90287928D01*
X88437357Y-90342357D01*
X88455500Y-90378642D01*
X88473642Y-90396785D01*
X88509928Y-90414928D01*
X88655071Y-90414928D01*
X88274071Y-90396785D02*
X88147071Y-90396785D01*
X88092642Y-90596357D02*
X88274071Y-90596357D01*
X88274071Y-90215357D01*
X88092642Y-90215357D01*
X87947500Y-90578214D02*
X87893071Y-90596357D01*
X87802357Y-90596357D01*
X87766071Y-90578214D01*
X87747928Y-90560071D01*
X87729785Y-90523785D01*
X87729785Y-90487500D01*
X87747928Y-90451214D01*
X87766071Y-90433071D01*
X87802357Y-90414928D01*
X87874928Y-90396785D01*
X87911214Y-90378642D01*
X87929357Y-90360500D01*
X87947500Y-90324214D01*
X87947500Y-90287928D01*
X87929357Y-90251642D01*
X87911214Y-90233500D01*
X87874928Y-90215357D01*
X87784214Y-90215357D01*
X87729785Y-90233500D01*
X87566500Y-90396785D02*
X87439500Y-90396785D01*
X87385071Y-90596357D02*
X87566500Y-90596357D01*
X87566500Y-90215357D01*
X87385071Y-90215357D01*
X87276214Y-90215357D02*
X87058500Y-90215357D01*
X87167357Y-90596357D02*
X87167357Y-90215357D01*
X93453857Y-90578214D02*
X93399428Y-90596357D01*
X93308714Y-90596357D01*
X93272428Y-90578214D01*
X93254285Y-90560071D01*
X93236142Y-90523785D01*
X93236142Y-90487500D01*
X93254285Y-90451214D01*
X93272428Y-90433071D01*
X93308714Y-90414928D01*
X93381285Y-90396785D01*
X93417571Y-90378642D01*
X93435714Y-90360500D01*
X93453857Y-90324214D01*
X93453857Y-90287928D01*
X93435714Y-90251642D01*
X93417571Y-90233500D01*
X93381285Y-90215357D01*
X93290571Y-90215357D01*
X93236142Y-90233500D01*
X92855142Y-90560071D02*
X92873285Y-90578214D01*
X92927714Y-90596357D01*
X92964000Y-90596357D01*
X93018428Y-90578214D01*
X93054714Y-90541928D01*
X93072857Y-90505642D01*
X93091000Y-90433071D01*
X93091000Y-90378642D01*
X93072857Y-90306071D01*
X93054714Y-90269785D01*
X93018428Y-90233500D01*
X92964000Y-90215357D01*
X92927714Y-90215357D01*
X92873285Y-90233500D01*
X92855142Y-90251642D01*
X92691857Y-90596357D02*
X92691857Y-90215357D01*
X92474142Y-90596357D02*
X92637428Y-90378642D01*
X92474142Y-90215357D02*
X92691857Y-90433071D01*
X91195071Y-91848214D02*
X91140642Y-91866357D01*
X91049928Y-91866357D01*
X91013642Y-91848214D01*
X90995500Y-91830071D01*
X90977357Y-91793785D01*
X90977357Y-91757500D01*
X90995500Y-91721214D01*
X91013642Y-91703071D01*
X91049928Y-91684928D01*
X91122500Y-91666785D01*
X91158785Y-91648642D01*
X91176928Y-91630500D01*
X91195071Y-91594214D01*
X91195071Y-91557928D01*
X91176928Y-91521642D01*
X91158785Y-91503500D01*
X91122500Y-91485357D01*
X91031785Y-91485357D01*
X90977357Y-91503500D01*
X90814071Y-91866357D02*
X90814071Y-91485357D01*
X90723357Y-91485357D01*
X90668928Y-91503500D01*
X90632642Y-91539785D01*
X90614500Y-91576071D01*
X90596357Y-91648642D01*
X90596357Y-91703071D01*
X90614500Y-91775642D01*
X90632642Y-91811928D01*
X90668928Y-91848214D01*
X90723357Y-91866357D01*
X90814071Y-91866357D01*
X90451214Y-91757500D02*
X90269785Y-91757500D01*
X90487500Y-91866357D02*
X90360500Y-91485357D01*
X90233500Y-91866357D01*
X90160928Y-91485357D02*
X89943214Y-91485357D01*
X90052071Y-91866357D02*
X90052071Y-91485357D01*
X89834357Y-91757500D02*
X89652928Y-91757500D01*
X89870642Y-91866357D02*
X89743642Y-91485357D01*
X89616642Y-91866357D01*
%TO.C,C4*%
X78348721Y-84076000D02*
X78674279Y-84076000D01*
X78348721Y-83056000D02*
X78674279Y-83056000D01*
%TO.C,C25*%
X90908100Y-87181000D02*
X84148100Y-87181000D01*
X84148100Y-87181000D02*
X84148100Y-83761000D01*
X84148100Y-83761000D02*
X90908100Y-83761000D01*
%TO.C,C24*%
X86070321Y-83314000D02*
X86395879Y-83314000D01*
X86070321Y-82294000D02*
X86395879Y-82294000D01*
%TO.C,C23*%
X82170500Y-82482000D02*
X75410500Y-82482000D01*
X75410500Y-82482000D02*
X75410500Y-79062000D01*
X75410500Y-79062000D02*
X82170500Y-79062000D01*
%TO.C,C22*%
X86070321Y-81155000D02*
X86395879Y-81155000D01*
X86070321Y-80135000D02*
X86395879Y-80135000D01*
%TO.C,C21*%
X90908100Y-79688000D02*
X84148100Y-79688000D01*
X84148100Y-79688000D02*
X84148100Y-76268000D01*
X84148100Y-76268000D02*
X90908100Y-76268000D01*
%TO.C,C20*%
X76443721Y-78424500D02*
X76769279Y-78424500D01*
X76443721Y-77404500D02*
X76769279Y-77404500D01*
%TO.C,C4*%
X80400071Y-83502500D02*
X80418214Y-83484357D01*
X80436357Y-83429928D01*
X80436357Y-83393642D01*
X80418214Y-83339214D01*
X80381928Y-83302928D01*
X80345642Y-83284785D01*
X80273071Y-83266642D01*
X80218642Y-83266642D01*
X80146071Y-83284785D01*
X80109785Y-83302928D01*
X80073500Y-83339214D01*
X80055357Y-83393642D01*
X80055357Y-83429928D01*
X80073500Y-83484357D01*
X80091642Y-83502500D01*
X80182357Y-83829071D02*
X80436357Y-83829071D01*
X80037214Y-83738357D02*
X80309357Y-83647642D01*
X80309357Y-83883500D01*
%TO.C,C25*%
X92637428Y-85607071D02*
X92655571Y-85625214D01*
X92710000Y-85643357D01*
X92746285Y-85643357D01*
X92800714Y-85625214D01*
X92837000Y-85588928D01*
X92855142Y-85552642D01*
X92873285Y-85480071D01*
X92873285Y-85425642D01*
X92855142Y-85353071D01*
X92837000Y-85316785D01*
X92800714Y-85280500D01*
X92746285Y-85262357D01*
X92710000Y-85262357D01*
X92655571Y-85280500D01*
X92637428Y-85298642D01*
X92492285Y-85298642D02*
X92474142Y-85280500D01*
X92437857Y-85262357D01*
X92347142Y-85262357D01*
X92310857Y-85280500D01*
X92292714Y-85298642D01*
X92274571Y-85334928D01*
X92274571Y-85371214D01*
X92292714Y-85425642D01*
X92510428Y-85643357D01*
X92274571Y-85643357D01*
X91929857Y-85262357D02*
X92111285Y-85262357D01*
X92129428Y-85443785D01*
X92111285Y-85425642D01*
X92075000Y-85407500D01*
X91984285Y-85407500D01*
X91948000Y-85425642D01*
X91929857Y-85443785D01*
X91911714Y-85480071D01*
X91911714Y-85570785D01*
X91929857Y-85607071D01*
X91948000Y-85625214D01*
X91984285Y-85643357D01*
X92075000Y-85643357D01*
X92111285Y-85625214D01*
X92129428Y-85607071D01*
%TO.C,C24*%
X88636928Y-82940071D02*
X88655071Y-82958214D01*
X88709500Y-82976357D01*
X88745785Y-82976357D01*
X88800214Y-82958214D01*
X88836500Y-82921928D01*
X88854642Y-82885642D01*
X88872785Y-82813071D01*
X88872785Y-82758642D01*
X88854642Y-82686071D01*
X88836500Y-82649785D01*
X88800214Y-82613500D01*
X88745785Y-82595357D01*
X88709500Y-82595357D01*
X88655071Y-82613500D01*
X88636928Y-82631642D01*
X88491785Y-82631642D02*
X88473642Y-82613500D01*
X88437357Y-82595357D01*
X88346642Y-82595357D01*
X88310357Y-82613500D01*
X88292214Y-82631642D01*
X88274071Y-82667928D01*
X88274071Y-82704214D01*
X88292214Y-82758642D01*
X88509928Y-82976357D01*
X88274071Y-82976357D01*
X87947500Y-82722357D02*
X87947500Y-82976357D01*
X88038214Y-82577214D02*
X88128928Y-82849357D01*
X87893071Y-82849357D01*
%TO.C,C23*%
X84064928Y-80908071D02*
X84083071Y-80926214D01*
X84137500Y-80944357D01*
X84173785Y-80944357D01*
X84228214Y-80926214D01*
X84264500Y-80889928D01*
X84282642Y-80853642D01*
X84300785Y-80781071D01*
X84300785Y-80726642D01*
X84282642Y-80654071D01*
X84264500Y-80617785D01*
X84228214Y-80581500D01*
X84173785Y-80563357D01*
X84137500Y-80563357D01*
X84083071Y-80581500D01*
X84064928Y-80599642D01*
X83919785Y-80599642D02*
X83901642Y-80581500D01*
X83865357Y-80563357D01*
X83774642Y-80563357D01*
X83738357Y-80581500D01*
X83720214Y-80599642D01*
X83702071Y-80635928D01*
X83702071Y-80672214D01*
X83720214Y-80726642D01*
X83937928Y-80944357D01*
X83702071Y-80944357D01*
X83575071Y-80563357D02*
X83339214Y-80563357D01*
X83466214Y-80708500D01*
X83411785Y-80708500D01*
X83375500Y-80726642D01*
X83357357Y-80744785D01*
X83339214Y-80781071D01*
X83339214Y-80871785D01*
X83357357Y-80908071D01*
X83375500Y-80926214D01*
X83411785Y-80944357D01*
X83520642Y-80944357D01*
X83556928Y-80926214D01*
X83575071Y-80908071D01*
%TO.C,C22*%
X88636928Y-80781071D02*
X88655071Y-80799214D01*
X88709500Y-80817357D01*
X88745785Y-80817357D01*
X88800214Y-80799214D01*
X88836500Y-80762928D01*
X88854642Y-80726642D01*
X88872785Y-80654071D01*
X88872785Y-80599642D01*
X88854642Y-80527071D01*
X88836500Y-80490785D01*
X88800214Y-80454500D01*
X88745785Y-80436357D01*
X88709500Y-80436357D01*
X88655071Y-80454500D01*
X88636928Y-80472642D01*
X88491785Y-80472642D02*
X88473642Y-80454500D01*
X88437357Y-80436357D01*
X88346642Y-80436357D01*
X88310357Y-80454500D01*
X88292214Y-80472642D01*
X88274071Y-80508928D01*
X88274071Y-80545214D01*
X88292214Y-80599642D01*
X88509928Y-80817357D01*
X88274071Y-80817357D01*
X88128928Y-80472642D02*
X88110785Y-80454500D01*
X88074500Y-80436357D01*
X87983785Y-80436357D01*
X87947500Y-80454500D01*
X87929357Y-80472642D01*
X87911214Y-80508928D01*
X87911214Y-80545214D01*
X87929357Y-80599642D01*
X88147071Y-80817357D01*
X87911214Y-80817357D01*
%TO.C,C21*%
X92573928Y-78114071D02*
X92592071Y-78132214D01*
X92646500Y-78150357D01*
X92682785Y-78150357D01*
X92737214Y-78132214D01*
X92773500Y-78095928D01*
X92791642Y-78059642D01*
X92809785Y-77987071D01*
X92809785Y-77932642D01*
X92791642Y-77860071D01*
X92773500Y-77823785D01*
X92737214Y-77787500D01*
X92682785Y-77769357D01*
X92646500Y-77769357D01*
X92592071Y-77787500D01*
X92573928Y-77805642D01*
X92428785Y-77805642D02*
X92410642Y-77787500D01*
X92374357Y-77769357D01*
X92283642Y-77769357D01*
X92247357Y-77787500D01*
X92229214Y-77805642D01*
X92211071Y-77841928D01*
X92211071Y-77878214D01*
X92229214Y-77932642D01*
X92446928Y-78150357D01*
X92211071Y-78150357D01*
X91848214Y-78150357D02*
X92065928Y-78150357D01*
X91957071Y-78150357D02*
X91957071Y-77769357D01*
X91993357Y-77823785D01*
X92029642Y-77860071D01*
X92065928Y-77878214D01*
%TO.C,C20*%
X78984928Y-78050571D02*
X79003071Y-78068714D01*
X79057500Y-78086857D01*
X79093785Y-78086857D01*
X79148214Y-78068714D01*
X79184500Y-78032428D01*
X79202642Y-77996142D01*
X79220785Y-77923571D01*
X79220785Y-77869142D01*
X79202642Y-77796571D01*
X79184500Y-77760285D01*
X79148214Y-77724000D01*
X79093785Y-77705857D01*
X79057500Y-77705857D01*
X79003071Y-77724000D01*
X78984928Y-77742142D01*
X78839785Y-77742142D02*
X78821642Y-77724000D01*
X78785357Y-77705857D01*
X78694642Y-77705857D01*
X78658357Y-77724000D01*
X78640214Y-77742142D01*
X78622071Y-77778428D01*
X78622071Y-77814714D01*
X78640214Y-77869142D01*
X78857928Y-78086857D01*
X78622071Y-78086857D01*
X78386214Y-77705857D02*
X78349928Y-77705857D01*
X78313642Y-77724000D01*
X78295500Y-77742142D01*
X78277357Y-77778428D01*
X78259214Y-77851000D01*
X78259214Y-77941714D01*
X78277357Y-78014285D01*
X78295500Y-78050571D01*
X78313642Y-78068714D01*
X78349928Y-78086857D01*
X78386214Y-78086857D01*
X78422500Y-78068714D01*
X78440642Y-78050571D01*
X78458785Y-78014285D01*
X78476928Y-77941714D01*
X78476928Y-77851000D01*
X78458785Y-77778428D01*
X78440642Y-77742142D01*
X78422500Y-77724000D01*
X78386214Y-77705857D01*
%TD*%
M02*
