%TF.GenerationSoftware,KiCad,Pcbnew,5.1.6-c6e7f7d~87~ubuntu18.04.1*%
%TF.CreationDate,2020-08-02T22:12:59+02:00*%
%TF.ProjectId,ad9834_eval,61643938-3334-45f6-9576-616c2e6b6963,rev?*%
%TF.SameCoordinates,Original*%
%TF.FileFunction,Copper,L3,Inr*%
%TF.FilePolarity,Positive*%
%FSLAX46Y46*%
G04 Gerber Fmt 4.6, Leading zero omitted, Abs format (unit mm)*
G04 Created by KiCad (PCBNEW 5.1.6-c6e7f7d~87~ubuntu18.04.1) date 2020-08-02 22:12:59*
%MOMM*%
%LPD*%
G01*
G04 APERTURE LIST*
%TA.AperFunction,ViaPad*%
%ADD10O,1.700000X1.700000*%
%TD*%
%TA.AperFunction,ViaPad*%
%ADD11R,1.700000X1.700000*%
%TD*%
%TA.AperFunction,ViaPad*%
%ADD12C,0.800000*%
%TD*%
%TA.AperFunction,ViaPad*%
%ADD13C,6.400000*%
%TD*%
%TA.AperFunction,ViaPad*%
%ADD14C,0.304800*%
%TD*%
%TA.AperFunction,Conductor*%
%ADD15C,0.101600*%
%TD*%
G04 APERTURE END LIST*
D10*
%TO.N,Net-(J1-Pad12)*%
%TO.C,J1*%
X93065600Y-96266000D03*
%TO.N,Net-(J1-Pad11)*%
X93065600Y-93726000D03*
%TO.N,Net-(J1-Pad10)*%
X90525600Y-96266000D03*
%TO.N,GNDA*%
X90525600Y-93726000D03*
%TO.N,Net-(J1-Pad8)*%
X87985600Y-96266000D03*
%TO.N,Net-(J1-Pad7)*%
X87985600Y-93726000D03*
%TO.N,Net-(J1-Pad6)*%
X85445600Y-96266000D03*
%TO.N,GNDA*%
X85445600Y-93726000D03*
%TO.N,Net-(J1-Pad4)*%
X82905600Y-96266000D03*
%TO.N,Net-(J1-Pad3)*%
X82905600Y-93726000D03*
%TO.N,GNDA*%
X80365600Y-96266000D03*
D11*
%TO.N,Net-(J1-Pad1)*%
X80365600Y-93726000D03*
%TD*%
D10*
%TO.N,GNDA*%
%TO.C,J4*%
X72390000Y-87376000D03*
%TO.N,DVDD*%
X72390000Y-84836000D03*
%TO.N,GNDA*%
X72390000Y-82296000D03*
D11*
%TO.N,AVDD*%
X72390000Y-79756000D03*
%TD*%
D12*
%TO.N,GNDA*%
%TO.C,H4*%
X76627056Y-71962944D03*
X74930000Y-71260000D03*
X73232944Y-71962944D03*
X72530000Y-73660000D03*
X73232944Y-75357056D03*
X74930000Y-76060000D03*
X76627056Y-75357056D03*
X77330000Y-73660000D03*
D13*
X74930000Y-73660000D03*
%TD*%
D12*
%TO.N,GNDA*%
%TO.C,H3*%
X76627056Y-92282944D03*
X74930000Y-91580000D03*
X73232944Y-92282944D03*
X72530000Y-93980000D03*
X73232944Y-95677056D03*
X74930000Y-96380000D03*
X76627056Y-95677056D03*
X77330000Y-93980000D03*
D13*
X74930000Y-93980000D03*
%TD*%
D12*
%TO.N,GNDA*%
%TO.C,H2*%
X100122056Y-92282944D03*
X98425000Y-91580000D03*
X96727944Y-92282944D03*
X96025000Y-93980000D03*
X96727944Y-95677056D03*
X98425000Y-96380000D03*
X100122056Y-95677056D03*
X100825000Y-93980000D03*
D13*
X98425000Y-93980000D03*
%TD*%
D12*
%TO.N,GNDA*%
%TO.C,H1*%
X100122056Y-71962944D03*
X98425000Y-71260000D03*
X96727944Y-71962944D03*
X96025000Y-73660000D03*
X96727944Y-75357056D03*
X98425000Y-76060000D03*
X100122056Y-75357056D03*
X100825000Y-73660000D03*
D13*
X98425000Y-73660000D03*
%TD*%
D14*
%TO.N,AVDD*%
X75819000Y-78613000D03*
X75819000Y-78994000D03*
X80264000Y-81026000D03*
X86156800Y-81330800D03*
X80264000Y-80645000D03*
X85598000Y-81330800D03*
%TO.N,GNDA*%
X80518000Y-75438000D03*
X79375000Y-75438000D03*
X80518000Y-76454000D03*
X79375000Y-76454000D03*
X94361000Y-85217000D03*
X95504000Y-85217000D03*
X95504000Y-86360000D03*
X94361000Y-86360000D03*
X83185000Y-86487000D03*
X82550000Y-86487000D03*
X81915000Y-86487000D03*
X78994000Y-79502000D03*
X77978000Y-86106000D03*
X77406500Y-86106000D03*
X77343000Y-78740000D03*
X77978000Y-78740000D03*
X76708000Y-78740000D03*
X79502000Y-79502000D03*
X80010000Y-79502000D03*
X80391000Y-83629500D03*
X88036400Y-82397600D03*
X86461600Y-83870800D03*
X88036400Y-83108800D03*
X87223600Y-83870800D03*
X88036400Y-83870800D03*
X88036400Y-80975200D03*
X88036400Y-80264000D03*
X86664800Y-79603600D03*
X87325200Y-79603600D03*
X88036400Y-79603600D03*
X86614000Y-87376000D03*
X87122000Y-87376000D03*
X93980000Y-77216000D03*
X93472000Y-77216000D03*
X93472000Y-77724000D03*
X93980000Y-77724000D03*
X86614000Y-87884000D03*
X87122000Y-87884000D03*
X80899000Y-83629500D03*
%TO.N,DVDD*%
X80772000Y-85090000D03*
X82677000Y-89662000D03*
X86156800Y-81991200D03*
X85598000Y-81978500D03*
%TO.N,Net-(C4-Pad1)*%
X77724000Y-82677000D03*
%TD*%
D15*
%TO.N,DVDD*%
G36*
X101905200Y-93511135D02*
G01*
X101795112Y-92957688D01*
X101530913Y-92319855D01*
X101147356Y-91745820D01*
X100659180Y-91257644D01*
X100085145Y-90874087D01*
X99447312Y-90609888D01*
X98770193Y-90475200D01*
X98079807Y-90475200D01*
X97402688Y-90609888D01*
X96764855Y-90874087D01*
X96190820Y-91257644D01*
X95702644Y-91745820D01*
X95319087Y-92319855D01*
X95054888Y-92957688D01*
X94920200Y-93634807D01*
X94920200Y-94325193D01*
X95054888Y-95002312D01*
X95319087Y-95640145D01*
X95702644Y-96214180D01*
X96190820Y-96702356D01*
X96764855Y-97085913D01*
X97402688Y-97350112D01*
X97956135Y-97460200D01*
X75398865Y-97460200D01*
X75952312Y-97350112D01*
X76590145Y-97085913D01*
X77164180Y-96702356D01*
X77652356Y-96214180D01*
X77693728Y-96152262D01*
X79210800Y-96152262D01*
X79210800Y-96379738D01*
X79255178Y-96602843D01*
X79342229Y-96813003D01*
X79468608Y-97002142D01*
X79629458Y-97162992D01*
X79818597Y-97289371D01*
X80028757Y-97376422D01*
X80251862Y-97420800D01*
X80479338Y-97420800D01*
X80702443Y-97376422D01*
X80912603Y-97289371D01*
X81101742Y-97162992D01*
X81262592Y-97002142D01*
X81388971Y-96813003D01*
X81476022Y-96602843D01*
X81520400Y-96379738D01*
X81520400Y-96152262D01*
X81750800Y-96152262D01*
X81750800Y-96379738D01*
X81795178Y-96602843D01*
X81882229Y-96813003D01*
X82008608Y-97002142D01*
X82169458Y-97162992D01*
X82358597Y-97289371D01*
X82568757Y-97376422D01*
X82791862Y-97420800D01*
X83019338Y-97420800D01*
X83242443Y-97376422D01*
X83452603Y-97289371D01*
X83641742Y-97162992D01*
X83802592Y-97002142D01*
X83928971Y-96813003D01*
X84016022Y-96602843D01*
X84060400Y-96379738D01*
X84060400Y-96152262D01*
X84290800Y-96152262D01*
X84290800Y-96379738D01*
X84335178Y-96602843D01*
X84422229Y-96813003D01*
X84548608Y-97002142D01*
X84709458Y-97162992D01*
X84898597Y-97289371D01*
X85108757Y-97376422D01*
X85331862Y-97420800D01*
X85559338Y-97420800D01*
X85782443Y-97376422D01*
X85992603Y-97289371D01*
X86181742Y-97162992D01*
X86342592Y-97002142D01*
X86468971Y-96813003D01*
X86556022Y-96602843D01*
X86600400Y-96379738D01*
X86600400Y-96152262D01*
X86830800Y-96152262D01*
X86830800Y-96379738D01*
X86875178Y-96602843D01*
X86962229Y-96813003D01*
X87088608Y-97002142D01*
X87249458Y-97162992D01*
X87438597Y-97289371D01*
X87648757Y-97376422D01*
X87871862Y-97420800D01*
X88099338Y-97420800D01*
X88322443Y-97376422D01*
X88532603Y-97289371D01*
X88721742Y-97162992D01*
X88882592Y-97002142D01*
X89008971Y-96813003D01*
X89096022Y-96602843D01*
X89140400Y-96379738D01*
X89140400Y-96152262D01*
X89370800Y-96152262D01*
X89370800Y-96379738D01*
X89415178Y-96602843D01*
X89502229Y-96813003D01*
X89628608Y-97002142D01*
X89789458Y-97162992D01*
X89978597Y-97289371D01*
X90188757Y-97376422D01*
X90411862Y-97420800D01*
X90639338Y-97420800D01*
X90862443Y-97376422D01*
X91072603Y-97289371D01*
X91261742Y-97162992D01*
X91422592Y-97002142D01*
X91548971Y-96813003D01*
X91636022Y-96602843D01*
X91680400Y-96379738D01*
X91680400Y-96152262D01*
X91910800Y-96152262D01*
X91910800Y-96379738D01*
X91955178Y-96602843D01*
X92042229Y-96813003D01*
X92168608Y-97002142D01*
X92329458Y-97162992D01*
X92518597Y-97289371D01*
X92728757Y-97376422D01*
X92951862Y-97420800D01*
X93179338Y-97420800D01*
X93402443Y-97376422D01*
X93612603Y-97289371D01*
X93801742Y-97162992D01*
X93962592Y-97002142D01*
X94088971Y-96813003D01*
X94176022Y-96602843D01*
X94220400Y-96379738D01*
X94220400Y-96152262D01*
X94176022Y-95929157D01*
X94088971Y-95718997D01*
X93962592Y-95529858D01*
X93801742Y-95369008D01*
X93612603Y-95242629D01*
X93402443Y-95155578D01*
X93179338Y-95111200D01*
X92951862Y-95111200D01*
X92728757Y-95155578D01*
X92518597Y-95242629D01*
X92329458Y-95369008D01*
X92168608Y-95529858D01*
X92042229Y-95718997D01*
X91955178Y-95929157D01*
X91910800Y-96152262D01*
X91680400Y-96152262D01*
X91636022Y-95929157D01*
X91548971Y-95718997D01*
X91422592Y-95529858D01*
X91261742Y-95369008D01*
X91072603Y-95242629D01*
X90862443Y-95155578D01*
X90639338Y-95111200D01*
X90411862Y-95111200D01*
X90188757Y-95155578D01*
X89978597Y-95242629D01*
X89789458Y-95369008D01*
X89628608Y-95529858D01*
X89502229Y-95718997D01*
X89415178Y-95929157D01*
X89370800Y-96152262D01*
X89140400Y-96152262D01*
X89096022Y-95929157D01*
X89008971Y-95718997D01*
X88882592Y-95529858D01*
X88721742Y-95369008D01*
X88532603Y-95242629D01*
X88322443Y-95155578D01*
X88099338Y-95111200D01*
X87871862Y-95111200D01*
X87648757Y-95155578D01*
X87438597Y-95242629D01*
X87249458Y-95369008D01*
X87088608Y-95529858D01*
X86962229Y-95718997D01*
X86875178Y-95929157D01*
X86830800Y-96152262D01*
X86600400Y-96152262D01*
X86556022Y-95929157D01*
X86468971Y-95718997D01*
X86342592Y-95529858D01*
X86181742Y-95369008D01*
X85992603Y-95242629D01*
X85782443Y-95155578D01*
X85559338Y-95111200D01*
X85331862Y-95111200D01*
X85108757Y-95155578D01*
X84898597Y-95242629D01*
X84709458Y-95369008D01*
X84548608Y-95529858D01*
X84422229Y-95718997D01*
X84335178Y-95929157D01*
X84290800Y-96152262D01*
X84060400Y-96152262D01*
X84016022Y-95929157D01*
X83928971Y-95718997D01*
X83802592Y-95529858D01*
X83641742Y-95369008D01*
X83452603Y-95242629D01*
X83242443Y-95155578D01*
X83019338Y-95111200D01*
X82791862Y-95111200D01*
X82568757Y-95155578D01*
X82358597Y-95242629D01*
X82169458Y-95369008D01*
X82008608Y-95529858D01*
X81882229Y-95718997D01*
X81795178Y-95929157D01*
X81750800Y-96152262D01*
X81520400Y-96152262D01*
X81476022Y-95929157D01*
X81388971Y-95718997D01*
X81262592Y-95529858D01*
X81101742Y-95369008D01*
X80912603Y-95242629D01*
X80702443Y-95155578D01*
X80479338Y-95111200D01*
X80251862Y-95111200D01*
X80028757Y-95155578D01*
X79818597Y-95242629D01*
X79629458Y-95369008D01*
X79468608Y-95529858D01*
X79342229Y-95718997D01*
X79255178Y-95929157D01*
X79210800Y-96152262D01*
X77693728Y-96152262D01*
X78035913Y-95640145D01*
X78300112Y-95002312D01*
X78434800Y-94325193D01*
X78434800Y-93634807D01*
X78300112Y-92957688D01*
X78266276Y-92876000D01*
X79209326Y-92876000D01*
X79209326Y-94576000D01*
X79215211Y-94635751D01*
X79232640Y-94693206D01*
X79260942Y-94746157D01*
X79299032Y-94792568D01*
X79345443Y-94830658D01*
X79398394Y-94858960D01*
X79455849Y-94876389D01*
X79515600Y-94882274D01*
X81215600Y-94882274D01*
X81275351Y-94876389D01*
X81332806Y-94858960D01*
X81385757Y-94830658D01*
X81432168Y-94792568D01*
X81470258Y-94746157D01*
X81498560Y-94693206D01*
X81515989Y-94635751D01*
X81521874Y-94576000D01*
X81521874Y-93612262D01*
X81750800Y-93612262D01*
X81750800Y-93839738D01*
X81795178Y-94062843D01*
X81882229Y-94273003D01*
X82008608Y-94462142D01*
X82169458Y-94622992D01*
X82358597Y-94749371D01*
X82568757Y-94836422D01*
X82791862Y-94880800D01*
X83019338Y-94880800D01*
X83242443Y-94836422D01*
X83452603Y-94749371D01*
X83641742Y-94622992D01*
X83802592Y-94462142D01*
X83928971Y-94273003D01*
X84016022Y-94062843D01*
X84060400Y-93839738D01*
X84060400Y-93612262D01*
X84290800Y-93612262D01*
X84290800Y-93839738D01*
X84335178Y-94062843D01*
X84422229Y-94273003D01*
X84548608Y-94462142D01*
X84709458Y-94622992D01*
X84898597Y-94749371D01*
X85108757Y-94836422D01*
X85331862Y-94880800D01*
X85559338Y-94880800D01*
X85782443Y-94836422D01*
X85992603Y-94749371D01*
X86181742Y-94622992D01*
X86342592Y-94462142D01*
X86468971Y-94273003D01*
X86556022Y-94062843D01*
X86600400Y-93839738D01*
X86600400Y-93612262D01*
X86830800Y-93612262D01*
X86830800Y-93839738D01*
X86875178Y-94062843D01*
X86962229Y-94273003D01*
X87088608Y-94462142D01*
X87249458Y-94622992D01*
X87438597Y-94749371D01*
X87648757Y-94836422D01*
X87871862Y-94880800D01*
X88099338Y-94880800D01*
X88322443Y-94836422D01*
X88532603Y-94749371D01*
X88721742Y-94622992D01*
X88882592Y-94462142D01*
X89008971Y-94273003D01*
X89096022Y-94062843D01*
X89140400Y-93839738D01*
X89140400Y-93612262D01*
X89370800Y-93612262D01*
X89370800Y-93839738D01*
X89415178Y-94062843D01*
X89502229Y-94273003D01*
X89628608Y-94462142D01*
X89789458Y-94622992D01*
X89978597Y-94749371D01*
X90188757Y-94836422D01*
X90411862Y-94880800D01*
X90639338Y-94880800D01*
X90862443Y-94836422D01*
X91072603Y-94749371D01*
X91261742Y-94622992D01*
X91422592Y-94462142D01*
X91548971Y-94273003D01*
X91636022Y-94062843D01*
X91680400Y-93839738D01*
X91680400Y-93612262D01*
X91910800Y-93612262D01*
X91910800Y-93839738D01*
X91955178Y-94062843D01*
X92042229Y-94273003D01*
X92168608Y-94462142D01*
X92329458Y-94622992D01*
X92518597Y-94749371D01*
X92728757Y-94836422D01*
X92951862Y-94880800D01*
X93179338Y-94880800D01*
X93402443Y-94836422D01*
X93612603Y-94749371D01*
X93801742Y-94622992D01*
X93962592Y-94462142D01*
X94088971Y-94273003D01*
X94176022Y-94062843D01*
X94220400Y-93839738D01*
X94220400Y-93612262D01*
X94176022Y-93389157D01*
X94088971Y-93178997D01*
X93962592Y-92989858D01*
X93801742Y-92829008D01*
X93612603Y-92702629D01*
X93402443Y-92615578D01*
X93179338Y-92571200D01*
X92951862Y-92571200D01*
X92728757Y-92615578D01*
X92518597Y-92702629D01*
X92329458Y-92829008D01*
X92168608Y-92989858D01*
X92042229Y-93178997D01*
X91955178Y-93389157D01*
X91910800Y-93612262D01*
X91680400Y-93612262D01*
X91636022Y-93389157D01*
X91548971Y-93178997D01*
X91422592Y-92989858D01*
X91261742Y-92829008D01*
X91072603Y-92702629D01*
X90862443Y-92615578D01*
X90639338Y-92571200D01*
X90411862Y-92571200D01*
X90188757Y-92615578D01*
X89978597Y-92702629D01*
X89789458Y-92829008D01*
X89628608Y-92989858D01*
X89502229Y-93178997D01*
X89415178Y-93389157D01*
X89370800Y-93612262D01*
X89140400Y-93612262D01*
X89096022Y-93389157D01*
X89008971Y-93178997D01*
X88882592Y-92989858D01*
X88721742Y-92829008D01*
X88532603Y-92702629D01*
X88322443Y-92615578D01*
X88099338Y-92571200D01*
X87871862Y-92571200D01*
X87648757Y-92615578D01*
X87438597Y-92702629D01*
X87249458Y-92829008D01*
X87088608Y-92989858D01*
X86962229Y-93178997D01*
X86875178Y-93389157D01*
X86830800Y-93612262D01*
X86600400Y-93612262D01*
X86556022Y-93389157D01*
X86468971Y-93178997D01*
X86342592Y-92989858D01*
X86181742Y-92829008D01*
X85992603Y-92702629D01*
X85782443Y-92615578D01*
X85559338Y-92571200D01*
X85331862Y-92571200D01*
X85108757Y-92615578D01*
X84898597Y-92702629D01*
X84709458Y-92829008D01*
X84548608Y-92989858D01*
X84422229Y-93178997D01*
X84335178Y-93389157D01*
X84290800Y-93612262D01*
X84060400Y-93612262D01*
X84016022Y-93389157D01*
X83928971Y-93178997D01*
X83802592Y-92989858D01*
X83641742Y-92829008D01*
X83452603Y-92702629D01*
X83242443Y-92615578D01*
X83019338Y-92571200D01*
X82791862Y-92571200D01*
X82568757Y-92615578D01*
X82358597Y-92702629D01*
X82169458Y-92829008D01*
X82008608Y-92989858D01*
X81882229Y-93178997D01*
X81795178Y-93389157D01*
X81750800Y-93612262D01*
X81521874Y-93612262D01*
X81521874Y-92876000D01*
X81515989Y-92816249D01*
X81498560Y-92758794D01*
X81470258Y-92705843D01*
X81432168Y-92659432D01*
X81385757Y-92621342D01*
X81332806Y-92593040D01*
X81275351Y-92575611D01*
X81215600Y-92569726D01*
X79515600Y-92569726D01*
X79455849Y-92575611D01*
X79398394Y-92593040D01*
X79345443Y-92621342D01*
X79299032Y-92659432D01*
X79260942Y-92705843D01*
X79232640Y-92758794D01*
X79215211Y-92816249D01*
X79209326Y-92876000D01*
X78266276Y-92876000D01*
X78035913Y-92319855D01*
X77652356Y-91745820D01*
X77164180Y-91257644D01*
X76590145Y-90874087D01*
X75952312Y-90609888D01*
X75275193Y-90475200D01*
X74584807Y-90475200D01*
X73907688Y-90609888D01*
X73269855Y-90874087D01*
X72695820Y-91257644D01*
X72207644Y-91745820D01*
X71824087Y-92319855D01*
X71559888Y-92957688D01*
X71449800Y-93511135D01*
X71449800Y-88047477D01*
X71493008Y-88112142D01*
X71653858Y-88272992D01*
X71842997Y-88399371D01*
X72053157Y-88486422D01*
X72276262Y-88530800D01*
X72503738Y-88530800D01*
X72726843Y-88486422D01*
X72937003Y-88399371D01*
X73126142Y-88272992D01*
X73286992Y-88112142D01*
X73413371Y-87923003D01*
X73500422Y-87712843D01*
X73544800Y-87489738D01*
X73544800Y-87330970D01*
X86156800Y-87330970D01*
X86156800Y-87421030D01*
X86174370Y-87509360D01*
X86208835Y-87592565D01*
X86233848Y-87630000D01*
X86208835Y-87667435D01*
X86174370Y-87750640D01*
X86156800Y-87838970D01*
X86156800Y-87929030D01*
X86174370Y-88017360D01*
X86208835Y-88100565D01*
X86258870Y-88175448D01*
X86322552Y-88239130D01*
X86397435Y-88289165D01*
X86480640Y-88323630D01*
X86568970Y-88341200D01*
X86659030Y-88341200D01*
X86747360Y-88323630D01*
X86830565Y-88289165D01*
X86868000Y-88264152D01*
X86905435Y-88289165D01*
X86988640Y-88323630D01*
X87076970Y-88341200D01*
X87167030Y-88341200D01*
X87255360Y-88323630D01*
X87338565Y-88289165D01*
X87413448Y-88239130D01*
X87477130Y-88175448D01*
X87527165Y-88100565D01*
X87561630Y-88017360D01*
X87579200Y-87929030D01*
X87579200Y-87838970D01*
X87561630Y-87750640D01*
X87527165Y-87667435D01*
X87502152Y-87630000D01*
X87527165Y-87592565D01*
X87561630Y-87509360D01*
X87579200Y-87421030D01*
X87579200Y-87330970D01*
X87561630Y-87242640D01*
X87527165Y-87159435D01*
X87477130Y-87084552D01*
X87413448Y-87020870D01*
X87338565Y-86970835D01*
X87255360Y-86936370D01*
X87167030Y-86918800D01*
X87076970Y-86918800D01*
X86988640Y-86936370D01*
X86905435Y-86970835D01*
X86868000Y-86995848D01*
X86830565Y-86970835D01*
X86747360Y-86936370D01*
X86659030Y-86918800D01*
X86568970Y-86918800D01*
X86480640Y-86936370D01*
X86397435Y-86970835D01*
X86322552Y-87020870D01*
X86258870Y-87084552D01*
X86208835Y-87159435D01*
X86174370Y-87242640D01*
X86156800Y-87330970D01*
X73544800Y-87330970D01*
X73544800Y-87262262D01*
X73500422Y-87039157D01*
X73413371Y-86828997D01*
X73286992Y-86639858D01*
X73126142Y-86479008D01*
X72937003Y-86352629D01*
X72726843Y-86265578D01*
X72503738Y-86221200D01*
X72276262Y-86221200D01*
X72053157Y-86265578D01*
X71842997Y-86352629D01*
X71653858Y-86479008D01*
X71493008Y-86639858D01*
X71449800Y-86704523D01*
X71449800Y-86060970D01*
X76949300Y-86060970D01*
X76949300Y-86151030D01*
X76966870Y-86239360D01*
X77001335Y-86322565D01*
X77051370Y-86397448D01*
X77115052Y-86461130D01*
X77189935Y-86511165D01*
X77273140Y-86545630D01*
X77361470Y-86563200D01*
X77451530Y-86563200D01*
X77539860Y-86545630D01*
X77623065Y-86511165D01*
X77692250Y-86464937D01*
X77761435Y-86511165D01*
X77844640Y-86545630D01*
X77932970Y-86563200D01*
X78023030Y-86563200D01*
X78111360Y-86545630D01*
X78194565Y-86511165D01*
X78269448Y-86461130D01*
X78288608Y-86441970D01*
X81457800Y-86441970D01*
X81457800Y-86532030D01*
X81475370Y-86620360D01*
X81509835Y-86703565D01*
X81559870Y-86778448D01*
X81623552Y-86842130D01*
X81698435Y-86892165D01*
X81781640Y-86926630D01*
X81869970Y-86944200D01*
X81960030Y-86944200D01*
X82048360Y-86926630D01*
X82131565Y-86892165D01*
X82206448Y-86842130D01*
X82232500Y-86816078D01*
X82258552Y-86842130D01*
X82333435Y-86892165D01*
X82416640Y-86926630D01*
X82504970Y-86944200D01*
X82595030Y-86944200D01*
X82683360Y-86926630D01*
X82766565Y-86892165D01*
X82841448Y-86842130D01*
X82867500Y-86816078D01*
X82893552Y-86842130D01*
X82968435Y-86892165D01*
X83051640Y-86926630D01*
X83139970Y-86944200D01*
X83230030Y-86944200D01*
X83318360Y-86926630D01*
X83401565Y-86892165D01*
X83476448Y-86842130D01*
X83540130Y-86778448D01*
X83590165Y-86703565D01*
X83624630Y-86620360D01*
X83642200Y-86532030D01*
X83642200Y-86441970D01*
X83624630Y-86353640D01*
X83608613Y-86314970D01*
X93903800Y-86314970D01*
X93903800Y-86405030D01*
X93921370Y-86493360D01*
X93955835Y-86576565D01*
X94005870Y-86651448D01*
X94069552Y-86715130D01*
X94144435Y-86765165D01*
X94227640Y-86799630D01*
X94315970Y-86817200D01*
X94406030Y-86817200D01*
X94494360Y-86799630D01*
X94577565Y-86765165D01*
X94652448Y-86715130D01*
X94716130Y-86651448D01*
X94766165Y-86576565D01*
X94800630Y-86493360D01*
X94818200Y-86405030D01*
X94818200Y-86314970D01*
X95046800Y-86314970D01*
X95046800Y-86405030D01*
X95064370Y-86493360D01*
X95098835Y-86576565D01*
X95148870Y-86651448D01*
X95212552Y-86715130D01*
X95287435Y-86765165D01*
X95370640Y-86799630D01*
X95458970Y-86817200D01*
X95549030Y-86817200D01*
X95637360Y-86799630D01*
X95720565Y-86765165D01*
X95795448Y-86715130D01*
X95859130Y-86651448D01*
X95909165Y-86576565D01*
X95943630Y-86493360D01*
X95961200Y-86405030D01*
X95961200Y-86314970D01*
X95943630Y-86226640D01*
X95909165Y-86143435D01*
X95859130Y-86068552D01*
X95795448Y-86004870D01*
X95720565Y-85954835D01*
X95637360Y-85920370D01*
X95549030Y-85902800D01*
X95458970Y-85902800D01*
X95370640Y-85920370D01*
X95287435Y-85954835D01*
X95212552Y-86004870D01*
X95148870Y-86068552D01*
X95098835Y-86143435D01*
X95064370Y-86226640D01*
X95046800Y-86314970D01*
X94818200Y-86314970D01*
X94800630Y-86226640D01*
X94766165Y-86143435D01*
X94716130Y-86068552D01*
X94652448Y-86004870D01*
X94577565Y-85954835D01*
X94494360Y-85920370D01*
X94406030Y-85902800D01*
X94315970Y-85902800D01*
X94227640Y-85920370D01*
X94144435Y-85954835D01*
X94069552Y-86004870D01*
X94005870Y-86068552D01*
X93955835Y-86143435D01*
X93921370Y-86226640D01*
X93903800Y-86314970D01*
X83608613Y-86314970D01*
X83590165Y-86270435D01*
X83540130Y-86195552D01*
X83476448Y-86131870D01*
X83401565Y-86081835D01*
X83318360Y-86047370D01*
X83230030Y-86029800D01*
X83139970Y-86029800D01*
X83051640Y-86047370D01*
X82968435Y-86081835D01*
X82893552Y-86131870D01*
X82867500Y-86157922D01*
X82841448Y-86131870D01*
X82766565Y-86081835D01*
X82683360Y-86047370D01*
X82595030Y-86029800D01*
X82504970Y-86029800D01*
X82416640Y-86047370D01*
X82333435Y-86081835D01*
X82258552Y-86131870D01*
X82232500Y-86157922D01*
X82206448Y-86131870D01*
X82131565Y-86081835D01*
X82048360Y-86047370D01*
X81960030Y-86029800D01*
X81869970Y-86029800D01*
X81781640Y-86047370D01*
X81698435Y-86081835D01*
X81623552Y-86131870D01*
X81559870Y-86195552D01*
X81509835Y-86270435D01*
X81475370Y-86353640D01*
X81457800Y-86441970D01*
X78288608Y-86441970D01*
X78333130Y-86397448D01*
X78383165Y-86322565D01*
X78417630Y-86239360D01*
X78435200Y-86151030D01*
X78435200Y-86060970D01*
X78417630Y-85972640D01*
X78383165Y-85889435D01*
X78333130Y-85814552D01*
X78269448Y-85750870D01*
X78194565Y-85700835D01*
X78111360Y-85666370D01*
X78023030Y-85648800D01*
X77932970Y-85648800D01*
X77844640Y-85666370D01*
X77761435Y-85700835D01*
X77692250Y-85747063D01*
X77623065Y-85700835D01*
X77539860Y-85666370D01*
X77451530Y-85648800D01*
X77361470Y-85648800D01*
X77273140Y-85666370D01*
X77189935Y-85700835D01*
X77115052Y-85750870D01*
X77051370Y-85814552D01*
X77001335Y-85889435D01*
X76966870Y-85972640D01*
X76949300Y-86060970D01*
X71449800Y-86060970D01*
X71449800Y-85171970D01*
X93903800Y-85171970D01*
X93903800Y-85262030D01*
X93921370Y-85350360D01*
X93955835Y-85433565D01*
X94005870Y-85508448D01*
X94069552Y-85572130D01*
X94144435Y-85622165D01*
X94227640Y-85656630D01*
X94315970Y-85674200D01*
X94406030Y-85674200D01*
X94494360Y-85656630D01*
X94577565Y-85622165D01*
X94652448Y-85572130D01*
X94716130Y-85508448D01*
X94766165Y-85433565D01*
X94800630Y-85350360D01*
X94818200Y-85262030D01*
X94818200Y-85171970D01*
X95046800Y-85171970D01*
X95046800Y-85262030D01*
X95064370Y-85350360D01*
X95098835Y-85433565D01*
X95148870Y-85508448D01*
X95212552Y-85572130D01*
X95287435Y-85622165D01*
X95370640Y-85656630D01*
X95458970Y-85674200D01*
X95549030Y-85674200D01*
X95637360Y-85656630D01*
X95720565Y-85622165D01*
X95795448Y-85572130D01*
X95859130Y-85508448D01*
X95909165Y-85433565D01*
X95943630Y-85350360D01*
X95961200Y-85262030D01*
X95961200Y-85171970D01*
X95943630Y-85083640D01*
X95909165Y-85000435D01*
X95859130Y-84925552D01*
X95795448Y-84861870D01*
X95720565Y-84811835D01*
X95637360Y-84777370D01*
X95549030Y-84759800D01*
X95458970Y-84759800D01*
X95370640Y-84777370D01*
X95287435Y-84811835D01*
X95212552Y-84861870D01*
X95148870Y-84925552D01*
X95098835Y-85000435D01*
X95064370Y-85083640D01*
X95046800Y-85171970D01*
X94818200Y-85171970D01*
X94800630Y-85083640D01*
X94766165Y-85000435D01*
X94716130Y-84925552D01*
X94652448Y-84861870D01*
X94577565Y-84811835D01*
X94494360Y-84777370D01*
X94406030Y-84759800D01*
X94315970Y-84759800D01*
X94227640Y-84777370D01*
X94144435Y-84811835D01*
X94069552Y-84861870D01*
X94005870Y-84925552D01*
X93955835Y-85000435D01*
X93921370Y-85083640D01*
X93903800Y-85171970D01*
X71449800Y-85171970D01*
X71449800Y-83870800D01*
X80002362Y-83870800D01*
X80035870Y-83920948D01*
X80099552Y-83984630D01*
X80174435Y-84034665D01*
X80257640Y-84069130D01*
X80345970Y-84086700D01*
X80436030Y-84086700D01*
X80524360Y-84069130D01*
X80607565Y-84034665D01*
X80645000Y-84009652D01*
X80682435Y-84034665D01*
X80765640Y-84069130D01*
X80853970Y-84086700D01*
X80944030Y-84086700D01*
X81032360Y-84069130D01*
X81115565Y-84034665D01*
X81190448Y-83984630D01*
X81254130Y-83920948D01*
X81287638Y-83870800D01*
X83312000Y-83870800D01*
X83321911Y-83869824D01*
X83331440Y-83866933D01*
X83340223Y-83862239D01*
X83347921Y-83855921D01*
X83354239Y-83848223D01*
X83358933Y-83839440D01*
X83361824Y-83829911D01*
X83362231Y-83825770D01*
X86004400Y-83825770D01*
X86004400Y-83915830D01*
X86021970Y-84004160D01*
X86056435Y-84087365D01*
X86106470Y-84162248D01*
X86170152Y-84225930D01*
X86245035Y-84275965D01*
X86328240Y-84310430D01*
X86416570Y-84328000D01*
X86506630Y-84328000D01*
X86594960Y-84310430D01*
X86678165Y-84275965D01*
X86753048Y-84225930D01*
X86816730Y-84162248D01*
X86842600Y-84123531D01*
X86868470Y-84162248D01*
X86932152Y-84225930D01*
X87007035Y-84275965D01*
X87090240Y-84310430D01*
X87178570Y-84328000D01*
X87268630Y-84328000D01*
X87356960Y-84310430D01*
X87440165Y-84275965D01*
X87515048Y-84225930D01*
X87578730Y-84162248D01*
X87628765Y-84087365D01*
X87630000Y-84084383D01*
X87631235Y-84087365D01*
X87681270Y-84162248D01*
X87744952Y-84225930D01*
X87819835Y-84275965D01*
X87903040Y-84310430D01*
X87991370Y-84328000D01*
X88081430Y-84328000D01*
X88169760Y-84310430D01*
X88252965Y-84275965D01*
X88327848Y-84225930D01*
X88391530Y-84162248D01*
X88441565Y-84087365D01*
X88476030Y-84004160D01*
X88493600Y-83915830D01*
X88493600Y-83825770D01*
X88476030Y-83737440D01*
X88441565Y-83654235D01*
X88391530Y-83579352D01*
X88327848Y-83515670D01*
X88289131Y-83489800D01*
X88327848Y-83463930D01*
X88391530Y-83400248D01*
X88441565Y-83325365D01*
X88476030Y-83242160D01*
X88493600Y-83153830D01*
X88493600Y-83063770D01*
X88476030Y-82975440D01*
X88441565Y-82892235D01*
X88391530Y-82817352D01*
X88327848Y-82753670D01*
X88327145Y-82753200D01*
X88327848Y-82752730D01*
X88391530Y-82689048D01*
X88441565Y-82614165D01*
X88476030Y-82530960D01*
X88493600Y-82442630D01*
X88493600Y-82352570D01*
X88476030Y-82264240D01*
X88441565Y-82181035D01*
X88391530Y-82106152D01*
X88327848Y-82042470D01*
X88252965Y-81992435D01*
X88169760Y-81957970D01*
X88081430Y-81940400D01*
X87991370Y-81940400D01*
X87903040Y-81957970D01*
X87819835Y-81992435D01*
X87744952Y-82042470D01*
X87681270Y-82106152D01*
X87631235Y-82181035D01*
X87596770Y-82264240D01*
X87579200Y-82352570D01*
X87579200Y-82442630D01*
X87596770Y-82530960D01*
X87631235Y-82614165D01*
X87681270Y-82689048D01*
X87744952Y-82752730D01*
X87745655Y-82753200D01*
X87744952Y-82753670D01*
X87681270Y-82817352D01*
X87631235Y-82892235D01*
X87596770Y-82975440D01*
X87579200Y-83063770D01*
X87579200Y-83153830D01*
X87596770Y-83242160D01*
X87631235Y-83325365D01*
X87681270Y-83400248D01*
X87744952Y-83463930D01*
X87783669Y-83489800D01*
X87744952Y-83515670D01*
X87681270Y-83579352D01*
X87631235Y-83654235D01*
X87630000Y-83657217D01*
X87628765Y-83654235D01*
X87578730Y-83579352D01*
X87515048Y-83515670D01*
X87440165Y-83465635D01*
X87356960Y-83431170D01*
X87268630Y-83413600D01*
X87178570Y-83413600D01*
X87090240Y-83431170D01*
X87007035Y-83465635D01*
X86932152Y-83515670D01*
X86868470Y-83579352D01*
X86842600Y-83618069D01*
X86816730Y-83579352D01*
X86753048Y-83515670D01*
X86678165Y-83465635D01*
X86594960Y-83431170D01*
X86506630Y-83413600D01*
X86416570Y-83413600D01*
X86328240Y-83431170D01*
X86245035Y-83465635D01*
X86170152Y-83515670D01*
X86106470Y-83579352D01*
X86056435Y-83654235D01*
X86021970Y-83737440D01*
X86004400Y-83825770D01*
X83362231Y-83825770D01*
X83362800Y-83820000D01*
X83362800Y-81838800D01*
X101905201Y-81838800D01*
X101905200Y-93511135D01*
G37*
X101905200Y-93511135D02*
X101795112Y-92957688D01*
X101530913Y-92319855D01*
X101147356Y-91745820D01*
X100659180Y-91257644D01*
X100085145Y-90874087D01*
X99447312Y-90609888D01*
X98770193Y-90475200D01*
X98079807Y-90475200D01*
X97402688Y-90609888D01*
X96764855Y-90874087D01*
X96190820Y-91257644D01*
X95702644Y-91745820D01*
X95319087Y-92319855D01*
X95054888Y-92957688D01*
X94920200Y-93634807D01*
X94920200Y-94325193D01*
X95054888Y-95002312D01*
X95319087Y-95640145D01*
X95702644Y-96214180D01*
X96190820Y-96702356D01*
X96764855Y-97085913D01*
X97402688Y-97350112D01*
X97956135Y-97460200D01*
X75398865Y-97460200D01*
X75952312Y-97350112D01*
X76590145Y-97085913D01*
X77164180Y-96702356D01*
X77652356Y-96214180D01*
X77693728Y-96152262D01*
X79210800Y-96152262D01*
X79210800Y-96379738D01*
X79255178Y-96602843D01*
X79342229Y-96813003D01*
X79468608Y-97002142D01*
X79629458Y-97162992D01*
X79818597Y-97289371D01*
X80028757Y-97376422D01*
X80251862Y-97420800D01*
X80479338Y-97420800D01*
X80702443Y-97376422D01*
X80912603Y-97289371D01*
X81101742Y-97162992D01*
X81262592Y-97002142D01*
X81388971Y-96813003D01*
X81476022Y-96602843D01*
X81520400Y-96379738D01*
X81520400Y-96152262D01*
X81750800Y-96152262D01*
X81750800Y-96379738D01*
X81795178Y-96602843D01*
X81882229Y-96813003D01*
X82008608Y-97002142D01*
X82169458Y-97162992D01*
X82358597Y-97289371D01*
X82568757Y-97376422D01*
X82791862Y-97420800D01*
X83019338Y-97420800D01*
X83242443Y-97376422D01*
X83452603Y-97289371D01*
X83641742Y-97162992D01*
X83802592Y-97002142D01*
X83928971Y-96813003D01*
X84016022Y-96602843D01*
X84060400Y-96379738D01*
X84060400Y-96152262D01*
X84290800Y-96152262D01*
X84290800Y-96379738D01*
X84335178Y-96602843D01*
X84422229Y-96813003D01*
X84548608Y-97002142D01*
X84709458Y-97162992D01*
X84898597Y-97289371D01*
X85108757Y-97376422D01*
X85331862Y-97420800D01*
X85559338Y-97420800D01*
X85782443Y-97376422D01*
X85992603Y-97289371D01*
X86181742Y-97162992D01*
X86342592Y-97002142D01*
X86468971Y-96813003D01*
X86556022Y-96602843D01*
X86600400Y-96379738D01*
X86600400Y-96152262D01*
X86830800Y-96152262D01*
X86830800Y-96379738D01*
X86875178Y-96602843D01*
X86962229Y-96813003D01*
X87088608Y-97002142D01*
X87249458Y-97162992D01*
X87438597Y-97289371D01*
X87648757Y-97376422D01*
X87871862Y-97420800D01*
X88099338Y-97420800D01*
X88322443Y-97376422D01*
X88532603Y-97289371D01*
X88721742Y-97162992D01*
X88882592Y-97002142D01*
X89008971Y-96813003D01*
X89096022Y-96602843D01*
X89140400Y-96379738D01*
X89140400Y-96152262D01*
X89370800Y-96152262D01*
X89370800Y-96379738D01*
X89415178Y-96602843D01*
X89502229Y-96813003D01*
X89628608Y-97002142D01*
X89789458Y-97162992D01*
X89978597Y-97289371D01*
X90188757Y-97376422D01*
X90411862Y-97420800D01*
X90639338Y-97420800D01*
X90862443Y-97376422D01*
X91072603Y-97289371D01*
X91261742Y-97162992D01*
X91422592Y-97002142D01*
X91548971Y-96813003D01*
X91636022Y-96602843D01*
X91680400Y-96379738D01*
X91680400Y-96152262D01*
X91910800Y-96152262D01*
X91910800Y-96379738D01*
X91955178Y-96602843D01*
X92042229Y-96813003D01*
X92168608Y-97002142D01*
X92329458Y-97162992D01*
X92518597Y-97289371D01*
X92728757Y-97376422D01*
X92951862Y-97420800D01*
X93179338Y-97420800D01*
X93402443Y-97376422D01*
X93612603Y-97289371D01*
X93801742Y-97162992D01*
X93962592Y-97002142D01*
X94088971Y-96813003D01*
X94176022Y-96602843D01*
X94220400Y-96379738D01*
X94220400Y-96152262D01*
X94176022Y-95929157D01*
X94088971Y-95718997D01*
X93962592Y-95529858D01*
X93801742Y-95369008D01*
X93612603Y-95242629D01*
X93402443Y-95155578D01*
X93179338Y-95111200D01*
X92951862Y-95111200D01*
X92728757Y-95155578D01*
X92518597Y-95242629D01*
X92329458Y-95369008D01*
X92168608Y-95529858D01*
X92042229Y-95718997D01*
X91955178Y-95929157D01*
X91910800Y-96152262D01*
X91680400Y-96152262D01*
X91636022Y-95929157D01*
X91548971Y-95718997D01*
X91422592Y-95529858D01*
X91261742Y-95369008D01*
X91072603Y-95242629D01*
X90862443Y-95155578D01*
X90639338Y-95111200D01*
X90411862Y-95111200D01*
X90188757Y-95155578D01*
X89978597Y-95242629D01*
X89789458Y-95369008D01*
X89628608Y-95529858D01*
X89502229Y-95718997D01*
X89415178Y-95929157D01*
X89370800Y-96152262D01*
X89140400Y-96152262D01*
X89096022Y-95929157D01*
X89008971Y-95718997D01*
X88882592Y-95529858D01*
X88721742Y-95369008D01*
X88532603Y-95242629D01*
X88322443Y-95155578D01*
X88099338Y-95111200D01*
X87871862Y-95111200D01*
X87648757Y-95155578D01*
X87438597Y-95242629D01*
X87249458Y-95369008D01*
X87088608Y-95529858D01*
X86962229Y-95718997D01*
X86875178Y-95929157D01*
X86830800Y-96152262D01*
X86600400Y-96152262D01*
X86556022Y-95929157D01*
X86468971Y-95718997D01*
X86342592Y-95529858D01*
X86181742Y-95369008D01*
X85992603Y-95242629D01*
X85782443Y-95155578D01*
X85559338Y-95111200D01*
X85331862Y-95111200D01*
X85108757Y-95155578D01*
X84898597Y-95242629D01*
X84709458Y-95369008D01*
X84548608Y-95529858D01*
X84422229Y-95718997D01*
X84335178Y-95929157D01*
X84290800Y-96152262D01*
X84060400Y-96152262D01*
X84016022Y-95929157D01*
X83928971Y-95718997D01*
X83802592Y-95529858D01*
X83641742Y-95369008D01*
X83452603Y-95242629D01*
X83242443Y-95155578D01*
X83019338Y-95111200D01*
X82791862Y-95111200D01*
X82568757Y-95155578D01*
X82358597Y-95242629D01*
X82169458Y-95369008D01*
X82008608Y-95529858D01*
X81882229Y-95718997D01*
X81795178Y-95929157D01*
X81750800Y-96152262D01*
X81520400Y-96152262D01*
X81476022Y-95929157D01*
X81388971Y-95718997D01*
X81262592Y-95529858D01*
X81101742Y-95369008D01*
X80912603Y-95242629D01*
X80702443Y-95155578D01*
X80479338Y-95111200D01*
X80251862Y-95111200D01*
X80028757Y-95155578D01*
X79818597Y-95242629D01*
X79629458Y-95369008D01*
X79468608Y-95529858D01*
X79342229Y-95718997D01*
X79255178Y-95929157D01*
X79210800Y-96152262D01*
X77693728Y-96152262D01*
X78035913Y-95640145D01*
X78300112Y-95002312D01*
X78434800Y-94325193D01*
X78434800Y-93634807D01*
X78300112Y-92957688D01*
X78266276Y-92876000D01*
X79209326Y-92876000D01*
X79209326Y-94576000D01*
X79215211Y-94635751D01*
X79232640Y-94693206D01*
X79260942Y-94746157D01*
X79299032Y-94792568D01*
X79345443Y-94830658D01*
X79398394Y-94858960D01*
X79455849Y-94876389D01*
X79515600Y-94882274D01*
X81215600Y-94882274D01*
X81275351Y-94876389D01*
X81332806Y-94858960D01*
X81385757Y-94830658D01*
X81432168Y-94792568D01*
X81470258Y-94746157D01*
X81498560Y-94693206D01*
X81515989Y-94635751D01*
X81521874Y-94576000D01*
X81521874Y-93612262D01*
X81750800Y-93612262D01*
X81750800Y-93839738D01*
X81795178Y-94062843D01*
X81882229Y-94273003D01*
X82008608Y-94462142D01*
X82169458Y-94622992D01*
X82358597Y-94749371D01*
X82568757Y-94836422D01*
X82791862Y-94880800D01*
X83019338Y-94880800D01*
X83242443Y-94836422D01*
X83452603Y-94749371D01*
X83641742Y-94622992D01*
X83802592Y-94462142D01*
X83928971Y-94273003D01*
X84016022Y-94062843D01*
X84060400Y-93839738D01*
X84060400Y-93612262D01*
X84290800Y-93612262D01*
X84290800Y-93839738D01*
X84335178Y-94062843D01*
X84422229Y-94273003D01*
X84548608Y-94462142D01*
X84709458Y-94622992D01*
X84898597Y-94749371D01*
X85108757Y-94836422D01*
X85331862Y-94880800D01*
X85559338Y-94880800D01*
X85782443Y-94836422D01*
X85992603Y-94749371D01*
X86181742Y-94622992D01*
X86342592Y-94462142D01*
X86468971Y-94273003D01*
X86556022Y-94062843D01*
X86600400Y-93839738D01*
X86600400Y-93612262D01*
X86830800Y-93612262D01*
X86830800Y-93839738D01*
X86875178Y-94062843D01*
X86962229Y-94273003D01*
X87088608Y-94462142D01*
X87249458Y-94622992D01*
X87438597Y-94749371D01*
X87648757Y-94836422D01*
X87871862Y-94880800D01*
X88099338Y-94880800D01*
X88322443Y-94836422D01*
X88532603Y-94749371D01*
X88721742Y-94622992D01*
X88882592Y-94462142D01*
X89008971Y-94273003D01*
X89096022Y-94062843D01*
X89140400Y-93839738D01*
X89140400Y-93612262D01*
X89370800Y-93612262D01*
X89370800Y-93839738D01*
X89415178Y-94062843D01*
X89502229Y-94273003D01*
X89628608Y-94462142D01*
X89789458Y-94622992D01*
X89978597Y-94749371D01*
X90188757Y-94836422D01*
X90411862Y-94880800D01*
X90639338Y-94880800D01*
X90862443Y-94836422D01*
X91072603Y-94749371D01*
X91261742Y-94622992D01*
X91422592Y-94462142D01*
X91548971Y-94273003D01*
X91636022Y-94062843D01*
X91680400Y-93839738D01*
X91680400Y-93612262D01*
X91910800Y-93612262D01*
X91910800Y-93839738D01*
X91955178Y-94062843D01*
X92042229Y-94273003D01*
X92168608Y-94462142D01*
X92329458Y-94622992D01*
X92518597Y-94749371D01*
X92728757Y-94836422D01*
X92951862Y-94880800D01*
X93179338Y-94880800D01*
X93402443Y-94836422D01*
X93612603Y-94749371D01*
X93801742Y-94622992D01*
X93962592Y-94462142D01*
X94088971Y-94273003D01*
X94176022Y-94062843D01*
X94220400Y-93839738D01*
X94220400Y-93612262D01*
X94176022Y-93389157D01*
X94088971Y-93178997D01*
X93962592Y-92989858D01*
X93801742Y-92829008D01*
X93612603Y-92702629D01*
X93402443Y-92615578D01*
X93179338Y-92571200D01*
X92951862Y-92571200D01*
X92728757Y-92615578D01*
X92518597Y-92702629D01*
X92329458Y-92829008D01*
X92168608Y-92989858D01*
X92042229Y-93178997D01*
X91955178Y-93389157D01*
X91910800Y-93612262D01*
X91680400Y-93612262D01*
X91636022Y-93389157D01*
X91548971Y-93178997D01*
X91422592Y-92989858D01*
X91261742Y-92829008D01*
X91072603Y-92702629D01*
X90862443Y-92615578D01*
X90639338Y-92571200D01*
X90411862Y-92571200D01*
X90188757Y-92615578D01*
X89978597Y-92702629D01*
X89789458Y-92829008D01*
X89628608Y-92989858D01*
X89502229Y-93178997D01*
X89415178Y-93389157D01*
X89370800Y-93612262D01*
X89140400Y-93612262D01*
X89096022Y-93389157D01*
X89008971Y-93178997D01*
X88882592Y-92989858D01*
X88721742Y-92829008D01*
X88532603Y-92702629D01*
X88322443Y-92615578D01*
X88099338Y-92571200D01*
X87871862Y-92571200D01*
X87648757Y-92615578D01*
X87438597Y-92702629D01*
X87249458Y-92829008D01*
X87088608Y-92989858D01*
X86962229Y-93178997D01*
X86875178Y-93389157D01*
X86830800Y-93612262D01*
X86600400Y-93612262D01*
X86556022Y-93389157D01*
X86468971Y-93178997D01*
X86342592Y-92989858D01*
X86181742Y-92829008D01*
X85992603Y-92702629D01*
X85782443Y-92615578D01*
X85559338Y-92571200D01*
X85331862Y-92571200D01*
X85108757Y-92615578D01*
X84898597Y-92702629D01*
X84709458Y-92829008D01*
X84548608Y-92989858D01*
X84422229Y-93178997D01*
X84335178Y-93389157D01*
X84290800Y-93612262D01*
X84060400Y-93612262D01*
X84016022Y-93389157D01*
X83928971Y-93178997D01*
X83802592Y-92989858D01*
X83641742Y-92829008D01*
X83452603Y-92702629D01*
X83242443Y-92615578D01*
X83019338Y-92571200D01*
X82791862Y-92571200D01*
X82568757Y-92615578D01*
X82358597Y-92702629D01*
X82169458Y-92829008D01*
X82008608Y-92989858D01*
X81882229Y-93178997D01*
X81795178Y-93389157D01*
X81750800Y-93612262D01*
X81521874Y-93612262D01*
X81521874Y-92876000D01*
X81515989Y-92816249D01*
X81498560Y-92758794D01*
X81470258Y-92705843D01*
X81432168Y-92659432D01*
X81385757Y-92621342D01*
X81332806Y-92593040D01*
X81275351Y-92575611D01*
X81215600Y-92569726D01*
X79515600Y-92569726D01*
X79455849Y-92575611D01*
X79398394Y-92593040D01*
X79345443Y-92621342D01*
X79299032Y-92659432D01*
X79260942Y-92705843D01*
X79232640Y-92758794D01*
X79215211Y-92816249D01*
X79209326Y-92876000D01*
X78266276Y-92876000D01*
X78035913Y-92319855D01*
X77652356Y-91745820D01*
X77164180Y-91257644D01*
X76590145Y-90874087D01*
X75952312Y-90609888D01*
X75275193Y-90475200D01*
X74584807Y-90475200D01*
X73907688Y-90609888D01*
X73269855Y-90874087D01*
X72695820Y-91257644D01*
X72207644Y-91745820D01*
X71824087Y-92319855D01*
X71559888Y-92957688D01*
X71449800Y-93511135D01*
X71449800Y-88047477D01*
X71493008Y-88112142D01*
X71653858Y-88272992D01*
X71842997Y-88399371D01*
X72053157Y-88486422D01*
X72276262Y-88530800D01*
X72503738Y-88530800D01*
X72726843Y-88486422D01*
X72937003Y-88399371D01*
X73126142Y-88272992D01*
X73286992Y-88112142D01*
X73413371Y-87923003D01*
X73500422Y-87712843D01*
X73544800Y-87489738D01*
X73544800Y-87330970D01*
X86156800Y-87330970D01*
X86156800Y-87421030D01*
X86174370Y-87509360D01*
X86208835Y-87592565D01*
X86233848Y-87630000D01*
X86208835Y-87667435D01*
X86174370Y-87750640D01*
X86156800Y-87838970D01*
X86156800Y-87929030D01*
X86174370Y-88017360D01*
X86208835Y-88100565D01*
X86258870Y-88175448D01*
X86322552Y-88239130D01*
X86397435Y-88289165D01*
X86480640Y-88323630D01*
X86568970Y-88341200D01*
X86659030Y-88341200D01*
X86747360Y-88323630D01*
X86830565Y-88289165D01*
X86868000Y-88264152D01*
X86905435Y-88289165D01*
X86988640Y-88323630D01*
X87076970Y-88341200D01*
X87167030Y-88341200D01*
X87255360Y-88323630D01*
X87338565Y-88289165D01*
X87413448Y-88239130D01*
X87477130Y-88175448D01*
X87527165Y-88100565D01*
X87561630Y-88017360D01*
X87579200Y-87929030D01*
X87579200Y-87838970D01*
X87561630Y-87750640D01*
X87527165Y-87667435D01*
X87502152Y-87630000D01*
X87527165Y-87592565D01*
X87561630Y-87509360D01*
X87579200Y-87421030D01*
X87579200Y-87330970D01*
X87561630Y-87242640D01*
X87527165Y-87159435D01*
X87477130Y-87084552D01*
X87413448Y-87020870D01*
X87338565Y-86970835D01*
X87255360Y-86936370D01*
X87167030Y-86918800D01*
X87076970Y-86918800D01*
X86988640Y-86936370D01*
X86905435Y-86970835D01*
X86868000Y-86995848D01*
X86830565Y-86970835D01*
X86747360Y-86936370D01*
X86659030Y-86918800D01*
X86568970Y-86918800D01*
X86480640Y-86936370D01*
X86397435Y-86970835D01*
X86322552Y-87020870D01*
X86258870Y-87084552D01*
X86208835Y-87159435D01*
X86174370Y-87242640D01*
X86156800Y-87330970D01*
X73544800Y-87330970D01*
X73544800Y-87262262D01*
X73500422Y-87039157D01*
X73413371Y-86828997D01*
X73286992Y-86639858D01*
X73126142Y-86479008D01*
X72937003Y-86352629D01*
X72726843Y-86265578D01*
X72503738Y-86221200D01*
X72276262Y-86221200D01*
X72053157Y-86265578D01*
X71842997Y-86352629D01*
X71653858Y-86479008D01*
X71493008Y-86639858D01*
X71449800Y-86704523D01*
X71449800Y-86060970D01*
X76949300Y-86060970D01*
X76949300Y-86151030D01*
X76966870Y-86239360D01*
X77001335Y-86322565D01*
X77051370Y-86397448D01*
X77115052Y-86461130D01*
X77189935Y-86511165D01*
X77273140Y-86545630D01*
X77361470Y-86563200D01*
X77451530Y-86563200D01*
X77539860Y-86545630D01*
X77623065Y-86511165D01*
X77692250Y-86464937D01*
X77761435Y-86511165D01*
X77844640Y-86545630D01*
X77932970Y-86563200D01*
X78023030Y-86563200D01*
X78111360Y-86545630D01*
X78194565Y-86511165D01*
X78269448Y-86461130D01*
X78288608Y-86441970D01*
X81457800Y-86441970D01*
X81457800Y-86532030D01*
X81475370Y-86620360D01*
X81509835Y-86703565D01*
X81559870Y-86778448D01*
X81623552Y-86842130D01*
X81698435Y-86892165D01*
X81781640Y-86926630D01*
X81869970Y-86944200D01*
X81960030Y-86944200D01*
X82048360Y-86926630D01*
X82131565Y-86892165D01*
X82206448Y-86842130D01*
X82232500Y-86816078D01*
X82258552Y-86842130D01*
X82333435Y-86892165D01*
X82416640Y-86926630D01*
X82504970Y-86944200D01*
X82595030Y-86944200D01*
X82683360Y-86926630D01*
X82766565Y-86892165D01*
X82841448Y-86842130D01*
X82867500Y-86816078D01*
X82893552Y-86842130D01*
X82968435Y-86892165D01*
X83051640Y-86926630D01*
X83139970Y-86944200D01*
X83230030Y-86944200D01*
X83318360Y-86926630D01*
X83401565Y-86892165D01*
X83476448Y-86842130D01*
X83540130Y-86778448D01*
X83590165Y-86703565D01*
X83624630Y-86620360D01*
X83642200Y-86532030D01*
X83642200Y-86441970D01*
X83624630Y-86353640D01*
X83608613Y-86314970D01*
X93903800Y-86314970D01*
X93903800Y-86405030D01*
X93921370Y-86493360D01*
X93955835Y-86576565D01*
X94005870Y-86651448D01*
X94069552Y-86715130D01*
X94144435Y-86765165D01*
X94227640Y-86799630D01*
X94315970Y-86817200D01*
X94406030Y-86817200D01*
X94494360Y-86799630D01*
X94577565Y-86765165D01*
X94652448Y-86715130D01*
X94716130Y-86651448D01*
X94766165Y-86576565D01*
X94800630Y-86493360D01*
X94818200Y-86405030D01*
X94818200Y-86314970D01*
X95046800Y-86314970D01*
X95046800Y-86405030D01*
X95064370Y-86493360D01*
X95098835Y-86576565D01*
X95148870Y-86651448D01*
X95212552Y-86715130D01*
X95287435Y-86765165D01*
X95370640Y-86799630D01*
X95458970Y-86817200D01*
X95549030Y-86817200D01*
X95637360Y-86799630D01*
X95720565Y-86765165D01*
X95795448Y-86715130D01*
X95859130Y-86651448D01*
X95909165Y-86576565D01*
X95943630Y-86493360D01*
X95961200Y-86405030D01*
X95961200Y-86314970D01*
X95943630Y-86226640D01*
X95909165Y-86143435D01*
X95859130Y-86068552D01*
X95795448Y-86004870D01*
X95720565Y-85954835D01*
X95637360Y-85920370D01*
X95549030Y-85902800D01*
X95458970Y-85902800D01*
X95370640Y-85920370D01*
X95287435Y-85954835D01*
X95212552Y-86004870D01*
X95148870Y-86068552D01*
X95098835Y-86143435D01*
X95064370Y-86226640D01*
X95046800Y-86314970D01*
X94818200Y-86314970D01*
X94800630Y-86226640D01*
X94766165Y-86143435D01*
X94716130Y-86068552D01*
X94652448Y-86004870D01*
X94577565Y-85954835D01*
X94494360Y-85920370D01*
X94406030Y-85902800D01*
X94315970Y-85902800D01*
X94227640Y-85920370D01*
X94144435Y-85954835D01*
X94069552Y-86004870D01*
X94005870Y-86068552D01*
X93955835Y-86143435D01*
X93921370Y-86226640D01*
X93903800Y-86314970D01*
X83608613Y-86314970D01*
X83590165Y-86270435D01*
X83540130Y-86195552D01*
X83476448Y-86131870D01*
X83401565Y-86081835D01*
X83318360Y-86047370D01*
X83230030Y-86029800D01*
X83139970Y-86029800D01*
X83051640Y-86047370D01*
X82968435Y-86081835D01*
X82893552Y-86131870D01*
X82867500Y-86157922D01*
X82841448Y-86131870D01*
X82766565Y-86081835D01*
X82683360Y-86047370D01*
X82595030Y-86029800D01*
X82504970Y-86029800D01*
X82416640Y-86047370D01*
X82333435Y-86081835D01*
X82258552Y-86131870D01*
X82232500Y-86157922D01*
X82206448Y-86131870D01*
X82131565Y-86081835D01*
X82048360Y-86047370D01*
X81960030Y-86029800D01*
X81869970Y-86029800D01*
X81781640Y-86047370D01*
X81698435Y-86081835D01*
X81623552Y-86131870D01*
X81559870Y-86195552D01*
X81509835Y-86270435D01*
X81475370Y-86353640D01*
X81457800Y-86441970D01*
X78288608Y-86441970D01*
X78333130Y-86397448D01*
X78383165Y-86322565D01*
X78417630Y-86239360D01*
X78435200Y-86151030D01*
X78435200Y-86060970D01*
X78417630Y-85972640D01*
X78383165Y-85889435D01*
X78333130Y-85814552D01*
X78269448Y-85750870D01*
X78194565Y-85700835D01*
X78111360Y-85666370D01*
X78023030Y-85648800D01*
X77932970Y-85648800D01*
X77844640Y-85666370D01*
X77761435Y-85700835D01*
X77692250Y-85747063D01*
X77623065Y-85700835D01*
X77539860Y-85666370D01*
X77451530Y-85648800D01*
X77361470Y-85648800D01*
X77273140Y-85666370D01*
X77189935Y-85700835D01*
X77115052Y-85750870D01*
X77051370Y-85814552D01*
X77001335Y-85889435D01*
X76966870Y-85972640D01*
X76949300Y-86060970D01*
X71449800Y-86060970D01*
X71449800Y-85171970D01*
X93903800Y-85171970D01*
X93903800Y-85262030D01*
X93921370Y-85350360D01*
X93955835Y-85433565D01*
X94005870Y-85508448D01*
X94069552Y-85572130D01*
X94144435Y-85622165D01*
X94227640Y-85656630D01*
X94315970Y-85674200D01*
X94406030Y-85674200D01*
X94494360Y-85656630D01*
X94577565Y-85622165D01*
X94652448Y-85572130D01*
X94716130Y-85508448D01*
X94766165Y-85433565D01*
X94800630Y-85350360D01*
X94818200Y-85262030D01*
X94818200Y-85171970D01*
X95046800Y-85171970D01*
X95046800Y-85262030D01*
X95064370Y-85350360D01*
X95098835Y-85433565D01*
X95148870Y-85508448D01*
X95212552Y-85572130D01*
X95287435Y-85622165D01*
X95370640Y-85656630D01*
X95458970Y-85674200D01*
X95549030Y-85674200D01*
X95637360Y-85656630D01*
X95720565Y-85622165D01*
X95795448Y-85572130D01*
X95859130Y-85508448D01*
X95909165Y-85433565D01*
X95943630Y-85350360D01*
X95961200Y-85262030D01*
X95961200Y-85171970D01*
X95943630Y-85083640D01*
X95909165Y-85000435D01*
X95859130Y-84925552D01*
X95795448Y-84861870D01*
X95720565Y-84811835D01*
X95637360Y-84777370D01*
X95549030Y-84759800D01*
X95458970Y-84759800D01*
X95370640Y-84777370D01*
X95287435Y-84811835D01*
X95212552Y-84861870D01*
X95148870Y-84925552D01*
X95098835Y-85000435D01*
X95064370Y-85083640D01*
X95046800Y-85171970D01*
X94818200Y-85171970D01*
X94800630Y-85083640D01*
X94766165Y-85000435D01*
X94716130Y-84925552D01*
X94652448Y-84861870D01*
X94577565Y-84811835D01*
X94494360Y-84777370D01*
X94406030Y-84759800D01*
X94315970Y-84759800D01*
X94227640Y-84777370D01*
X94144435Y-84811835D01*
X94069552Y-84861870D01*
X94005870Y-84925552D01*
X93955835Y-85000435D01*
X93921370Y-85083640D01*
X93903800Y-85171970D01*
X71449800Y-85171970D01*
X71449800Y-83870800D01*
X80002362Y-83870800D01*
X80035870Y-83920948D01*
X80099552Y-83984630D01*
X80174435Y-84034665D01*
X80257640Y-84069130D01*
X80345970Y-84086700D01*
X80436030Y-84086700D01*
X80524360Y-84069130D01*
X80607565Y-84034665D01*
X80645000Y-84009652D01*
X80682435Y-84034665D01*
X80765640Y-84069130D01*
X80853970Y-84086700D01*
X80944030Y-84086700D01*
X81032360Y-84069130D01*
X81115565Y-84034665D01*
X81190448Y-83984630D01*
X81254130Y-83920948D01*
X81287638Y-83870800D01*
X83312000Y-83870800D01*
X83321911Y-83869824D01*
X83331440Y-83866933D01*
X83340223Y-83862239D01*
X83347921Y-83855921D01*
X83354239Y-83848223D01*
X83358933Y-83839440D01*
X83361824Y-83829911D01*
X83362231Y-83825770D01*
X86004400Y-83825770D01*
X86004400Y-83915830D01*
X86021970Y-84004160D01*
X86056435Y-84087365D01*
X86106470Y-84162248D01*
X86170152Y-84225930D01*
X86245035Y-84275965D01*
X86328240Y-84310430D01*
X86416570Y-84328000D01*
X86506630Y-84328000D01*
X86594960Y-84310430D01*
X86678165Y-84275965D01*
X86753048Y-84225930D01*
X86816730Y-84162248D01*
X86842600Y-84123531D01*
X86868470Y-84162248D01*
X86932152Y-84225930D01*
X87007035Y-84275965D01*
X87090240Y-84310430D01*
X87178570Y-84328000D01*
X87268630Y-84328000D01*
X87356960Y-84310430D01*
X87440165Y-84275965D01*
X87515048Y-84225930D01*
X87578730Y-84162248D01*
X87628765Y-84087365D01*
X87630000Y-84084383D01*
X87631235Y-84087365D01*
X87681270Y-84162248D01*
X87744952Y-84225930D01*
X87819835Y-84275965D01*
X87903040Y-84310430D01*
X87991370Y-84328000D01*
X88081430Y-84328000D01*
X88169760Y-84310430D01*
X88252965Y-84275965D01*
X88327848Y-84225930D01*
X88391530Y-84162248D01*
X88441565Y-84087365D01*
X88476030Y-84004160D01*
X88493600Y-83915830D01*
X88493600Y-83825770D01*
X88476030Y-83737440D01*
X88441565Y-83654235D01*
X88391530Y-83579352D01*
X88327848Y-83515670D01*
X88289131Y-83489800D01*
X88327848Y-83463930D01*
X88391530Y-83400248D01*
X88441565Y-83325365D01*
X88476030Y-83242160D01*
X88493600Y-83153830D01*
X88493600Y-83063770D01*
X88476030Y-82975440D01*
X88441565Y-82892235D01*
X88391530Y-82817352D01*
X88327848Y-82753670D01*
X88327145Y-82753200D01*
X88327848Y-82752730D01*
X88391530Y-82689048D01*
X88441565Y-82614165D01*
X88476030Y-82530960D01*
X88493600Y-82442630D01*
X88493600Y-82352570D01*
X88476030Y-82264240D01*
X88441565Y-82181035D01*
X88391530Y-82106152D01*
X88327848Y-82042470D01*
X88252965Y-81992435D01*
X88169760Y-81957970D01*
X88081430Y-81940400D01*
X87991370Y-81940400D01*
X87903040Y-81957970D01*
X87819835Y-81992435D01*
X87744952Y-82042470D01*
X87681270Y-82106152D01*
X87631235Y-82181035D01*
X87596770Y-82264240D01*
X87579200Y-82352570D01*
X87579200Y-82442630D01*
X87596770Y-82530960D01*
X87631235Y-82614165D01*
X87681270Y-82689048D01*
X87744952Y-82752730D01*
X87745655Y-82753200D01*
X87744952Y-82753670D01*
X87681270Y-82817352D01*
X87631235Y-82892235D01*
X87596770Y-82975440D01*
X87579200Y-83063770D01*
X87579200Y-83153830D01*
X87596770Y-83242160D01*
X87631235Y-83325365D01*
X87681270Y-83400248D01*
X87744952Y-83463930D01*
X87783669Y-83489800D01*
X87744952Y-83515670D01*
X87681270Y-83579352D01*
X87631235Y-83654235D01*
X87630000Y-83657217D01*
X87628765Y-83654235D01*
X87578730Y-83579352D01*
X87515048Y-83515670D01*
X87440165Y-83465635D01*
X87356960Y-83431170D01*
X87268630Y-83413600D01*
X87178570Y-83413600D01*
X87090240Y-83431170D01*
X87007035Y-83465635D01*
X86932152Y-83515670D01*
X86868470Y-83579352D01*
X86842600Y-83618069D01*
X86816730Y-83579352D01*
X86753048Y-83515670D01*
X86678165Y-83465635D01*
X86594960Y-83431170D01*
X86506630Y-83413600D01*
X86416570Y-83413600D01*
X86328240Y-83431170D01*
X86245035Y-83465635D01*
X86170152Y-83515670D01*
X86106470Y-83579352D01*
X86056435Y-83654235D01*
X86021970Y-83737440D01*
X86004400Y-83825770D01*
X83362231Y-83825770D01*
X83362800Y-83820000D01*
X83362800Y-81838800D01*
X101905201Y-81838800D01*
X101905200Y-93511135D01*
%TO.N,AVDD*%
G36*
X97402688Y-70289888D02*
G01*
X96764855Y-70554087D01*
X96190820Y-70937644D01*
X95702644Y-71425820D01*
X95319087Y-71999855D01*
X95054888Y-72637688D01*
X94920200Y-73314807D01*
X94920200Y-74005193D01*
X95054888Y-74682312D01*
X95319087Y-75320145D01*
X95702644Y-75894180D01*
X96190820Y-76382356D01*
X96764855Y-76765913D01*
X97402688Y-77030112D01*
X98079807Y-77164800D01*
X98770193Y-77164800D01*
X99447312Y-77030112D01*
X100085145Y-76765913D01*
X100659180Y-76382356D01*
X101147356Y-75894180D01*
X101530913Y-75320145D01*
X101795112Y-74682312D01*
X101905201Y-74128860D01*
X101905201Y-81483200D01*
X83058000Y-81483200D01*
X83048089Y-81484176D01*
X83038560Y-81487067D01*
X83029777Y-81491761D01*
X83022079Y-81498079D01*
X83015761Y-81505777D01*
X83011067Y-81514560D01*
X83008176Y-81524089D01*
X83007200Y-81534000D01*
X83007200Y-83515200D01*
X81342421Y-83515200D01*
X81338630Y-83496140D01*
X81304165Y-83412935D01*
X81254130Y-83338052D01*
X81190448Y-83274370D01*
X81115565Y-83224335D01*
X81032360Y-83189870D01*
X80944030Y-83172300D01*
X80853970Y-83172300D01*
X80765640Y-83189870D01*
X80682435Y-83224335D01*
X80645000Y-83249348D01*
X80607565Y-83224335D01*
X80524360Y-83189870D01*
X80436030Y-83172300D01*
X80345970Y-83172300D01*
X80257640Y-83189870D01*
X80174435Y-83224335D01*
X80099552Y-83274370D01*
X80035870Y-83338052D01*
X79985835Y-83412935D01*
X79951370Y-83496140D01*
X79947579Y-83515200D01*
X71449800Y-83515200D01*
X71449800Y-82967477D01*
X71493008Y-83032142D01*
X71653858Y-83192992D01*
X71842997Y-83319371D01*
X72053157Y-83406422D01*
X72276262Y-83450800D01*
X72503738Y-83450800D01*
X72726843Y-83406422D01*
X72937003Y-83319371D01*
X73126142Y-83192992D01*
X73286992Y-83032142D01*
X73413371Y-82843003D01*
X73500422Y-82632843D01*
X73500595Y-82631970D01*
X77266800Y-82631970D01*
X77266800Y-82722030D01*
X77284370Y-82810360D01*
X77318835Y-82893565D01*
X77368870Y-82968448D01*
X77432552Y-83032130D01*
X77507435Y-83082165D01*
X77590640Y-83116630D01*
X77678970Y-83134200D01*
X77769030Y-83134200D01*
X77857360Y-83116630D01*
X77940565Y-83082165D01*
X78015448Y-83032130D01*
X78079130Y-82968448D01*
X78129165Y-82893565D01*
X78163630Y-82810360D01*
X78181200Y-82722030D01*
X78181200Y-82631970D01*
X78163630Y-82543640D01*
X78129165Y-82460435D01*
X78079130Y-82385552D01*
X78015448Y-82321870D01*
X77940565Y-82271835D01*
X77857360Y-82237370D01*
X77769030Y-82219800D01*
X77678970Y-82219800D01*
X77590640Y-82237370D01*
X77507435Y-82271835D01*
X77432552Y-82321870D01*
X77368870Y-82385552D01*
X77318835Y-82460435D01*
X77284370Y-82543640D01*
X77266800Y-82631970D01*
X73500595Y-82631970D01*
X73544800Y-82409738D01*
X73544800Y-82182262D01*
X73500422Y-81959157D01*
X73413371Y-81748997D01*
X73286992Y-81559858D01*
X73126142Y-81399008D01*
X72937003Y-81272629D01*
X72726843Y-81185578D01*
X72503738Y-81141200D01*
X72276262Y-81141200D01*
X72053157Y-81185578D01*
X71842997Y-81272629D01*
X71653858Y-81399008D01*
X71493008Y-81559858D01*
X71449800Y-81624523D01*
X71449800Y-79456970D01*
X78536800Y-79456970D01*
X78536800Y-79547030D01*
X78554370Y-79635360D01*
X78588835Y-79718565D01*
X78638870Y-79793448D01*
X78702552Y-79857130D01*
X78777435Y-79907165D01*
X78860640Y-79941630D01*
X78948970Y-79959200D01*
X79039030Y-79959200D01*
X79127360Y-79941630D01*
X79210565Y-79907165D01*
X79248000Y-79882152D01*
X79285435Y-79907165D01*
X79368640Y-79941630D01*
X79456970Y-79959200D01*
X79547030Y-79959200D01*
X79635360Y-79941630D01*
X79718565Y-79907165D01*
X79756000Y-79882152D01*
X79793435Y-79907165D01*
X79876640Y-79941630D01*
X79964970Y-79959200D01*
X80055030Y-79959200D01*
X80143360Y-79941630D01*
X80226565Y-79907165D01*
X80301448Y-79857130D01*
X80365130Y-79793448D01*
X80415165Y-79718565D01*
X80449630Y-79635360D01*
X80464904Y-79558570D01*
X86207600Y-79558570D01*
X86207600Y-79648630D01*
X86225170Y-79736960D01*
X86259635Y-79820165D01*
X86309670Y-79895048D01*
X86373352Y-79958730D01*
X86448235Y-80008765D01*
X86531440Y-80043230D01*
X86619770Y-80060800D01*
X86709830Y-80060800D01*
X86798160Y-80043230D01*
X86881365Y-80008765D01*
X86956248Y-79958730D01*
X86995000Y-79919978D01*
X87033752Y-79958730D01*
X87108635Y-80008765D01*
X87191840Y-80043230D01*
X87280170Y-80060800D01*
X87370230Y-80060800D01*
X87458560Y-80043230D01*
X87541765Y-80008765D01*
X87616648Y-79958730D01*
X87680330Y-79895048D01*
X87680800Y-79894345D01*
X87681270Y-79895048D01*
X87720022Y-79933800D01*
X87681270Y-79972552D01*
X87631235Y-80047435D01*
X87596770Y-80130640D01*
X87579200Y-80218970D01*
X87579200Y-80309030D01*
X87596770Y-80397360D01*
X87631235Y-80480565D01*
X87681270Y-80555448D01*
X87744952Y-80619130D01*
X87745655Y-80619600D01*
X87744952Y-80620070D01*
X87681270Y-80683752D01*
X87631235Y-80758635D01*
X87596770Y-80841840D01*
X87579200Y-80930170D01*
X87579200Y-81020230D01*
X87596770Y-81108560D01*
X87631235Y-81191765D01*
X87681270Y-81266648D01*
X87744952Y-81330330D01*
X87819835Y-81380365D01*
X87903040Y-81414830D01*
X87991370Y-81432400D01*
X88081430Y-81432400D01*
X88169760Y-81414830D01*
X88252965Y-81380365D01*
X88327848Y-81330330D01*
X88391530Y-81266648D01*
X88441565Y-81191765D01*
X88476030Y-81108560D01*
X88493600Y-81020230D01*
X88493600Y-80930170D01*
X88476030Y-80841840D01*
X88441565Y-80758635D01*
X88391530Y-80683752D01*
X88327848Y-80620070D01*
X88327145Y-80619600D01*
X88327848Y-80619130D01*
X88391530Y-80555448D01*
X88441565Y-80480565D01*
X88476030Y-80397360D01*
X88493600Y-80309030D01*
X88493600Y-80218970D01*
X88476030Y-80130640D01*
X88441565Y-80047435D01*
X88391530Y-79972552D01*
X88352778Y-79933800D01*
X88391530Y-79895048D01*
X88441565Y-79820165D01*
X88476030Y-79736960D01*
X88493600Y-79648630D01*
X88493600Y-79558570D01*
X88476030Y-79470240D01*
X88441565Y-79387035D01*
X88391530Y-79312152D01*
X88327848Y-79248470D01*
X88252965Y-79198435D01*
X88169760Y-79163970D01*
X88081430Y-79146400D01*
X87991370Y-79146400D01*
X87903040Y-79163970D01*
X87819835Y-79198435D01*
X87744952Y-79248470D01*
X87681270Y-79312152D01*
X87680800Y-79312855D01*
X87680330Y-79312152D01*
X87616648Y-79248470D01*
X87541765Y-79198435D01*
X87458560Y-79163970D01*
X87370230Y-79146400D01*
X87280170Y-79146400D01*
X87191840Y-79163970D01*
X87108635Y-79198435D01*
X87033752Y-79248470D01*
X86995000Y-79287222D01*
X86956248Y-79248470D01*
X86881365Y-79198435D01*
X86798160Y-79163970D01*
X86709830Y-79146400D01*
X86619770Y-79146400D01*
X86531440Y-79163970D01*
X86448235Y-79198435D01*
X86373352Y-79248470D01*
X86309670Y-79312152D01*
X86259635Y-79387035D01*
X86225170Y-79470240D01*
X86207600Y-79558570D01*
X80464904Y-79558570D01*
X80467200Y-79547030D01*
X80467200Y-79456970D01*
X80449630Y-79368640D01*
X80415165Y-79285435D01*
X80365130Y-79210552D01*
X80301448Y-79146870D01*
X80226565Y-79096835D01*
X80143360Y-79062370D01*
X80055030Y-79044800D01*
X79964970Y-79044800D01*
X79876640Y-79062370D01*
X79793435Y-79096835D01*
X79756000Y-79121848D01*
X79718565Y-79096835D01*
X79635360Y-79062370D01*
X79547030Y-79044800D01*
X79456970Y-79044800D01*
X79368640Y-79062370D01*
X79285435Y-79096835D01*
X79248000Y-79121848D01*
X79210565Y-79096835D01*
X79127360Y-79062370D01*
X79039030Y-79044800D01*
X78948970Y-79044800D01*
X78860640Y-79062370D01*
X78777435Y-79096835D01*
X78702552Y-79146870D01*
X78638870Y-79210552D01*
X78588835Y-79285435D01*
X78554370Y-79368640D01*
X78536800Y-79456970D01*
X71449800Y-79456970D01*
X71449800Y-78694970D01*
X76250800Y-78694970D01*
X76250800Y-78785030D01*
X76268370Y-78873360D01*
X76302835Y-78956565D01*
X76352870Y-79031448D01*
X76416552Y-79095130D01*
X76491435Y-79145165D01*
X76574640Y-79179630D01*
X76662970Y-79197200D01*
X76753030Y-79197200D01*
X76841360Y-79179630D01*
X76924565Y-79145165D01*
X76999448Y-79095130D01*
X77025500Y-79069078D01*
X77051552Y-79095130D01*
X77126435Y-79145165D01*
X77209640Y-79179630D01*
X77297970Y-79197200D01*
X77388030Y-79197200D01*
X77476360Y-79179630D01*
X77559565Y-79145165D01*
X77634448Y-79095130D01*
X77660500Y-79069078D01*
X77686552Y-79095130D01*
X77761435Y-79145165D01*
X77844640Y-79179630D01*
X77932970Y-79197200D01*
X78023030Y-79197200D01*
X78111360Y-79179630D01*
X78194565Y-79145165D01*
X78269448Y-79095130D01*
X78333130Y-79031448D01*
X78383165Y-78956565D01*
X78417630Y-78873360D01*
X78435200Y-78785030D01*
X78435200Y-78694970D01*
X78417630Y-78606640D01*
X78383165Y-78523435D01*
X78333130Y-78448552D01*
X78269448Y-78384870D01*
X78194565Y-78334835D01*
X78111360Y-78300370D01*
X78023030Y-78282800D01*
X77932970Y-78282800D01*
X77844640Y-78300370D01*
X77761435Y-78334835D01*
X77686552Y-78384870D01*
X77660500Y-78410922D01*
X77634448Y-78384870D01*
X77559565Y-78334835D01*
X77476360Y-78300370D01*
X77388030Y-78282800D01*
X77297970Y-78282800D01*
X77209640Y-78300370D01*
X77126435Y-78334835D01*
X77051552Y-78384870D01*
X77025500Y-78410922D01*
X76999448Y-78384870D01*
X76924565Y-78334835D01*
X76841360Y-78300370D01*
X76753030Y-78282800D01*
X76662970Y-78282800D01*
X76574640Y-78300370D01*
X76491435Y-78334835D01*
X76416552Y-78384870D01*
X76352870Y-78448552D01*
X76302835Y-78523435D01*
X76268370Y-78606640D01*
X76250800Y-78694970D01*
X71449800Y-78694970D01*
X71449800Y-77170970D01*
X93014800Y-77170970D01*
X93014800Y-77261030D01*
X93032370Y-77349360D01*
X93066835Y-77432565D01*
X93091848Y-77470000D01*
X93066835Y-77507435D01*
X93032370Y-77590640D01*
X93014800Y-77678970D01*
X93014800Y-77769030D01*
X93032370Y-77857360D01*
X93066835Y-77940565D01*
X93116870Y-78015448D01*
X93180552Y-78079130D01*
X93255435Y-78129165D01*
X93338640Y-78163630D01*
X93426970Y-78181200D01*
X93517030Y-78181200D01*
X93605360Y-78163630D01*
X93688565Y-78129165D01*
X93726000Y-78104152D01*
X93763435Y-78129165D01*
X93846640Y-78163630D01*
X93934970Y-78181200D01*
X94025030Y-78181200D01*
X94113360Y-78163630D01*
X94196565Y-78129165D01*
X94271448Y-78079130D01*
X94335130Y-78015448D01*
X94385165Y-77940565D01*
X94419630Y-77857360D01*
X94437200Y-77769030D01*
X94437200Y-77678970D01*
X94419630Y-77590640D01*
X94385165Y-77507435D01*
X94360152Y-77470000D01*
X94385165Y-77432565D01*
X94419630Y-77349360D01*
X94437200Y-77261030D01*
X94437200Y-77170970D01*
X94419630Y-77082640D01*
X94385165Y-76999435D01*
X94335130Y-76924552D01*
X94271448Y-76860870D01*
X94196565Y-76810835D01*
X94113360Y-76776370D01*
X94025030Y-76758800D01*
X93934970Y-76758800D01*
X93846640Y-76776370D01*
X93763435Y-76810835D01*
X93726000Y-76835848D01*
X93688565Y-76810835D01*
X93605360Y-76776370D01*
X93517030Y-76758800D01*
X93426970Y-76758800D01*
X93338640Y-76776370D01*
X93255435Y-76810835D01*
X93180552Y-76860870D01*
X93116870Y-76924552D01*
X93066835Y-76999435D01*
X93032370Y-77082640D01*
X93014800Y-77170970D01*
X71449800Y-77170970D01*
X71449800Y-74128865D01*
X71559888Y-74682312D01*
X71824087Y-75320145D01*
X72207644Y-75894180D01*
X72695820Y-76382356D01*
X73269855Y-76765913D01*
X73907688Y-77030112D01*
X74584807Y-77164800D01*
X75275193Y-77164800D01*
X75952312Y-77030112D01*
X76590145Y-76765913D01*
X77124349Y-76408970D01*
X78917800Y-76408970D01*
X78917800Y-76499030D01*
X78935370Y-76587360D01*
X78969835Y-76670565D01*
X79019870Y-76745448D01*
X79083552Y-76809130D01*
X79158435Y-76859165D01*
X79241640Y-76893630D01*
X79329970Y-76911200D01*
X79420030Y-76911200D01*
X79508360Y-76893630D01*
X79591565Y-76859165D01*
X79666448Y-76809130D01*
X79730130Y-76745448D01*
X79780165Y-76670565D01*
X79814630Y-76587360D01*
X79832200Y-76499030D01*
X79832200Y-76408970D01*
X80060800Y-76408970D01*
X80060800Y-76499030D01*
X80078370Y-76587360D01*
X80112835Y-76670565D01*
X80162870Y-76745448D01*
X80226552Y-76809130D01*
X80301435Y-76859165D01*
X80384640Y-76893630D01*
X80472970Y-76911200D01*
X80563030Y-76911200D01*
X80651360Y-76893630D01*
X80734565Y-76859165D01*
X80809448Y-76809130D01*
X80873130Y-76745448D01*
X80923165Y-76670565D01*
X80957630Y-76587360D01*
X80975200Y-76499030D01*
X80975200Y-76408970D01*
X80957630Y-76320640D01*
X80923165Y-76237435D01*
X80873130Y-76162552D01*
X80809448Y-76098870D01*
X80734565Y-76048835D01*
X80651360Y-76014370D01*
X80563030Y-75996800D01*
X80472970Y-75996800D01*
X80384640Y-76014370D01*
X80301435Y-76048835D01*
X80226552Y-76098870D01*
X80162870Y-76162552D01*
X80112835Y-76237435D01*
X80078370Y-76320640D01*
X80060800Y-76408970D01*
X79832200Y-76408970D01*
X79814630Y-76320640D01*
X79780165Y-76237435D01*
X79730130Y-76162552D01*
X79666448Y-76098870D01*
X79591565Y-76048835D01*
X79508360Y-76014370D01*
X79420030Y-75996800D01*
X79329970Y-75996800D01*
X79241640Y-76014370D01*
X79158435Y-76048835D01*
X79083552Y-76098870D01*
X79019870Y-76162552D01*
X78969835Y-76237435D01*
X78935370Y-76320640D01*
X78917800Y-76408970D01*
X77124349Y-76408970D01*
X77164180Y-76382356D01*
X77652356Y-75894180D01*
X77987253Y-75392970D01*
X78917800Y-75392970D01*
X78917800Y-75483030D01*
X78935370Y-75571360D01*
X78969835Y-75654565D01*
X79019870Y-75729448D01*
X79083552Y-75793130D01*
X79158435Y-75843165D01*
X79241640Y-75877630D01*
X79329970Y-75895200D01*
X79420030Y-75895200D01*
X79508360Y-75877630D01*
X79591565Y-75843165D01*
X79666448Y-75793130D01*
X79730130Y-75729448D01*
X79780165Y-75654565D01*
X79814630Y-75571360D01*
X79832200Y-75483030D01*
X79832200Y-75392970D01*
X80060800Y-75392970D01*
X80060800Y-75483030D01*
X80078370Y-75571360D01*
X80112835Y-75654565D01*
X80162870Y-75729448D01*
X80226552Y-75793130D01*
X80301435Y-75843165D01*
X80384640Y-75877630D01*
X80472970Y-75895200D01*
X80563030Y-75895200D01*
X80651360Y-75877630D01*
X80734565Y-75843165D01*
X80809448Y-75793130D01*
X80873130Y-75729448D01*
X80923165Y-75654565D01*
X80957630Y-75571360D01*
X80975200Y-75483030D01*
X80975200Y-75392970D01*
X80957630Y-75304640D01*
X80923165Y-75221435D01*
X80873130Y-75146552D01*
X80809448Y-75082870D01*
X80734565Y-75032835D01*
X80651360Y-74998370D01*
X80563030Y-74980800D01*
X80472970Y-74980800D01*
X80384640Y-74998370D01*
X80301435Y-75032835D01*
X80226552Y-75082870D01*
X80162870Y-75146552D01*
X80112835Y-75221435D01*
X80078370Y-75304640D01*
X80060800Y-75392970D01*
X79832200Y-75392970D01*
X79814630Y-75304640D01*
X79780165Y-75221435D01*
X79730130Y-75146552D01*
X79666448Y-75082870D01*
X79591565Y-75032835D01*
X79508360Y-74998370D01*
X79420030Y-74980800D01*
X79329970Y-74980800D01*
X79241640Y-74998370D01*
X79158435Y-75032835D01*
X79083552Y-75082870D01*
X79019870Y-75146552D01*
X78969835Y-75221435D01*
X78935370Y-75304640D01*
X78917800Y-75392970D01*
X77987253Y-75392970D01*
X78035913Y-75320145D01*
X78300112Y-74682312D01*
X78434800Y-74005193D01*
X78434800Y-73314807D01*
X78300112Y-72637688D01*
X78035913Y-71999855D01*
X77652356Y-71425820D01*
X77164180Y-70937644D01*
X76590145Y-70554087D01*
X75952312Y-70289888D01*
X75398865Y-70179800D01*
X97956135Y-70179800D01*
X97402688Y-70289888D01*
G37*
X97402688Y-70289888D02*
X96764855Y-70554087D01*
X96190820Y-70937644D01*
X95702644Y-71425820D01*
X95319087Y-71999855D01*
X95054888Y-72637688D01*
X94920200Y-73314807D01*
X94920200Y-74005193D01*
X95054888Y-74682312D01*
X95319087Y-75320145D01*
X95702644Y-75894180D01*
X96190820Y-76382356D01*
X96764855Y-76765913D01*
X97402688Y-77030112D01*
X98079807Y-77164800D01*
X98770193Y-77164800D01*
X99447312Y-77030112D01*
X100085145Y-76765913D01*
X100659180Y-76382356D01*
X101147356Y-75894180D01*
X101530913Y-75320145D01*
X101795112Y-74682312D01*
X101905201Y-74128860D01*
X101905201Y-81483200D01*
X83058000Y-81483200D01*
X83048089Y-81484176D01*
X83038560Y-81487067D01*
X83029777Y-81491761D01*
X83022079Y-81498079D01*
X83015761Y-81505777D01*
X83011067Y-81514560D01*
X83008176Y-81524089D01*
X83007200Y-81534000D01*
X83007200Y-83515200D01*
X81342421Y-83515200D01*
X81338630Y-83496140D01*
X81304165Y-83412935D01*
X81254130Y-83338052D01*
X81190448Y-83274370D01*
X81115565Y-83224335D01*
X81032360Y-83189870D01*
X80944030Y-83172300D01*
X80853970Y-83172300D01*
X80765640Y-83189870D01*
X80682435Y-83224335D01*
X80645000Y-83249348D01*
X80607565Y-83224335D01*
X80524360Y-83189870D01*
X80436030Y-83172300D01*
X80345970Y-83172300D01*
X80257640Y-83189870D01*
X80174435Y-83224335D01*
X80099552Y-83274370D01*
X80035870Y-83338052D01*
X79985835Y-83412935D01*
X79951370Y-83496140D01*
X79947579Y-83515200D01*
X71449800Y-83515200D01*
X71449800Y-82967477D01*
X71493008Y-83032142D01*
X71653858Y-83192992D01*
X71842997Y-83319371D01*
X72053157Y-83406422D01*
X72276262Y-83450800D01*
X72503738Y-83450800D01*
X72726843Y-83406422D01*
X72937003Y-83319371D01*
X73126142Y-83192992D01*
X73286992Y-83032142D01*
X73413371Y-82843003D01*
X73500422Y-82632843D01*
X73500595Y-82631970D01*
X77266800Y-82631970D01*
X77266800Y-82722030D01*
X77284370Y-82810360D01*
X77318835Y-82893565D01*
X77368870Y-82968448D01*
X77432552Y-83032130D01*
X77507435Y-83082165D01*
X77590640Y-83116630D01*
X77678970Y-83134200D01*
X77769030Y-83134200D01*
X77857360Y-83116630D01*
X77940565Y-83082165D01*
X78015448Y-83032130D01*
X78079130Y-82968448D01*
X78129165Y-82893565D01*
X78163630Y-82810360D01*
X78181200Y-82722030D01*
X78181200Y-82631970D01*
X78163630Y-82543640D01*
X78129165Y-82460435D01*
X78079130Y-82385552D01*
X78015448Y-82321870D01*
X77940565Y-82271835D01*
X77857360Y-82237370D01*
X77769030Y-82219800D01*
X77678970Y-82219800D01*
X77590640Y-82237370D01*
X77507435Y-82271835D01*
X77432552Y-82321870D01*
X77368870Y-82385552D01*
X77318835Y-82460435D01*
X77284370Y-82543640D01*
X77266800Y-82631970D01*
X73500595Y-82631970D01*
X73544800Y-82409738D01*
X73544800Y-82182262D01*
X73500422Y-81959157D01*
X73413371Y-81748997D01*
X73286992Y-81559858D01*
X73126142Y-81399008D01*
X72937003Y-81272629D01*
X72726843Y-81185578D01*
X72503738Y-81141200D01*
X72276262Y-81141200D01*
X72053157Y-81185578D01*
X71842997Y-81272629D01*
X71653858Y-81399008D01*
X71493008Y-81559858D01*
X71449800Y-81624523D01*
X71449800Y-79456970D01*
X78536800Y-79456970D01*
X78536800Y-79547030D01*
X78554370Y-79635360D01*
X78588835Y-79718565D01*
X78638870Y-79793448D01*
X78702552Y-79857130D01*
X78777435Y-79907165D01*
X78860640Y-79941630D01*
X78948970Y-79959200D01*
X79039030Y-79959200D01*
X79127360Y-79941630D01*
X79210565Y-79907165D01*
X79248000Y-79882152D01*
X79285435Y-79907165D01*
X79368640Y-79941630D01*
X79456970Y-79959200D01*
X79547030Y-79959200D01*
X79635360Y-79941630D01*
X79718565Y-79907165D01*
X79756000Y-79882152D01*
X79793435Y-79907165D01*
X79876640Y-79941630D01*
X79964970Y-79959200D01*
X80055030Y-79959200D01*
X80143360Y-79941630D01*
X80226565Y-79907165D01*
X80301448Y-79857130D01*
X80365130Y-79793448D01*
X80415165Y-79718565D01*
X80449630Y-79635360D01*
X80464904Y-79558570D01*
X86207600Y-79558570D01*
X86207600Y-79648630D01*
X86225170Y-79736960D01*
X86259635Y-79820165D01*
X86309670Y-79895048D01*
X86373352Y-79958730D01*
X86448235Y-80008765D01*
X86531440Y-80043230D01*
X86619770Y-80060800D01*
X86709830Y-80060800D01*
X86798160Y-80043230D01*
X86881365Y-80008765D01*
X86956248Y-79958730D01*
X86995000Y-79919978D01*
X87033752Y-79958730D01*
X87108635Y-80008765D01*
X87191840Y-80043230D01*
X87280170Y-80060800D01*
X87370230Y-80060800D01*
X87458560Y-80043230D01*
X87541765Y-80008765D01*
X87616648Y-79958730D01*
X87680330Y-79895048D01*
X87680800Y-79894345D01*
X87681270Y-79895048D01*
X87720022Y-79933800D01*
X87681270Y-79972552D01*
X87631235Y-80047435D01*
X87596770Y-80130640D01*
X87579200Y-80218970D01*
X87579200Y-80309030D01*
X87596770Y-80397360D01*
X87631235Y-80480565D01*
X87681270Y-80555448D01*
X87744952Y-80619130D01*
X87745655Y-80619600D01*
X87744952Y-80620070D01*
X87681270Y-80683752D01*
X87631235Y-80758635D01*
X87596770Y-80841840D01*
X87579200Y-80930170D01*
X87579200Y-81020230D01*
X87596770Y-81108560D01*
X87631235Y-81191765D01*
X87681270Y-81266648D01*
X87744952Y-81330330D01*
X87819835Y-81380365D01*
X87903040Y-81414830D01*
X87991370Y-81432400D01*
X88081430Y-81432400D01*
X88169760Y-81414830D01*
X88252965Y-81380365D01*
X88327848Y-81330330D01*
X88391530Y-81266648D01*
X88441565Y-81191765D01*
X88476030Y-81108560D01*
X88493600Y-81020230D01*
X88493600Y-80930170D01*
X88476030Y-80841840D01*
X88441565Y-80758635D01*
X88391530Y-80683752D01*
X88327848Y-80620070D01*
X88327145Y-80619600D01*
X88327848Y-80619130D01*
X88391530Y-80555448D01*
X88441565Y-80480565D01*
X88476030Y-80397360D01*
X88493600Y-80309030D01*
X88493600Y-80218970D01*
X88476030Y-80130640D01*
X88441565Y-80047435D01*
X88391530Y-79972552D01*
X88352778Y-79933800D01*
X88391530Y-79895048D01*
X88441565Y-79820165D01*
X88476030Y-79736960D01*
X88493600Y-79648630D01*
X88493600Y-79558570D01*
X88476030Y-79470240D01*
X88441565Y-79387035D01*
X88391530Y-79312152D01*
X88327848Y-79248470D01*
X88252965Y-79198435D01*
X88169760Y-79163970D01*
X88081430Y-79146400D01*
X87991370Y-79146400D01*
X87903040Y-79163970D01*
X87819835Y-79198435D01*
X87744952Y-79248470D01*
X87681270Y-79312152D01*
X87680800Y-79312855D01*
X87680330Y-79312152D01*
X87616648Y-79248470D01*
X87541765Y-79198435D01*
X87458560Y-79163970D01*
X87370230Y-79146400D01*
X87280170Y-79146400D01*
X87191840Y-79163970D01*
X87108635Y-79198435D01*
X87033752Y-79248470D01*
X86995000Y-79287222D01*
X86956248Y-79248470D01*
X86881365Y-79198435D01*
X86798160Y-79163970D01*
X86709830Y-79146400D01*
X86619770Y-79146400D01*
X86531440Y-79163970D01*
X86448235Y-79198435D01*
X86373352Y-79248470D01*
X86309670Y-79312152D01*
X86259635Y-79387035D01*
X86225170Y-79470240D01*
X86207600Y-79558570D01*
X80464904Y-79558570D01*
X80467200Y-79547030D01*
X80467200Y-79456970D01*
X80449630Y-79368640D01*
X80415165Y-79285435D01*
X80365130Y-79210552D01*
X80301448Y-79146870D01*
X80226565Y-79096835D01*
X80143360Y-79062370D01*
X80055030Y-79044800D01*
X79964970Y-79044800D01*
X79876640Y-79062370D01*
X79793435Y-79096835D01*
X79756000Y-79121848D01*
X79718565Y-79096835D01*
X79635360Y-79062370D01*
X79547030Y-79044800D01*
X79456970Y-79044800D01*
X79368640Y-79062370D01*
X79285435Y-79096835D01*
X79248000Y-79121848D01*
X79210565Y-79096835D01*
X79127360Y-79062370D01*
X79039030Y-79044800D01*
X78948970Y-79044800D01*
X78860640Y-79062370D01*
X78777435Y-79096835D01*
X78702552Y-79146870D01*
X78638870Y-79210552D01*
X78588835Y-79285435D01*
X78554370Y-79368640D01*
X78536800Y-79456970D01*
X71449800Y-79456970D01*
X71449800Y-78694970D01*
X76250800Y-78694970D01*
X76250800Y-78785030D01*
X76268370Y-78873360D01*
X76302835Y-78956565D01*
X76352870Y-79031448D01*
X76416552Y-79095130D01*
X76491435Y-79145165D01*
X76574640Y-79179630D01*
X76662970Y-79197200D01*
X76753030Y-79197200D01*
X76841360Y-79179630D01*
X76924565Y-79145165D01*
X76999448Y-79095130D01*
X77025500Y-79069078D01*
X77051552Y-79095130D01*
X77126435Y-79145165D01*
X77209640Y-79179630D01*
X77297970Y-79197200D01*
X77388030Y-79197200D01*
X77476360Y-79179630D01*
X77559565Y-79145165D01*
X77634448Y-79095130D01*
X77660500Y-79069078D01*
X77686552Y-79095130D01*
X77761435Y-79145165D01*
X77844640Y-79179630D01*
X77932970Y-79197200D01*
X78023030Y-79197200D01*
X78111360Y-79179630D01*
X78194565Y-79145165D01*
X78269448Y-79095130D01*
X78333130Y-79031448D01*
X78383165Y-78956565D01*
X78417630Y-78873360D01*
X78435200Y-78785030D01*
X78435200Y-78694970D01*
X78417630Y-78606640D01*
X78383165Y-78523435D01*
X78333130Y-78448552D01*
X78269448Y-78384870D01*
X78194565Y-78334835D01*
X78111360Y-78300370D01*
X78023030Y-78282800D01*
X77932970Y-78282800D01*
X77844640Y-78300370D01*
X77761435Y-78334835D01*
X77686552Y-78384870D01*
X77660500Y-78410922D01*
X77634448Y-78384870D01*
X77559565Y-78334835D01*
X77476360Y-78300370D01*
X77388030Y-78282800D01*
X77297970Y-78282800D01*
X77209640Y-78300370D01*
X77126435Y-78334835D01*
X77051552Y-78384870D01*
X77025500Y-78410922D01*
X76999448Y-78384870D01*
X76924565Y-78334835D01*
X76841360Y-78300370D01*
X76753030Y-78282800D01*
X76662970Y-78282800D01*
X76574640Y-78300370D01*
X76491435Y-78334835D01*
X76416552Y-78384870D01*
X76352870Y-78448552D01*
X76302835Y-78523435D01*
X76268370Y-78606640D01*
X76250800Y-78694970D01*
X71449800Y-78694970D01*
X71449800Y-77170970D01*
X93014800Y-77170970D01*
X93014800Y-77261030D01*
X93032370Y-77349360D01*
X93066835Y-77432565D01*
X93091848Y-77470000D01*
X93066835Y-77507435D01*
X93032370Y-77590640D01*
X93014800Y-77678970D01*
X93014800Y-77769030D01*
X93032370Y-77857360D01*
X93066835Y-77940565D01*
X93116870Y-78015448D01*
X93180552Y-78079130D01*
X93255435Y-78129165D01*
X93338640Y-78163630D01*
X93426970Y-78181200D01*
X93517030Y-78181200D01*
X93605360Y-78163630D01*
X93688565Y-78129165D01*
X93726000Y-78104152D01*
X93763435Y-78129165D01*
X93846640Y-78163630D01*
X93934970Y-78181200D01*
X94025030Y-78181200D01*
X94113360Y-78163630D01*
X94196565Y-78129165D01*
X94271448Y-78079130D01*
X94335130Y-78015448D01*
X94385165Y-77940565D01*
X94419630Y-77857360D01*
X94437200Y-77769030D01*
X94437200Y-77678970D01*
X94419630Y-77590640D01*
X94385165Y-77507435D01*
X94360152Y-77470000D01*
X94385165Y-77432565D01*
X94419630Y-77349360D01*
X94437200Y-77261030D01*
X94437200Y-77170970D01*
X94419630Y-77082640D01*
X94385165Y-76999435D01*
X94335130Y-76924552D01*
X94271448Y-76860870D01*
X94196565Y-76810835D01*
X94113360Y-76776370D01*
X94025030Y-76758800D01*
X93934970Y-76758800D01*
X93846640Y-76776370D01*
X93763435Y-76810835D01*
X93726000Y-76835848D01*
X93688565Y-76810835D01*
X93605360Y-76776370D01*
X93517030Y-76758800D01*
X93426970Y-76758800D01*
X93338640Y-76776370D01*
X93255435Y-76810835D01*
X93180552Y-76860870D01*
X93116870Y-76924552D01*
X93066835Y-76999435D01*
X93032370Y-77082640D01*
X93014800Y-77170970D01*
X71449800Y-77170970D01*
X71449800Y-74128865D01*
X71559888Y-74682312D01*
X71824087Y-75320145D01*
X72207644Y-75894180D01*
X72695820Y-76382356D01*
X73269855Y-76765913D01*
X73907688Y-77030112D01*
X74584807Y-77164800D01*
X75275193Y-77164800D01*
X75952312Y-77030112D01*
X76590145Y-76765913D01*
X77124349Y-76408970D01*
X78917800Y-76408970D01*
X78917800Y-76499030D01*
X78935370Y-76587360D01*
X78969835Y-76670565D01*
X79019870Y-76745448D01*
X79083552Y-76809130D01*
X79158435Y-76859165D01*
X79241640Y-76893630D01*
X79329970Y-76911200D01*
X79420030Y-76911200D01*
X79508360Y-76893630D01*
X79591565Y-76859165D01*
X79666448Y-76809130D01*
X79730130Y-76745448D01*
X79780165Y-76670565D01*
X79814630Y-76587360D01*
X79832200Y-76499030D01*
X79832200Y-76408970D01*
X80060800Y-76408970D01*
X80060800Y-76499030D01*
X80078370Y-76587360D01*
X80112835Y-76670565D01*
X80162870Y-76745448D01*
X80226552Y-76809130D01*
X80301435Y-76859165D01*
X80384640Y-76893630D01*
X80472970Y-76911200D01*
X80563030Y-76911200D01*
X80651360Y-76893630D01*
X80734565Y-76859165D01*
X80809448Y-76809130D01*
X80873130Y-76745448D01*
X80923165Y-76670565D01*
X80957630Y-76587360D01*
X80975200Y-76499030D01*
X80975200Y-76408970D01*
X80957630Y-76320640D01*
X80923165Y-76237435D01*
X80873130Y-76162552D01*
X80809448Y-76098870D01*
X80734565Y-76048835D01*
X80651360Y-76014370D01*
X80563030Y-75996800D01*
X80472970Y-75996800D01*
X80384640Y-76014370D01*
X80301435Y-76048835D01*
X80226552Y-76098870D01*
X80162870Y-76162552D01*
X80112835Y-76237435D01*
X80078370Y-76320640D01*
X80060800Y-76408970D01*
X79832200Y-76408970D01*
X79814630Y-76320640D01*
X79780165Y-76237435D01*
X79730130Y-76162552D01*
X79666448Y-76098870D01*
X79591565Y-76048835D01*
X79508360Y-76014370D01*
X79420030Y-75996800D01*
X79329970Y-75996800D01*
X79241640Y-76014370D01*
X79158435Y-76048835D01*
X79083552Y-76098870D01*
X79019870Y-76162552D01*
X78969835Y-76237435D01*
X78935370Y-76320640D01*
X78917800Y-76408970D01*
X77124349Y-76408970D01*
X77164180Y-76382356D01*
X77652356Y-75894180D01*
X77987253Y-75392970D01*
X78917800Y-75392970D01*
X78917800Y-75483030D01*
X78935370Y-75571360D01*
X78969835Y-75654565D01*
X79019870Y-75729448D01*
X79083552Y-75793130D01*
X79158435Y-75843165D01*
X79241640Y-75877630D01*
X79329970Y-75895200D01*
X79420030Y-75895200D01*
X79508360Y-75877630D01*
X79591565Y-75843165D01*
X79666448Y-75793130D01*
X79730130Y-75729448D01*
X79780165Y-75654565D01*
X79814630Y-75571360D01*
X79832200Y-75483030D01*
X79832200Y-75392970D01*
X80060800Y-75392970D01*
X80060800Y-75483030D01*
X80078370Y-75571360D01*
X80112835Y-75654565D01*
X80162870Y-75729448D01*
X80226552Y-75793130D01*
X80301435Y-75843165D01*
X80384640Y-75877630D01*
X80472970Y-75895200D01*
X80563030Y-75895200D01*
X80651360Y-75877630D01*
X80734565Y-75843165D01*
X80809448Y-75793130D01*
X80873130Y-75729448D01*
X80923165Y-75654565D01*
X80957630Y-75571360D01*
X80975200Y-75483030D01*
X80975200Y-75392970D01*
X80957630Y-75304640D01*
X80923165Y-75221435D01*
X80873130Y-75146552D01*
X80809448Y-75082870D01*
X80734565Y-75032835D01*
X80651360Y-74998370D01*
X80563030Y-74980800D01*
X80472970Y-74980800D01*
X80384640Y-74998370D01*
X80301435Y-75032835D01*
X80226552Y-75082870D01*
X80162870Y-75146552D01*
X80112835Y-75221435D01*
X80078370Y-75304640D01*
X80060800Y-75392970D01*
X79832200Y-75392970D01*
X79814630Y-75304640D01*
X79780165Y-75221435D01*
X79730130Y-75146552D01*
X79666448Y-75082870D01*
X79591565Y-75032835D01*
X79508360Y-74998370D01*
X79420030Y-74980800D01*
X79329970Y-74980800D01*
X79241640Y-74998370D01*
X79158435Y-75032835D01*
X79083552Y-75082870D01*
X79019870Y-75146552D01*
X78969835Y-75221435D01*
X78935370Y-75304640D01*
X78917800Y-75392970D01*
X77987253Y-75392970D01*
X78035913Y-75320145D01*
X78300112Y-74682312D01*
X78434800Y-74005193D01*
X78434800Y-73314807D01*
X78300112Y-72637688D01*
X78035913Y-71999855D01*
X77652356Y-71425820D01*
X77164180Y-70937644D01*
X76590145Y-70554087D01*
X75952312Y-70289888D01*
X75398865Y-70179800D01*
X97956135Y-70179800D01*
X97402688Y-70289888D01*
%TD*%
M02*
