%TF.GenerationSoftware,KiCad,Pcbnew,5.1.6-c6e7f7d~87~ubuntu18.04.1*%
%TF.CreationDate,2020-08-02T22:12:59+02:00*%
%TF.ProjectId,ad9834_eval,61643938-3334-45f6-9576-616c2e6b6963,rev?*%
%TF.SameCoordinates,Original*%
%TF.FileFunction,Paste,Bot*%
%TF.FilePolarity,Positive*%
%FSLAX46Y46*%
G04 Gerber Fmt 4.6, Leading zero omitted, Abs format (unit mm)*
G04 Created by KiCad (PCBNEW 5.1.6-c6e7f7d~87~ubuntu18.04.1) date 2020-08-02 22:12:59*
%MOMM*%
%LPD*%
G01*
G04 APERTURE LIST*
%ADD10R,1.500000X5.080000*%
%ADD11R,5.080000X1.500000*%
G04 APERTURE END LIST*
%TO.C,C4*%
G36*
G01*
X78861500Y-83822250D02*
X78861500Y-83309750D01*
G75*
G02*
X79080250Y-83091000I218750J0D01*
G01*
X79517750Y-83091000D01*
G75*
G02*
X79736500Y-83309750I0J-218750D01*
G01*
X79736500Y-83822250D01*
G75*
G02*
X79517750Y-84041000I-218750J0D01*
G01*
X79080250Y-84041000D01*
G75*
G02*
X78861500Y-83822250I0J218750D01*
G01*
G37*
G36*
G01*
X77286500Y-83822250D02*
X77286500Y-83309750D01*
G75*
G02*
X77505250Y-83091000I218750J0D01*
G01*
X77942750Y-83091000D01*
G75*
G02*
X78161500Y-83309750I0J-218750D01*
G01*
X78161500Y-83822250D01*
G75*
G02*
X77942750Y-84041000I-218750J0D01*
G01*
X77505250Y-84041000D01*
G75*
G02*
X77286500Y-83822250I0J218750D01*
G01*
G37*
%TD*%
D10*
%TO.C,J3*%
X82681500Y-72796400D03*
X91181500Y-72796400D03*
%TD*%
D11*
%TO.C,J2*%
X99377500Y-79570000D03*
X99377500Y-88070000D03*
%TD*%
%TO.C,C25*%
G36*
G01*
X89333100Y-86396000D02*
X89333100Y-84546000D01*
G75*
G02*
X89583100Y-84296000I250000J0D01*
G01*
X91158100Y-84296000D01*
G75*
G02*
X91408100Y-84546000I0J-250000D01*
G01*
X91408100Y-86396000D01*
G75*
G02*
X91158100Y-86646000I-250000J0D01*
G01*
X89583100Y-86646000D01*
G75*
G02*
X89333100Y-86396000I0J250000D01*
G01*
G37*
G36*
G01*
X84408100Y-86396000D02*
X84408100Y-84546000D01*
G75*
G02*
X84658100Y-84296000I250000J0D01*
G01*
X86233100Y-84296000D01*
G75*
G02*
X86483100Y-84546000I0J-250000D01*
G01*
X86483100Y-86396000D01*
G75*
G02*
X86233100Y-86646000I-250000J0D01*
G01*
X84658100Y-86646000D01*
G75*
G02*
X84408100Y-86396000I0J250000D01*
G01*
G37*
%TD*%
%TO.C,C24*%
G36*
G01*
X86583100Y-83060250D02*
X86583100Y-82547750D01*
G75*
G02*
X86801850Y-82329000I218750J0D01*
G01*
X87239350Y-82329000D01*
G75*
G02*
X87458100Y-82547750I0J-218750D01*
G01*
X87458100Y-83060250D01*
G75*
G02*
X87239350Y-83279000I-218750J0D01*
G01*
X86801850Y-83279000D01*
G75*
G02*
X86583100Y-83060250I0J218750D01*
G01*
G37*
G36*
G01*
X85008100Y-83060250D02*
X85008100Y-82547750D01*
G75*
G02*
X85226850Y-82329000I218750J0D01*
G01*
X85664350Y-82329000D01*
G75*
G02*
X85883100Y-82547750I0J-218750D01*
G01*
X85883100Y-83060250D01*
G75*
G02*
X85664350Y-83279000I-218750J0D01*
G01*
X85226850Y-83279000D01*
G75*
G02*
X85008100Y-83060250I0J218750D01*
G01*
G37*
%TD*%
%TO.C,C23*%
G36*
G01*
X80595500Y-81697000D02*
X80595500Y-79847000D01*
G75*
G02*
X80845500Y-79597000I250000J0D01*
G01*
X82420500Y-79597000D01*
G75*
G02*
X82670500Y-79847000I0J-250000D01*
G01*
X82670500Y-81697000D01*
G75*
G02*
X82420500Y-81947000I-250000J0D01*
G01*
X80845500Y-81947000D01*
G75*
G02*
X80595500Y-81697000I0J250000D01*
G01*
G37*
G36*
G01*
X75670500Y-81697000D02*
X75670500Y-79847000D01*
G75*
G02*
X75920500Y-79597000I250000J0D01*
G01*
X77495500Y-79597000D01*
G75*
G02*
X77745500Y-79847000I0J-250000D01*
G01*
X77745500Y-81697000D01*
G75*
G02*
X77495500Y-81947000I-250000J0D01*
G01*
X75920500Y-81947000D01*
G75*
G02*
X75670500Y-81697000I0J250000D01*
G01*
G37*
%TD*%
%TO.C,C22*%
G36*
G01*
X86583100Y-80901250D02*
X86583100Y-80388750D01*
G75*
G02*
X86801850Y-80170000I218750J0D01*
G01*
X87239350Y-80170000D01*
G75*
G02*
X87458100Y-80388750I0J-218750D01*
G01*
X87458100Y-80901250D01*
G75*
G02*
X87239350Y-81120000I-218750J0D01*
G01*
X86801850Y-81120000D01*
G75*
G02*
X86583100Y-80901250I0J218750D01*
G01*
G37*
G36*
G01*
X85008100Y-80901250D02*
X85008100Y-80388750D01*
G75*
G02*
X85226850Y-80170000I218750J0D01*
G01*
X85664350Y-80170000D01*
G75*
G02*
X85883100Y-80388750I0J-218750D01*
G01*
X85883100Y-80901250D01*
G75*
G02*
X85664350Y-81120000I-218750J0D01*
G01*
X85226850Y-81120000D01*
G75*
G02*
X85008100Y-80901250I0J218750D01*
G01*
G37*
%TD*%
%TO.C,C21*%
G36*
G01*
X89333100Y-78903000D02*
X89333100Y-77053000D01*
G75*
G02*
X89583100Y-76803000I250000J0D01*
G01*
X91158100Y-76803000D01*
G75*
G02*
X91408100Y-77053000I0J-250000D01*
G01*
X91408100Y-78903000D01*
G75*
G02*
X91158100Y-79153000I-250000J0D01*
G01*
X89583100Y-79153000D01*
G75*
G02*
X89333100Y-78903000I0J250000D01*
G01*
G37*
G36*
G01*
X84408100Y-78903000D02*
X84408100Y-77053000D01*
G75*
G02*
X84658100Y-76803000I250000J0D01*
G01*
X86233100Y-76803000D01*
G75*
G02*
X86483100Y-77053000I0J-250000D01*
G01*
X86483100Y-78903000D01*
G75*
G02*
X86233100Y-79153000I-250000J0D01*
G01*
X84658100Y-79153000D01*
G75*
G02*
X84408100Y-78903000I0J250000D01*
G01*
G37*
%TD*%
%TO.C,C20*%
G36*
G01*
X76956500Y-78170750D02*
X76956500Y-77658250D01*
G75*
G02*
X77175250Y-77439500I218750J0D01*
G01*
X77612750Y-77439500D01*
G75*
G02*
X77831500Y-77658250I0J-218750D01*
G01*
X77831500Y-78170750D01*
G75*
G02*
X77612750Y-78389500I-218750J0D01*
G01*
X77175250Y-78389500D01*
G75*
G02*
X76956500Y-78170750I0J218750D01*
G01*
G37*
G36*
G01*
X75381500Y-78170750D02*
X75381500Y-77658250D01*
G75*
G02*
X75600250Y-77439500I218750J0D01*
G01*
X76037750Y-77439500D01*
G75*
G02*
X76256500Y-77658250I0J-218750D01*
G01*
X76256500Y-78170750D01*
G75*
G02*
X76037750Y-78389500I-218750J0D01*
G01*
X75600250Y-78389500D01*
G75*
G02*
X75381500Y-78170750I0J218750D01*
G01*
G37*
%TD*%
M02*
