%TF.GenerationSoftware,KiCad,Pcbnew,5.1.6-c6e7f7d~87~ubuntu18.04.1*%
%TF.CreationDate,2020-08-02T22:12:59+02:00*%
%TF.ProjectId,ad9834_eval,61643938-3334-45f6-9576-616c2e6b6963,rev?*%
%TF.SameCoordinates,Original*%
%TF.FileFunction,Soldermask,Bot*%
%TF.FilePolarity,Negative*%
%FSLAX46Y46*%
G04 Gerber Fmt 4.6, Leading zero omitted, Abs format (unit mm)*
G04 Created by KiCad (PCBNEW 5.1.6-c6e7f7d~87~ubuntu18.04.1) date 2020-08-02 22:12:59*
%MOMM*%
%LPD*%
G01*
G04 APERTURE LIST*
%ADD10O,1.800000X1.800000*%
%ADD11R,1.800000X1.800000*%
%ADD12R,1.600000X5.180000*%
%ADD13R,5.180000X1.600000*%
%ADD14C,0.900000*%
%ADD15C,6.500000*%
G04 APERTURE END LIST*
%TO.C,C4*%
G36*
G01*
X78811500Y-83847250D02*
X78811500Y-83284750D01*
G75*
G02*
X79055250Y-83041000I243750J0D01*
G01*
X79542750Y-83041000D01*
G75*
G02*
X79786500Y-83284750I0J-243750D01*
G01*
X79786500Y-83847250D01*
G75*
G02*
X79542750Y-84091000I-243750J0D01*
G01*
X79055250Y-84091000D01*
G75*
G02*
X78811500Y-83847250I0J243750D01*
G01*
G37*
G36*
G01*
X77236500Y-83847250D02*
X77236500Y-83284750D01*
G75*
G02*
X77480250Y-83041000I243750J0D01*
G01*
X77967750Y-83041000D01*
G75*
G02*
X78211500Y-83284750I0J-243750D01*
G01*
X78211500Y-83847250D01*
G75*
G02*
X77967750Y-84091000I-243750J0D01*
G01*
X77480250Y-84091000D01*
G75*
G02*
X77236500Y-83847250I0J243750D01*
G01*
G37*
%TD*%
D10*
%TO.C,J1*%
X93065600Y-96266000D03*
X93065600Y-93726000D03*
X90525600Y-96266000D03*
X90525600Y-93726000D03*
X87985600Y-96266000D03*
X87985600Y-93726000D03*
X85445600Y-96266000D03*
X85445600Y-93726000D03*
X82905600Y-96266000D03*
X82905600Y-93726000D03*
X80365600Y-96266000D03*
D11*
X80365600Y-93726000D03*
%TD*%
D10*
%TO.C,J4*%
X72390000Y-87376000D03*
X72390000Y-84836000D03*
X72390000Y-82296000D03*
D11*
X72390000Y-79756000D03*
%TD*%
D12*
%TO.C,J3*%
X82681500Y-72796400D03*
X91181500Y-72796400D03*
%TD*%
D13*
%TO.C,J2*%
X99377500Y-79570000D03*
X99377500Y-88070000D03*
%TD*%
D14*
%TO.C,H4*%
X76627056Y-71962944D03*
X74930000Y-71260000D03*
X73232944Y-71962944D03*
X72530000Y-73660000D03*
X73232944Y-75357056D03*
X74930000Y-76060000D03*
X76627056Y-75357056D03*
X77330000Y-73660000D03*
D15*
X74930000Y-73660000D03*
%TD*%
D14*
%TO.C,H3*%
X76627056Y-92282944D03*
X74930000Y-91580000D03*
X73232944Y-92282944D03*
X72530000Y-93980000D03*
X73232944Y-95677056D03*
X74930000Y-96380000D03*
X76627056Y-95677056D03*
X77330000Y-93980000D03*
D15*
X74930000Y-93980000D03*
%TD*%
D14*
%TO.C,H2*%
X100122056Y-92282944D03*
X98425000Y-91580000D03*
X96727944Y-92282944D03*
X96025000Y-93980000D03*
X96727944Y-95677056D03*
X98425000Y-96380000D03*
X100122056Y-95677056D03*
X100825000Y-93980000D03*
D15*
X98425000Y-93980000D03*
%TD*%
D14*
%TO.C,H1*%
X100122056Y-71962944D03*
X98425000Y-71260000D03*
X96727944Y-71962944D03*
X96025000Y-73660000D03*
X96727944Y-75357056D03*
X98425000Y-76060000D03*
X100122056Y-75357056D03*
X100825000Y-73660000D03*
D15*
X98425000Y-73660000D03*
%TD*%
%TO.C,C25*%
G36*
G01*
X89283100Y-86433952D02*
X89283100Y-84508048D01*
G75*
G02*
X89545148Y-84246000I262048J0D01*
G01*
X91196052Y-84246000D01*
G75*
G02*
X91458100Y-84508048I0J-262048D01*
G01*
X91458100Y-86433952D01*
G75*
G02*
X91196052Y-86696000I-262048J0D01*
G01*
X89545148Y-86696000D01*
G75*
G02*
X89283100Y-86433952I0J262048D01*
G01*
G37*
G36*
G01*
X84358100Y-86433952D02*
X84358100Y-84508048D01*
G75*
G02*
X84620148Y-84246000I262048J0D01*
G01*
X86271052Y-84246000D01*
G75*
G02*
X86533100Y-84508048I0J-262048D01*
G01*
X86533100Y-86433952D01*
G75*
G02*
X86271052Y-86696000I-262048J0D01*
G01*
X84620148Y-86696000D01*
G75*
G02*
X84358100Y-86433952I0J262048D01*
G01*
G37*
%TD*%
%TO.C,C24*%
G36*
G01*
X86533100Y-83085250D02*
X86533100Y-82522750D01*
G75*
G02*
X86776850Y-82279000I243750J0D01*
G01*
X87264350Y-82279000D01*
G75*
G02*
X87508100Y-82522750I0J-243750D01*
G01*
X87508100Y-83085250D01*
G75*
G02*
X87264350Y-83329000I-243750J0D01*
G01*
X86776850Y-83329000D01*
G75*
G02*
X86533100Y-83085250I0J243750D01*
G01*
G37*
G36*
G01*
X84958100Y-83085250D02*
X84958100Y-82522750D01*
G75*
G02*
X85201850Y-82279000I243750J0D01*
G01*
X85689350Y-82279000D01*
G75*
G02*
X85933100Y-82522750I0J-243750D01*
G01*
X85933100Y-83085250D01*
G75*
G02*
X85689350Y-83329000I-243750J0D01*
G01*
X85201850Y-83329000D01*
G75*
G02*
X84958100Y-83085250I0J243750D01*
G01*
G37*
%TD*%
%TO.C,C23*%
G36*
G01*
X80545500Y-81734952D02*
X80545500Y-79809048D01*
G75*
G02*
X80807548Y-79547000I262048J0D01*
G01*
X82458452Y-79547000D01*
G75*
G02*
X82720500Y-79809048I0J-262048D01*
G01*
X82720500Y-81734952D01*
G75*
G02*
X82458452Y-81997000I-262048J0D01*
G01*
X80807548Y-81997000D01*
G75*
G02*
X80545500Y-81734952I0J262048D01*
G01*
G37*
G36*
G01*
X75620500Y-81734952D02*
X75620500Y-79809048D01*
G75*
G02*
X75882548Y-79547000I262048J0D01*
G01*
X77533452Y-79547000D01*
G75*
G02*
X77795500Y-79809048I0J-262048D01*
G01*
X77795500Y-81734952D01*
G75*
G02*
X77533452Y-81997000I-262048J0D01*
G01*
X75882548Y-81997000D01*
G75*
G02*
X75620500Y-81734952I0J262048D01*
G01*
G37*
%TD*%
%TO.C,C22*%
G36*
G01*
X86533100Y-80926250D02*
X86533100Y-80363750D01*
G75*
G02*
X86776850Y-80120000I243750J0D01*
G01*
X87264350Y-80120000D01*
G75*
G02*
X87508100Y-80363750I0J-243750D01*
G01*
X87508100Y-80926250D01*
G75*
G02*
X87264350Y-81170000I-243750J0D01*
G01*
X86776850Y-81170000D01*
G75*
G02*
X86533100Y-80926250I0J243750D01*
G01*
G37*
G36*
G01*
X84958100Y-80926250D02*
X84958100Y-80363750D01*
G75*
G02*
X85201850Y-80120000I243750J0D01*
G01*
X85689350Y-80120000D01*
G75*
G02*
X85933100Y-80363750I0J-243750D01*
G01*
X85933100Y-80926250D01*
G75*
G02*
X85689350Y-81170000I-243750J0D01*
G01*
X85201850Y-81170000D01*
G75*
G02*
X84958100Y-80926250I0J243750D01*
G01*
G37*
%TD*%
%TO.C,C21*%
G36*
G01*
X89283100Y-78940952D02*
X89283100Y-77015048D01*
G75*
G02*
X89545148Y-76753000I262048J0D01*
G01*
X91196052Y-76753000D01*
G75*
G02*
X91458100Y-77015048I0J-262048D01*
G01*
X91458100Y-78940952D01*
G75*
G02*
X91196052Y-79203000I-262048J0D01*
G01*
X89545148Y-79203000D01*
G75*
G02*
X89283100Y-78940952I0J262048D01*
G01*
G37*
G36*
G01*
X84358100Y-78940952D02*
X84358100Y-77015048D01*
G75*
G02*
X84620148Y-76753000I262048J0D01*
G01*
X86271052Y-76753000D01*
G75*
G02*
X86533100Y-77015048I0J-262048D01*
G01*
X86533100Y-78940952D01*
G75*
G02*
X86271052Y-79203000I-262048J0D01*
G01*
X84620148Y-79203000D01*
G75*
G02*
X84358100Y-78940952I0J262048D01*
G01*
G37*
%TD*%
%TO.C,C20*%
G36*
G01*
X76906500Y-78195750D02*
X76906500Y-77633250D01*
G75*
G02*
X77150250Y-77389500I243750J0D01*
G01*
X77637750Y-77389500D01*
G75*
G02*
X77881500Y-77633250I0J-243750D01*
G01*
X77881500Y-78195750D01*
G75*
G02*
X77637750Y-78439500I-243750J0D01*
G01*
X77150250Y-78439500D01*
G75*
G02*
X76906500Y-78195750I0J243750D01*
G01*
G37*
G36*
G01*
X75331500Y-78195750D02*
X75331500Y-77633250D01*
G75*
G02*
X75575250Y-77389500I243750J0D01*
G01*
X76062750Y-77389500D01*
G75*
G02*
X76306500Y-77633250I0J-243750D01*
G01*
X76306500Y-78195750D01*
G75*
G02*
X76062750Y-78439500I-243750J0D01*
G01*
X75575250Y-78439500D01*
G75*
G02*
X75331500Y-78195750I0J243750D01*
G01*
G37*
%TD*%
M02*
