%TF.GenerationSoftware,KiCad,Pcbnew,5.1.6-c6e7f7d~87~ubuntu18.04.1*%
%TF.CreationDate,2020-08-02T22:12:59+02:00*%
%TF.ProjectId,ad9834_eval,61643938-3334-45f6-9576-616c2e6b6963,rev?*%
%TF.SameCoordinates,Original*%
%TF.FileFunction,Copper,L2,Inr*%
%TF.FilePolarity,Positive*%
%FSLAX46Y46*%
G04 Gerber Fmt 4.6, Leading zero omitted, Abs format (unit mm)*
G04 Created by KiCad (PCBNEW 5.1.6-c6e7f7d~87~ubuntu18.04.1) date 2020-08-02 22:12:59*
%MOMM*%
%LPD*%
G01*
G04 APERTURE LIST*
%TA.AperFunction,ViaPad*%
%ADD10O,1.700000X1.700000*%
%TD*%
%TA.AperFunction,ViaPad*%
%ADD11R,1.700000X1.700000*%
%TD*%
%TA.AperFunction,ViaPad*%
%ADD12C,0.800000*%
%TD*%
%TA.AperFunction,ViaPad*%
%ADD13C,6.400000*%
%TD*%
%TA.AperFunction,ViaPad*%
%ADD14C,0.304800*%
%TD*%
%TA.AperFunction,Conductor*%
%ADD15C,0.101600*%
%TD*%
G04 APERTURE END LIST*
D10*
%TO.N,Net-(J1-Pad12)*%
%TO.C,J1*%
X93065600Y-96266000D03*
%TO.N,Net-(J1-Pad11)*%
X93065600Y-93726000D03*
%TO.N,Net-(J1-Pad10)*%
X90525600Y-96266000D03*
%TO.N,GNDA*%
X90525600Y-93726000D03*
%TO.N,Net-(J1-Pad8)*%
X87985600Y-96266000D03*
%TO.N,Net-(J1-Pad7)*%
X87985600Y-93726000D03*
%TO.N,Net-(J1-Pad6)*%
X85445600Y-96266000D03*
%TO.N,GNDA*%
X85445600Y-93726000D03*
%TO.N,Net-(J1-Pad4)*%
X82905600Y-96266000D03*
%TO.N,Net-(J1-Pad3)*%
X82905600Y-93726000D03*
%TO.N,GNDA*%
X80365600Y-96266000D03*
D11*
%TO.N,Net-(J1-Pad1)*%
X80365600Y-93726000D03*
%TD*%
D10*
%TO.N,GNDA*%
%TO.C,J4*%
X72390000Y-87376000D03*
%TO.N,DVDD*%
X72390000Y-84836000D03*
%TO.N,GNDA*%
X72390000Y-82296000D03*
D11*
%TO.N,AVDD*%
X72390000Y-79756000D03*
%TD*%
D12*
%TO.N,GNDA*%
%TO.C,H4*%
X76627056Y-71962944D03*
X74930000Y-71260000D03*
X73232944Y-71962944D03*
X72530000Y-73660000D03*
X73232944Y-75357056D03*
X74930000Y-76060000D03*
X76627056Y-75357056D03*
X77330000Y-73660000D03*
D13*
X74930000Y-73660000D03*
%TD*%
D12*
%TO.N,GNDA*%
%TO.C,H3*%
X76627056Y-92282944D03*
X74930000Y-91580000D03*
X73232944Y-92282944D03*
X72530000Y-93980000D03*
X73232944Y-95677056D03*
X74930000Y-96380000D03*
X76627056Y-95677056D03*
X77330000Y-93980000D03*
D13*
X74930000Y-93980000D03*
%TD*%
D12*
%TO.N,GNDA*%
%TO.C,H2*%
X100122056Y-92282944D03*
X98425000Y-91580000D03*
X96727944Y-92282944D03*
X96025000Y-93980000D03*
X96727944Y-95677056D03*
X98425000Y-96380000D03*
X100122056Y-95677056D03*
X100825000Y-93980000D03*
D13*
X98425000Y-93980000D03*
%TD*%
D12*
%TO.N,GNDA*%
%TO.C,H1*%
X100122056Y-71962944D03*
X98425000Y-71260000D03*
X96727944Y-71962944D03*
X96025000Y-73660000D03*
X96727944Y-75357056D03*
X98425000Y-76060000D03*
X100122056Y-75357056D03*
X100825000Y-73660000D03*
D13*
X98425000Y-73660000D03*
%TD*%
D14*
%TO.N,AVDD*%
X75819000Y-78613000D03*
X75819000Y-78994000D03*
X80264000Y-81026000D03*
X86156800Y-81330800D03*
X80264000Y-80645000D03*
X85598000Y-81330800D03*
%TO.N,GNDA*%
X80518000Y-75438000D03*
X79375000Y-75438000D03*
X80518000Y-76454000D03*
X79375000Y-76454000D03*
X94361000Y-85217000D03*
X95504000Y-85217000D03*
X95504000Y-86360000D03*
X94361000Y-86360000D03*
X83185000Y-86487000D03*
X82550000Y-86487000D03*
X81915000Y-86487000D03*
X78994000Y-79502000D03*
X77978000Y-86106000D03*
X77406500Y-86106000D03*
X77343000Y-78740000D03*
X77978000Y-78740000D03*
X76708000Y-78740000D03*
X79502000Y-79502000D03*
X80010000Y-79502000D03*
X80391000Y-83629500D03*
X88036400Y-82397600D03*
X86461600Y-83870800D03*
X88036400Y-83108800D03*
X87223600Y-83870800D03*
X88036400Y-83870800D03*
X88036400Y-80975200D03*
X88036400Y-80264000D03*
X86664800Y-79603600D03*
X87325200Y-79603600D03*
X88036400Y-79603600D03*
X86614000Y-87376000D03*
X87122000Y-87376000D03*
X93980000Y-77216000D03*
X93472000Y-77216000D03*
X93472000Y-77724000D03*
X93980000Y-77724000D03*
X86614000Y-87884000D03*
X87122000Y-87884000D03*
X80899000Y-83629500D03*
%TO.N,DVDD*%
X80772000Y-85090000D03*
X82677000Y-89662000D03*
X86156800Y-81991200D03*
X85598000Y-81978500D03*
%TO.N,Net-(C4-Pad1)*%
X77724000Y-82677000D03*
%TD*%
D15*
%TO.N,GNDA*%
G36*
X99100667Y-70247631D02*
G01*
X99750598Y-70443857D01*
X100350036Y-70762583D01*
X100876155Y-71191675D01*
X101308904Y-71714779D01*
X101631810Y-72311980D01*
X101832569Y-72960529D01*
X101905167Y-73651256D01*
X101905201Y-73660867D01*
X101905200Y-93963870D01*
X101837369Y-94655667D01*
X101641142Y-95305599D01*
X101322415Y-95905038D01*
X100893327Y-96431153D01*
X100370221Y-96863904D01*
X99773020Y-97186810D01*
X99124471Y-97387569D01*
X98433744Y-97460167D01*
X98424419Y-97460200D01*
X74946130Y-97460200D01*
X74254333Y-97392369D01*
X73604401Y-97196142D01*
X73004962Y-96877415D01*
X72478847Y-96448327D01*
X72233921Y-96152262D01*
X81750800Y-96152262D01*
X81750800Y-96379738D01*
X81795178Y-96602843D01*
X81882229Y-96813003D01*
X82008608Y-97002142D01*
X82169458Y-97162992D01*
X82358597Y-97289371D01*
X82568757Y-97376422D01*
X82791862Y-97420800D01*
X83019338Y-97420800D01*
X83242443Y-97376422D01*
X83452603Y-97289371D01*
X83641742Y-97162992D01*
X83802592Y-97002142D01*
X83928971Y-96813003D01*
X84016022Y-96602843D01*
X84060400Y-96379738D01*
X84060400Y-96152262D01*
X84290800Y-96152262D01*
X84290800Y-96379738D01*
X84335178Y-96602843D01*
X84422229Y-96813003D01*
X84548608Y-97002142D01*
X84709458Y-97162992D01*
X84898597Y-97289371D01*
X85108757Y-97376422D01*
X85331862Y-97420800D01*
X85559338Y-97420800D01*
X85782443Y-97376422D01*
X85992603Y-97289371D01*
X86181742Y-97162992D01*
X86342592Y-97002142D01*
X86468971Y-96813003D01*
X86556022Y-96602843D01*
X86600400Y-96379738D01*
X86600400Y-96152262D01*
X86830800Y-96152262D01*
X86830800Y-96379738D01*
X86875178Y-96602843D01*
X86962229Y-96813003D01*
X87088608Y-97002142D01*
X87249458Y-97162992D01*
X87438597Y-97289371D01*
X87648757Y-97376422D01*
X87871862Y-97420800D01*
X88099338Y-97420800D01*
X88322443Y-97376422D01*
X88532603Y-97289371D01*
X88721742Y-97162992D01*
X88882592Y-97002142D01*
X89008971Y-96813003D01*
X89096022Y-96602843D01*
X89140400Y-96379738D01*
X89140400Y-96152262D01*
X89370800Y-96152262D01*
X89370800Y-96379738D01*
X89415178Y-96602843D01*
X89502229Y-96813003D01*
X89628608Y-97002142D01*
X89789458Y-97162992D01*
X89978597Y-97289371D01*
X90188757Y-97376422D01*
X90411862Y-97420800D01*
X90639338Y-97420800D01*
X90862443Y-97376422D01*
X91072603Y-97289371D01*
X91261742Y-97162992D01*
X91422592Y-97002142D01*
X91548971Y-96813003D01*
X91636022Y-96602843D01*
X91680400Y-96379738D01*
X91680400Y-96152262D01*
X91910800Y-96152262D01*
X91910800Y-96379738D01*
X91955178Y-96602843D01*
X92042229Y-96813003D01*
X92168608Y-97002142D01*
X92329458Y-97162992D01*
X92518597Y-97289371D01*
X92728757Y-97376422D01*
X92951862Y-97420800D01*
X93179338Y-97420800D01*
X93402443Y-97376422D01*
X93612603Y-97289371D01*
X93801742Y-97162992D01*
X93962592Y-97002142D01*
X94088971Y-96813003D01*
X94176022Y-96602843D01*
X94220400Y-96379738D01*
X94220400Y-96152262D01*
X94176022Y-95929157D01*
X94088971Y-95718997D01*
X93962592Y-95529858D01*
X93801742Y-95369008D01*
X93612603Y-95242629D01*
X93402443Y-95155578D01*
X93179338Y-95111200D01*
X92951862Y-95111200D01*
X92728757Y-95155578D01*
X92518597Y-95242629D01*
X92329458Y-95369008D01*
X92168608Y-95529858D01*
X92042229Y-95718997D01*
X91955178Y-95929157D01*
X91910800Y-96152262D01*
X91680400Y-96152262D01*
X91636022Y-95929157D01*
X91548971Y-95718997D01*
X91422592Y-95529858D01*
X91261742Y-95369008D01*
X91072603Y-95242629D01*
X90862443Y-95155578D01*
X90639338Y-95111200D01*
X90411862Y-95111200D01*
X90188757Y-95155578D01*
X89978597Y-95242629D01*
X89789458Y-95369008D01*
X89628608Y-95529858D01*
X89502229Y-95718997D01*
X89415178Y-95929157D01*
X89370800Y-96152262D01*
X89140400Y-96152262D01*
X89096022Y-95929157D01*
X89008971Y-95718997D01*
X88882592Y-95529858D01*
X88721742Y-95369008D01*
X88532603Y-95242629D01*
X88322443Y-95155578D01*
X88099338Y-95111200D01*
X87871862Y-95111200D01*
X87648757Y-95155578D01*
X87438597Y-95242629D01*
X87249458Y-95369008D01*
X87088608Y-95529858D01*
X86962229Y-95718997D01*
X86875178Y-95929157D01*
X86830800Y-96152262D01*
X86600400Y-96152262D01*
X86556022Y-95929157D01*
X86468971Y-95718997D01*
X86342592Y-95529858D01*
X86181742Y-95369008D01*
X85992603Y-95242629D01*
X85782443Y-95155578D01*
X85559338Y-95111200D01*
X85331862Y-95111200D01*
X85108757Y-95155578D01*
X84898597Y-95242629D01*
X84709458Y-95369008D01*
X84548608Y-95529858D01*
X84422229Y-95718997D01*
X84335178Y-95929157D01*
X84290800Y-96152262D01*
X84060400Y-96152262D01*
X84016022Y-95929157D01*
X83928971Y-95718997D01*
X83802592Y-95529858D01*
X83641742Y-95369008D01*
X83452603Y-95242629D01*
X83242443Y-95155578D01*
X83019338Y-95111200D01*
X82791862Y-95111200D01*
X82568757Y-95155578D01*
X82358597Y-95242629D01*
X82169458Y-95369008D01*
X82008608Y-95529858D01*
X81882229Y-95718997D01*
X81795178Y-95929157D01*
X81750800Y-96152262D01*
X72233921Y-96152262D01*
X72046096Y-95925221D01*
X71723190Y-95328020D01*
X71522431Y-94679471D01*
X71449833Y-93988744D01*
X71449800Y-93979419D01*
X71449800Y-92876000D01*
X79209326Y-92876000D01*
X79209326Y-94576000D01*
X79215211Y-94635751D01*
X79232640Y-94693206D01*
X79260942Y-94746157D01*
X79299032Y-94792568D01*
X79345443Y-94830658D01*
X79398394Y-94858960D01*
X79455849Y-94876389D01*
X79515600Y-94882274D01*
X81215600Y-94882274D01*
X81275351Y-94876389D01*
X81332806Y-94858960D01*
X81385757Y-94830658D01*
X81432168Y-94792568D01*
X81470258Y-94746157D01*
X81498560Y-94693206D01*
X81515989Y-94635751D01*
X81521874Y-94576000D01*
X81521874Y-93612262D01*
X81750800Y-93612262D01*
X81750800Y-93839738D01*
X81795178Y-94062843D01*
X81882229Y-94273003D01*
X82008608Y-94462142D01*
X82169458Y-94622992D01*
X82358597Y-94749371D01*
X82568757Y-94836422D01*
X82791862Y-94880800D01*
X83019338Y-94880800D01*
X83242443Y-94836422D01*
X83452603Y-94749371D01*
X83641742Y-94622992D01*
X83802592Y-94462142D01*
X83928971Y-94273003D01*
X84016022Y-94062843D01*
X84060400Y-93839738D01*
X84060400Y-93612262D01*
X86830800Y-93612262D01*
X86830800Y-93839738D01*
X86875178Y-94062843D01*
X86962229Y-94273003D01*
X87088608Y-94462142D01*
X87249458Y-94622992D01*
X87438597Y-94749371D01*
X87648757Y-94836422D01*
X87871862Y-94880800D01*
X88099338Y-94880800D01*
X88322443Y-94836422D01*
X88532603Y-94749371D01*
X88721742Y-94622992D01*
X88882592Y-94462142D01*
X89008971Y-94273003D01*
X89096022Y-94062843D01*
X89140400Y-93839738D01*
X89140400Y-93612262D01*
X91910800Y-93612262D01*
X91910800Y-93839738D01*
X91955178Y-94062843D01*
X92042229Y-94273003D01*
X92168608Y-94462142D01*
X92329458Y-94622992D01*
X92518597Y-94749371D01*
X92728757Y-94836422D01*
X92951862Y-94880800D01*
X93179338Y-94880800D01*
X93402443Y-94836422D01*
X93612603Y-94749371D01*
X93801742Y-94622992D01*
X93962592Y-94462142D01*
X94088971Y-94273003D01*
X94176022Y-94062843D01*
X94220400Y-93839738D01*
X94220400Y-93612262D01*
X94176022Y-93389157D01*
X94088971Y-93178997D01*
X93962592Y-92989858D01*
X93801742Y-92829008D01*
X93612603Y-92702629D01*
X93402443Y-92615578D01*
X93179338Y-92571200D01*
X92951862Y-92571200D01*
X92728757Y-92615578D01*
X92518597Y-92702629D01*
X92329458Y-92829008D01*
X92168608Y-92989858D01*
X92042229Y-93178997D01*
X91955178Y-93389157D01*
X91910800Y-93612262D01*
X89140400Y-93612262D01*
X89096022Y-93389157D01*
X89008971Y-93178997D01*
X88882592Y-92989858D01*
X88721742Y-92829008D01*
X88532603Y-92702629D01*
X88322443Y-92615578D01*
X88099338Y-92571200D01*
X87871862Y-92571200D01*
X87648757Y-92615578D01*
X87438597Y-92702629D01*
X87249458Y-92829008D01*
X87088608Y-92989858D01*
X86962229Y-93178997D01*
X86875178Y-93389157D01*
X86830800Y-93612262D01*
X84060400Y-93612262D01*
X84016022Y-93389157D01*
X83928971Y-93178997D01*
X83802592Y-92989858D01*
X83641742Y-92829008D01*
X83452603Y-92702629D01*
X83242443Y-92615578D01*
X83019338Y-92571200D01*
X82791862Y-92571200D01*
X82568757Y-92615578D01*
X82358597Y-92702629D01*
X82169458Y-92829008D01*
X82008608Y-92989858D01*
X81882229Y-93178997D01*
X81795178Y-93389157D01*
X81750800Y-93612262D01*
X81521874Y-93612262D01*
X81521874Y-92876000D01*
X81515989Y-92816249D01*
X81498560Y-92758794D01*
X81470258Y-92705843D01*
X81432168Y-92659432D01*
X81385757Y-92621342D01*
X81332806Y-92593040D01*
X81275351Y-92575611D01*
X81215600Y-92569726D01*
X79515600Y-92569726D01*
X79455849Y-92575611D01*
X79398394Y-92593040D01*
X79345443Y-92621342D01*
X79299032Y-92659432D01*
X79260942Y-92705843D01*
X79232640Y-92758794D01*
X79215211Y-92816249D01*
X79209326Y-92876000D01*
X71449800Y-92876000D01*
X71449800Y-89616970D01*
X82219800Y-89616970D01*
X82219800Y-89707030D01*
X82237370Y-89795360D01*
X82271835Y-89878565D01*
X82321870Y-89953448D01*
X82385552Y-90017130D01*
X82460435Y-90067165D01*
X82543640Y-90101630D01*
X82631970Y-90119200D01*
X82722030Y-90119200D01*
X82810360Y-90101630D01*
X82893565Y-90067165D01*
X82968448Y-90017130D01*
X83032130Y-89953448D01*
X83082165Y-89878565D01*
X83116630Y-89795360D01*
X83134200Y-89707030D01*
X83134200Y-89616970D01*
X83116630Y-89528640D01*
X83082165Y-89445435D01*
X83032130Y-89370552D01*
X82968448Y-89306870D01*
X82893565Y-89256835D01*
X82810360Y-89222370D01*
X82722030Y-89204800D01*
X82631970Y-89204800D01*
X82543640Y-89222370D01*
X82460435Y-89256835D01*
X82385552Y-89306870D01*
X82321870Y-89370552D01*
X82271835Y-89445435D01*
X82237370Y-89528640D01*
X82219800Y-89616970D01*
X71449800Y-89616970D01*
X71449800Y-85507477D01*
X71493008Y-85572142D01*
X71653858Y-85732992D01*
X71842997Y-85859371D01*
X72053157Y-85946422D01*
X72276262Y-85990800D01*
X72503738Y-85990800D01*
X72726843Y-85946422D01*
X72937003Y-85859371D01*
X73126142Y-85732992D01*
X73286992Y-85572142D01*
X73413371Y-85383003D01*
X73500422Y-85172843D01*
X73525857Y-85044970D01*
X80314800Y-85044970D01*
X80314800Y-85135030D01*
X80332370Y-85223360D01*
X80366835Y-85306565D01*
X80416870Y-85381448D01*
X80480552Y-85445130D01*
X80555435Y-85495165D01*
X80638640Y-85529630D01*
X80726970Y-85547200D01*
X80817030Y-85547200D01*
X80905360Y-85529630D01*
X80988565Y-85495165D01*
X81063448Y-85445130D01*
X81127130Y-85381448D01*
X81177165Y-85306565D01*
X81211630Y-85223360D01*
X81229200Y-85135030D01*
X81229200Y-85044970D01*
X81211630Y-84956640D01*
X81177165Y-84873435D01*
X81127130Y-84798552D01*
X81063448Y-84734870D01*
X80988565Y-84684835D01*
X80905360Y-84650370D01*
X80817030Y-84632800D01*
X80726970Y-84632800D01*
X80638640Y-84650370D01*
X80555435Y-84684835D01*
X80480552Y-84734870D01*
X80416870Y-84798552D01*
X80366835Y-84873435D01*
X80332370Y-84956640D01*
X80314800Y-85044970D01*
X73525857Y-85044970D01*
X73544800Y-84949738D01*
X73544800Y-84722262D01*
X73500422Y-84499157D01*
X73413371Y-84288997D01*
X73286992Y-84099858D01*
X73126142Y-83939008D01*
X72937003Y-83812629D01*
X72726843Y-83725578D01*
X72503738Y-83681200D01*
X72276262Y-83681200D01*
X72053157Y-83725578D01*
X71842997Y-83812629D01*
X71653858Y-83939008D01*
X71493008Y-84099858D01*
X71449800Y-84164523D01*
X71449800Y-82631970D01*
X77266800Y-82631970D01*
X77266800Y-82722030D01*
X77284370Y-82810360D01*
X77318835Y-82893565D01*
X77368870Y-82968448D01*
X77432552Y-83032130D01*
X77507435Y-83082165D01*
X77590640Y-83116630D01*
X77678970Y-83134200D01*
X77769030Y-83134200D01*
X77857360Y-83116630D01*
X77940565Y-83082165D01*
X78015448Y-83032130D01*
X78079130Y-82968448D01*
X78129165Y-82893565D01*
X78163630Y-82810360D01*
X78181200Y-82722030D01*
X78181200Y-82631970D01*
X78163630Y-82543640D01*
X78129165Y-82460435D01*
X78079130Y-82385552D01*
X78015448Y-82321870D01*
X77940565Y-82271835D01*
X77857360Y-82237370D01*
X77769030Y-82219800D01*
X77678970Y-82219800D01*
X77590640Y-82237370D01*
X77507435Y-82271835D01*
X77432552Y-82321870D01*
X77368870Y-82385552D01*
X77318835Y-82460435D01*
X77284370Y-82543640D01*
X77266800Y-82631970D01*
X71449800Y-82631970D01*
X71449800Y-80897152D01*
X71480249Y-80906389D01*
X71540000Y-80912274D01*
X73240000Y-80912274D01*
X73299751Y-80906389D01*
X73357206Y-80888960D01*
X73410157Y-80860658D01*
X73456568Y-80822568D01*
X73494658Y-80776157D01*
X73522960Y-80723206D01*
X73540389Y-80665751D01*
X73546274Y-80606000D01*
X73546274Y-80599970D01*
X79806800Y-80599970D01*
X79806800Y-80690030D01*
X79824370Y-80778360D01*
X79848038Y-80835500D01*
X79824370Y-80892640D01*
X79806800Y-80980970D01*
X79806800Y-81071030D01*
X79824370Y-81159360D01*
X79858835Y-81242565D01*
X79908870Y-81317448D01*
X79972552Y-81381130D01*
X80047435Y-81431165D01*
X80130640Y-81465630D01*
X80218970Y-81483200D01*
X80309030Y-81483200D01*
X80397360Y-81465630D01*
X80480565Y-81431165D01*
X80555448Y-81381130D01*
X80619130Y-81317448D01*
X80640296Y-81285770D01*
X85140800Y-81285770D01*
X85140800Y-81375830D01*
X85158370Y-81464160D01*
X85192835Y-81547365D01*
X85242870Y-81622248D01*
X85275272Y-81654650D01*
X85242870Y-81687052D01*
X85192835Y-81761935D01*
X85158370Y-81845140D01*
X85140800Y-81933470D01*
X85140800Y-82023530D01*
X85158370Y-82111860D01*
X85192835Y-82195065D01*
X85242870Y-82269948D01*
X85306552Y-82333630D01*
X85381435Y-82383665D01*
X85464640Y-82418130D01*
X85552970Y-82435700D01*
X85643030Y-82435700D01*
X85731360Y-82418130D01*
X85814565Y-82383665D01*
X85867897Y-82348030D01*
X85940235Y-82396365D01*
X86023440Y-82430830D01*
X86111770Y-82448400D01*
X86201830Y-82448400D01*
X86290160Y-82430830D01*
X86373365Y-82396365D01*
X86448248Y-82346330D01*
X86511930Y-82282648D01*
X86561965Y-82207765D01*
X86596430Y-82124560D01*
X86614000Y-82036230D01*
X86614000Y-81946170D01*
X86596430Y-81857840D01*
X86561965Y-81774635D01*
X86511930Y-81699752D01*
X86473178Y-81661000D01*
X86511930Y-81622248D01*
X86561965Y-81547365D01*
X86596430Y-81464160D01*
X86614000Y-81375830D01*
X86614000Y-81285770D01*
X86596430Y-81197440D01*
X86561965Y-81114235D01*
X86511930Y-81039352D01*
X86448248Y-80975670D01*
X86373365Y-80925635D01*
X86290160Y-80891170D01*
X86201830Y-80873600D01*
X86111770Y-80873600D01*
X86023440Y-80891170D01*
X85940235Y-80925635D01*
X85877400Y-80967620D01*
X85814565Y-80925635D01*
X85731360Y-80891170D01*
X85643030Y-80873600D01*
X85552970Y-80873600D01*
X85464640Y-80891170D01*
X85381435Y-80925635D01*
X85306552Y-80975670D01*
X85242870Y-81039352D01*
X85192835Y-81114235D01*
X85158370Y-81197440D01*
X85140800Y-81285770D01*
X80640296Y-81285770D01*
X80669165Y-81242565D01*
X80703630Y-81159360D01*
X80721200Y-81071030D01*
X80721200Y-80980970D01*
X80703630Y-80892640D01*
X80679962Y-80835500D01*
X80703630Y-80778360D01*
X80721200Y-80690030D01*
X80721200Y-80599970D01*
X80703630Y-80511640D01*
X80669165Y-80428435D01*
X80619130Y-80353552D01*
X80555448Y-80289870D01*
X80480565Y-80239835D01*
X80397360Y-80205370D01*
X80309030Y-80187800D01*
X80218970Y-80187800D01*
X80130640Y-80205370D01*
X80047435Y-80239835D01*
X79972552Y-80289870D01*
X79908870Y-80353552D01*
X79858835Y-80428435D01*
X79824370Y-80511640D01*
X79806800Y-80599970D01*
X73546274Y-80599970D01*
X73546274Y-78906000D01*
X73540389Y-78846249D01*
X73522960Y-78788794D01*
X73494658Y-78735843D01*
X73456568Y-78689432D01*
X73410157Y-78651342D01*
X73357206Y-78623040D01*
X73299751Y-78605611D01*
X73240000Y-78599726D01*
X71540000Y-78599726D01*
X71480249Y-78605611D01*
X71449800Y-78614848D01*
X71449800Y-78567970D01*
X75361800Y-78567970D01*
X75361800Y-78658030D01*
X75379370Y-78746360D01*
X75403038Y-78803500D01*
X75379370Y-78860640D01*
X75361800Y-78948970D01*
X75361800Y-79039030D01*
X75379370Y-79127360D01*
X75413835Y-79210565D01*
X75463870Y-79285448D01*
X75527552Y-79349130D01*
X75602435Y-79399165D01*
X75685640Y-79433630D01*
X75773970Y-79451200D01*
X75864030Y-79451200D01*
X75952360Y-79433630D01*
X76035565Y-79399165D01*
X76110448Y-79349130D01*
X76174130Y-79285448D01*
X76224165Y-79210565D01*
X76258630Y-79127360D01*
X76276200Y-79039030D01*
X76276200Y-78948970D01*
X76258630Y-78860640D01*
X76234962Y-78803500D01*
X76258630Y-78746360D01*
X76276200Y-78658030D01*
X76276200Y-78567970D01*
X76258630Y-78479640D01*
X76224165Y-78396435D01*
X76174130Y-78321552D01*
X76110448Y-78257870D01*
X76035565Y-78207835D01*
X75952360Y-78173370D01*
X75864030Y-78155800D01*
X75773970Y-78155800D01*
X75685640Y-78173370D01*
X75602435Y-78207835D01*
X75527552Y-78257870D01*
X75463870Y-78321552D01*
X75413835Y-78396435D01*
X75379370Y-78479640D01*
X75361800Y-78567970D01*
X71449800Y-78567970D01*
X71449800Y-73676130D01*
X71517631Y-72984333D01*
X71713857Y-72334402D01*
X72032583Y-71734964D01*
X72461675Y-71208845D01*
X72984779Y-70776096D01*
X73581980Y-70453190D01*
X74230529Y-70252431D01*
X74921256Y-70179833D01*
X74930581Y-70179800D01*
X98408870Y-70179800D01*
X99100667Y-70247631D01*
G37*
X99100667Y-70247631D02*
X99750598Y-70443857D01*
X100350036Y-70762583D01*
X100876155Y-71191675D01*
X101308904Y-71714779D01*
X101631810Y-72311980D01*
X101832569Y-72960529D01*
X101905167Y-73651256D01*
X101905201Y-73660867D01*
X101905200Y-93963870D01*
X101837369Y-94655667D01*
X101641142Y-95305599D01*
X101322415Y-95905038D01*
X100893327Y-96431153D01*
X100370221Y-96863904D01*
X99773020Y-97186810D01*
X99124471Y-97387569D01*
X98433744Y-97460167D01*
X98424419Y-97460200D01*
X74946130Y-97460200D01*
X74254333Y-97392369D01*
X73604401Y-97196142D01*
X73004962Y-96877415D01*
X72478847Y-96448327D01*
X72233921Y-96152262D01*
X81750800Y-96152262D01*
X81750800Y-96379738D01*
X81795178Y-96602843D01*
X81882229Y-96813003D01*
X82008608Y-97002142D01*
X82169458Y-97162992D01*
X82358597Y-97289371D01*
X82568757Y-97376422D01*
X82791862Y-97420800D01*
X83019338Y-97420800D01*
X83242443Y-97376422D01*
X83452603Y-97289371D01*
X83641742Y-97162992D01*
X83802592Y-97002142D01*
X83928971Y-96813003D01*
X84016022Y-96602843D01*
X84060400Y-96379738D01*
X84060400Y-96152262D01*
X84290800Y-96152262D01*
X84290800Y-96379738D01*
X84335178Y-96602843D01*
X84422229Y-96813003D01*
X84548608Y-97002142D01*
X84709458Y-97162992D01*
X84898597Y-97289371D01*
X85108757Y-97376422D01*
X85331862Y-97420800D01*
X85559338Y-97420800D01*
X85782443Y-97376422D01*
X85992603Y-97289371D01*
X86181742Y-97162992D01*
X86342592Y-97002142D01*
X86468971Y-96813003D01*
X86556022Y-96602843D01*
X86600400Y-96379738D01*
X86600400Y-96152262D01*
X86830800Y-96152262D01*
X86830800Y-96379738D01*
X86875178Y-96602843D01*
X86962229Y-96813003D01*
X87088608Y-97002142D01*
X87249458Y-97162992D01*
X87438597Y-97289371D01*
X87648757Y-97376422D01*
X87871862Y-97420800D01*
X88099338Y-97420800D01*
X88322443Y-97376422D01*
X88532603Y-97289371D01*
X88721742Y-97162992D01*
X88882592Y-97002142D01*
X89008971Y-96813003D01*
X89096022Y-96602843D01*
X89140400Y-96379738D01*
X89140400Y-96152262D01*
X89370800Y-96152262D01*
X89370800Y-96379738D01*
X89415178Y-96602843D01*
X89502229Y-96813003D01*
X89628608Y-97002142D01*
X89789458Y-97162992D01*
X89978597Y-97289371D01*
X90188757Y-97376422D01*
X90411862Y-97420800D01*
X90639338Y-97420800D01*
X90862443Y-97376422D01*
X91072603Y-97289371D01*
X91261742Y-97162992D01*
X91422592Y-97002142D01*
X91548971Y-96813003D01*
X91636022Y-96602843D01*
X91680400Y-96379738D01*
X91680400Y-96152262D01*
X91910800Y-96152262D01*
X91910800Y-96379738D01*
X91955178Y-96602843D01*
X92042229Y-96813003D01*
X92168608Y-97002142D01*
X92329458Y-97162992D01*
X92518597Y-97289371D01*
X92728757Y-97376422D01*
X92951862Y-97420800D01*
X93179338Y-97420800D01*
X93402443Y-97376422D01*
X93612603Y-97289371D01*
X93801742Y-97162992D01*
X93962592Y-97002142D01*
X94088971Y-96813003D01*
X94176022Y-96602843D01*
X94220400Y-96379738D01*
X94220400Y-96152262D01*
X94176022Y-95929157D01*
X94088971Y-95718997D01*
X93962592Y-95529858D01*
X93801742Y-95369008D01*
X93612603Y-95242629D01*
X93402443Y-95155578D01*
X93179338Y-95111200D01*
X92951862Y-95111200D01*
X92728757Y-95155578D01*
X92518597Y-95242629D01*
X92329458Y-95369008D01*
X92168608Y-95529858D01*
X92042229Y-95718997D01*
X91955178Y-95929157D01*
X91910800Y-96152262D01*
X91680400Y-96152262D01*
X91636022Y-95929157D01*
X91548971Y-95718997D01*
X91422592Y-95529858D01*
X91261742Y-95369008D01*
X91072603Y-95242629D01*
X90862443Y-95155578D01*
X90639338Y-95111200D01*
X90411862Y-95111200D01*
X90188757Y-95155578D01*
X89978597Y-95242629D01*
X89789458Y-95369008D01*
X89628608Y-95529858D01*
X89502229Y-95718997D01*
X89415178Y-95929157D01*
X89370800Y-96152262D01*
X89140400Y-96152262D01*
X89096022Y-95929157D01*
X89008971Y-95718997D01*
X88882592Y-95529858D01*
X88721742Y-95369008D01*
X88532603Y-95242629D01*
X88322443Y-95155578D01*
X88099338Y-95111200D01*
X87871862Y-95111200D01*
X87648757Y-95155578D01*
X87438597Y-95242629D01*
X87249458Y-95369008D01*
X87088608Y-95529858D01*
X86962229Y-95718997D01*
X86875178Y-95929157D01*
X86830800Y-96152262D01*
X86600400Y-96152262D01*
X86556022Y-95929157D01*
X86468971Y-95718997D01*
X86342592Y-95529858D01*
X86181742Y-95369008D01*
X85992603Y-95242629D01*
X85782443Y-95155578D01*
X85559338Y-95111200D01*
X85331862Y-95111200D01*
X85108757Y-95155578D01*
X84898597Y-95242629D01*
X84709458Y-95369008D01*
X84548608Y-95529858D01*
X84422229Y-95718997D01*
X84335178Y-95929157D01*
X84290800Y-96152262D01*
X84060400Y-96152262D01*
X84016022Y-95929157D01*
X83928971Y-95718997D01*
X83802592Y-95529858D01*
X83641742Y-95369008D01*
X83452603Y-95242629D01*
X83242443Y-95155578D01*
X83019338Y-95111200D01*
X82791862Y-95111200D01*
X82568757Y-95155578D01*
X82358597Y-95242629D01*
X82169458Y-95369008D01*
X82008608Y-95529858D01*
X81882229Y-95718997D01*
X81795178Y-95929157D01*
X81750800Y-96152262D01*
X72233921Y-96152262D01*
X72046096Y-95925221D01*
X71723190Y-95328020D01*
X71522431Y-94679471D01*
X71449833Y-93988744D01*
X71449800Y-93979419D01*
X71449800Y-92876000D01*
X79209326Y-92876000D01*
X79209326Y-94576000D01*
X79215211Y-94635751D01*
X79232640Y-94693206D01*
X79260942Y-94746157D01*
X79299032Y-94792568D01*
X79345443Y-94830658D01*
X79398394Y-94858960D01*
X79455849Y-94876389D01*
X79515600Y-94882274D01*
X81215600Y-94882274D01*
X81275351Y-94876389D01*
X81332806Y-94858960D01*
X81385757Y-94830658D01*
X81432168Y-94792568D01*
X81470258Y-94746157D01*
X81498560Y-94693206D01*
X81515989Y-94635751D01*
X81521874Y-94576000D01*
X81521874Y-93612262D01*
X81750800Y-93612262D01*
X81750800Y-93839738D01*
X81795178Y-94062843D01*
X81882229Y-94273003D01*
X82008608Y-94462142D01*
X82169458Y-94622992D01*
X82358597Y-94749371D01*
X82568757Y-94836422D01*
X82791862Y-94880800D01*
X83019338Y-94880800D01*
X83242443Y-94836422D01*
X83452603Y-94749371D01*
X83641742Y-94622992D01*
X83802592Y-94462142D01*
X83928971Y-94273003D01*
X84016022Y-94062843D01*
X84060400Y-93839738D01*
X84060400Y-93612262D01*
X86830800Y-93612262D01*
X86830800Y-93839738D01*
X86875178Y-94062843D01*
X86962229Y-94273003D01*
X87088608Y-94462142D01*
X87249458Y-94622992D01*
X87438597Y-94749371D01*
X87648757Y-94836422D01*
X87871862Y-94880800D01*
X88099338Y-94880800D01*
X88322443Y-94836422D01*
X88532603Y-94749371D01*
X88721742Y-94622992D01*
X88882592Y-94462142D01*
X89008971Y-94273003D01*
X89096022Y-94062843D01*
X89140400Y-93839738D01*
X89140400Y-93612262D01*
X91910800Y-93612262D01*
X91910800Y-93839738D01*
X91955178Y-94062843D01*
X92042229Y-94273003D01*
X92168608Y-94462142D01*
X92329458Y-94622992D01*
X92518597Y-94749371D01*
X92728757Y-94836422D01*
X92951862Y-94880800D01*
X93179338Y-94880800D01*
X93402443Y-94836422D01*
X93612603Y-94749371D01*
X93801742Y-94622992D01*
X93962592Y-94462142D01*
X94088971Y-94273003D01*
X94176022Y-94062843D01*
X94220400Y-93839738D01*
X94220400Y-93612262D01*
X94176022Y-93389157D01*
X94088971Y-93178997D01*
X93962592Y-92989858D01*
X93801742Y-92829008D01*
X93612603Y-92702629D01*
X93402443Y-92615578D01*
X93179338Y-92571200D01*
X92951862Y-92571200D01*
X92728757Y-92615578D01*
X92518597Y-92702629D01*
X92329458Y-92829008D01*
X92168608Y-92989858D01*
X92042229Y-93178997D01*
X91955178Y-93389157D01*
X91910800Y-93612262D01*
X89140400Y-93612262D01*
X89096022Y-93389157D01*
X89008971Y-93178997D01*
X88882592Y-92989858D01*
X88721742Y-92829008D01*
X88532603Y-92702629D01*
X88322443Y-92615578D01*
X88099338Y-92571200D01*
X87871862Y-92571200D01*
X87648757Y-92615578D01*
X87438597Y-92702629D01*
X87249458Y-92829008D01*
X87088608Y-92989858D01*
X86962229Y-93178997D01*
X86875178Y-93389157D01*
X86830800Y-93612262D01*
X84060400Y-93612262D01*
X84016022Y-93389157D01*
X83928971Y-93178997D01*
X83802592Y-92989858D01*
X83641742Y-92829008D01*
X83452603Y-92702629D01*
X83242443Y-92615578D01*
X83019338Y-92571200D01*
X82791862Y-92571200D01*
X82568757Y-92615578D01*
X82358597Y-92702629D01*
X82169458Y-92829008D01*
X82008608Y-92989858D01*
X81882229Y-93178997D01*
X81795178Y-93389157D01*
X81750800Y-93612262D01*
X81521874Y-93612262D01*
X81521874Y-92876000D01*
X81515989Y-92816249D01*
X81498560Y-92758794D01*
X81470258Y-92705843D01*
X81432168Y-92659432D01*
X81385757Y-92621342D01*
X81332806Y-92593040D01*
X81275351Y-92575611D01*
X81215600Y-92569726D01*
X79515600Y-92569726D01*
X79455849Y-92575611D01*
X79398394Y-92593040D01*
X79345443Y-92621342D01*
X79299032Y-92659432D01*
X79260942Y-92705843D01*
X79232640Y-92758794D01*
X79215211Y-92816249D01*
X79209326Y-92876000D01*
X71449800Y-92876000D01*
X71449800Y-89616970D01*
X82219800Y-89616970D01*
X82219800Y-89707030D01*
X82237370Y-89795360D01*
X82271835Y-89878565D01*
X82321870Y-89953448D01*
X82385552Y-90017130D01*
X82460435Y-90067165D01*
X82543640Y-90101630D01*
X82631970Y-90119200D01*
X82722030Y-90119200D01*
X82810360Y-90101630D01*
X82893565Y-90067165D01*
X82968448Y-90017130D01*
X83032130Y-89953448D01*
X83082165Y-89878565D01*
X83116630Y-89795360D01*
X83134200Y-89707030D01*
X83134200Y-89616970D01*
X83116630Y-89528640D01*
X83082165Y-89445435D01*
X83032130Y-89370552D01*
X82968448Y-89306870D01*
X82893565Y-89256835D01*
X82810360Y-89222370D01*
X82722030Y-89204800D01*
X82631970Y-89204800D01*
X82543640Y-89222370D01*
X82460435Y-89256835D01*
X82385552Y-89306870D01*
X82321870Y-89370552D01*
X82271835Y-89445435D01*
X82237370Y-89528640D01*
X82219800Y-89616970D01*
X71449800Y-89616970D01*
X71449800Y-85507477D01*
X71493008Y-85572142D01*
X71653858Y-85732992D01*
X71842997Y-85859371D01*
X72053157Y-85946422D01*
X72276262Y-85990800D01*
X72503738Y-85990800D01*
X72726843Y-85946422D01*
X72937003Y-85859371D01*
X73126142Y-85732992D01*
X73286992Y-85572142D01*
X73413371Y-85383003D01*
X73500422Y-85172843D01*
X73525857Y-85044970D01*
X80314800Y-85044970D01*
X80314800Y-85135030D01*
X80332370Y-85223360D01*
X80366835Y-85306565D01*
X80416870Y-85381448D01*
X80480552Y-85445130D01*
X80555435Y-85495165D01*
X80638640Y-85529630D01*
X80726970Y-85547200D01*
X80817030Y-85547200D01*
X80905360Y-85529630D01*
X80988565Y-85495165D01*
X81063448Y-85445130D01*
X81127130Y-85381448D01*
X81177165Y-85306565D01*
X81211630Y-85223360D01*
X81229200Y-85135030D01*
X81229200Y-85044970D01*
X81211630Y-84956640D01*
X81177165Y-84873435D01*
X81127130Y-84798552D01*
X81063448Y-84734870D01*
X80988565Y-84684835D01*
X80905360Y-84650370D01*
X80817030Y-84632800D01*
X80726970Y-84632800D01*
X80638640Y-84650370D01*
X80555435Y-84684835D01*
X80480552Y-84734870D01*
X80416870Y-84798552D01*
X80366835Y-84873435D01*
X80332370Y-84956640D01*
X80314800Y-85044970D01*
X73525857Y-85044970D01*
X73544800Y-84949738D01*
X73544800Y-84722262D01*
X73500422Y-84499157D01*
X73413371Y-84288997D01*
X73286992Y-84099858D01*
X73126142Y-83939008D01*
X72937003Y-83812629D01*
X72726843Y-83725578D01*
X72503738Y-83681200D01*
X72276262Y-83681200D01*
X72053157Y-83725578D01*
X71842997Y-83812629D01*
X71653858Y-83939008D01*
X71493008Y-84099858D01*
X71449800Y-84164523D01*
X71449800Y-82631970D01*
X77266800Y-82631970D01*
X77266800Y-82722030D01*
X77284370Y-82810360D01*
X77318835Y-82893565D01*
X77368870Y-82968448D01*
X77432552Y-83032130D01*
X77507435Y-83082165D01*
X77590640Y-83116630D01*
X77678970Y-83134200D01*
X77769030Y-83134200D01*
X77857360Y-83116630D01*
X77940565Y-83082165D01*
X78015448Y-83032130D01*
X78079130Y-82968448D01*
X78129165Y-82893565D01*
X78163630Y-82810360D01*
X78181200Y-82722030D01*
X78181200Y-82631970D01*
X78163630Y-82543640D01*
X78129165Y-82460435D01*
X78079130Y-82385552D01*
X78015448Y-82321870D01*
X77940565Y-82271835D01*
X77857360Y-82237370D01*
X77769030Y-82219800D01*
X77678970Y-82219800D01*
X77590640Y-82237370D01*
X77507435Y-82271835D01*
X77432552Y-82321870D01*
X77368870Y-82385552D01*
X77318835Y-82460435D01*
X77284370Y-82543640D01*
X77266800Y-82631970D01*
X71449800Y-82631970D01*
X71449800Y-80897152D01*
X71480249Y-80906389D01*
X71540000Y-80912274D01*
X73240000Y-80912274D01*
X73299751Y-80906389D01*
X73357206Y-80888960D01*
X73410157Y-80860658D01*
X73456568Y-80822568D01*
X73494658Y-80776157D01*
X73522960Y-80723206D01*
X73540389Y-80665751D01*
X73546274Y-80606000D01*
X73546274Y-80599970D01*
X79806800Y-80599970D01*
X79806800Y-80690030D01*
X79824370Y-80778360D01*
X79848038Y-80835500D01*
X79824370Y-80892640D01*
X79806800Y-80980970D01*
X79806800Y-81071030D01*
X79824370Y-81159360D01*
X79858835Y-81242565D01*
X79908870Y-81317448D01*
X79972552Y-81381130D01*
X80047435Y-81431165D01*
X80130640Y-81465630D01*
X80218970Y-81483200D01*
X80309030Y-81483200D01*
X80397360Y-81465630D01*
X80480565Y-81431165D01*
X80555448Y-81381130D01*
X80619130Y-81317448D01*
X80640296Y-81285770D01*
X85140800Y-81285770D01*
X85140800Y-81375830D01*
X85158370Y-81464160D01*
X85192835Y-81547365D01*
X85242870Y-81622248D01*
X85275272Y-81654650D01*
X85242870Y-81687052D01*
X85192835Y-81761935D01*
X85158370Y-81845140D01*
X85140800Y-81933470D01*
X85140800Y-82023530D01*
X85158370Y-82111860D01*
X85192835Y-82195065D01*
X85242870Y-82269948D01*
X85306552Y-82333630D01*
X85381435Y-82383665D01*
X85464640Y-82418130D01*
X85552970Y-82435700D01*
X85643030Y-82435700D01*
X85731360Y-82418130D01*
X85814565Y-82383665D01*
X85867897Y-82348030D01*
X85940235Y-82396365D01*
X86023440Y-82430830D01*
X86111770Y-82448400D01*
X86201830Y-82448400D01*
X86290160Y-82430830D01*
X86373365Y-82396365D01*
X86448248Y-82346330D01*
X86511930Y-82282648D01*
X86561965Y-82207765D01*
X86596430Y-82124560D01*
X86614000Y-82036230D01*
X86614000Y-81946170D01*
X86596430Y-81857840D01*
X86561965Y-81774635D01*
X86511930Y-81699752D01*
X86473178Y-81661000D01*
X86511930Y-81622248D01*
X86561965Y-81547365D01*
X86596430Y-81464160D01*
X86614000Y-81375830D01*
X86614000Y-81285770D01*
X86596430Y-81197440D01*
X86561965Y-81114235D01*
X86511930Y-81039352D01*
X86448248Y-80975670D01*
X86373365Y-80925635D01*
X86290160Y-80891170D01*
X86201830Y-80873600D01*
X86111770Y-80873600D01*
X86023440Y-80891170D01*
X85940235Y-80925635D01*
X85877400Y-80967620D01*
X85814565Y-80925635D01*
X85731360Y-80891170D01*
X85643030Y-80873600D01*
X85552970Y-80873600D01*
X85464640Y-80891170D01*
X85381435Y-80925635D01*
X85306552Y-80975670D01*
X85242870Y-81039352D01*
X85192835Y-81114235D01*
X85158370Y-81197440D01*
X85140800Y-81285770D01*
X80640296Y-81285770D01*
X80669165Y-81242565D01*
X80703630Y-81159360D01*
X80721200Y-81071030D01*
X80721200Y-80980970D01*
X80703630Y-80892640D01*
X80679962Y-80835500D01*
X80703630Y-80778360D01*
X80721200Y-80690030D01*
X80721200Y-80599970D01*
X80703630Y-80511640D01*
X80669165Y-80428435D01*
X80619130Y-80353552D01*
X80555448Y-80289870D01*
X80480565Y-80239835D01*
X80397360Y-80205370D01*
X80309030Y-80187800D01*
X80218970Y-80187800D01*
X80130640Y-80205370D01*
X80047435Y-80239835D01*
X79972552Y-80289870D01*
X79908870Y-80353552D01*
X79858835Y-80428435D01*
X79824370Y-80511640D01*
X79806800Y-80599970D01*
X73546274Y-80599970D01*
X73546274Y-78906000D01*
X73540389Y-78846249D01*
X73522960Y-78788794D01*
X73494658Y-78735843D01*
X73456568Y-78689432D01*
X73410157Y-78651342D01*
X73357206Y-78623040D01*
X73299751Y-78605611D01*
X73240000Y-78599726D01*
X71540000Y-78599726D01*
X71480249Y-78605611D01*
X71449800Y-78614848D01*
X71449800Y-78567970D01*
X75361800Y-78567970D01*
X75361800Y-78658030D01*
X75379370Y-78746360D01*
X75403038Y-78803500D01*
X75379370Y-78860640D01*
X75361800Y-78948970D01*
X75361800Y-79039030D01*
X75379370Y-79127360D01*
X75413835Y-79210565D01*
X75463870Y-79285448D01*
X75527552Y-79349130D01*
X75602435Y-79399165D01*
X75685640Y-79433630D01*
X75773970Y-79451200D01*
X75864030Y-79451200D01*
X75952360Y-79433630D01*
X76035565Y-79399165D01*
X76110448Y-79349130D01*
X76174130Y-79285448D01*
X76224165Y-79210565D01*
X76258630Y-79127360D01*
X76276200Y-79039030D01*
X76276200Y-78948970D01*
X76258630Y-78860640D01*
X76234962Y-78803500D01*
X76258630Y-78746360D01*
X76276200Y-78658030D01*
X76276200Y-78567970D01*
X76258630Y-78479640D01*
X76224165Y-78396435D01*
X76174130Y-78321552D01*
X76110448Y-78257870D01*
X76035565Y-78207835D01*
X75952360Y-78173370D01*
X75864030Y-78155800D01*
X75773970Y-78155800D01*
X75685640Y-78173370D01*
X75602435Y-78207835D01*
X75527552Y-78257870D01*
X75463870Y-78321552D01*
X75413835Y-78396435D01*
X75379370Y-78479640D01*
X75361800Y-78567970D01*
X71449800Y-78567970D01*
X71449800Y-73676130D01*
X71517631Y-72984333D01*
X71713857Y-72334402D01*
X72032583Y-71734964D01*
X72461675Y-71208845D01*
X72984779Y-70776096D01*
X73581980Y-70453190D01*
X74230529Y-70252431D01*
X74921256Y-70179833D01*
X74930581Y-70179800D01*
X98408870Y-70179800D01*
X99100667Y-70247631D01*
%TD*%
M02*
